;TYPE=PLATED
;Layer: PTH_Through_Via
;EasyEDA Pro Client v2.2.45.4, 2025-12-09 09:54:17
;Gerber Generator version 0.3
M48
METRIC,LZ,0000.00000
;Hole size 1 = 0.30500 METRIC
T01C0.30500
;Hole size 2 = 0.30998 METRIC
T02C0.30998
%
G05
G90
T01
X-6.80645Y-27.93549
X10.795Y6.39565
X10.28697Y-4.79019
X7.06452Y-2.25807
X10.10151Y7.89515
T02
X-10.541Y-6.604
X0.381Y0.381
X1.524Y0.381
X1.524Y-0.762
X0.381Y-0.762
X-9.779Y-16.129
X-9.779Y-20.32
X-4.191Y-7.37387
X-6.731Y-5.715
X-1.905Y-27.305
X1.524Y-27.305
X1.016Y-15.748
X-0.889Y-16.383
X0.0Y-13.081
X2.032Y-13.081
X-12.7Y-22.098
X-6.731Y-14.859
X-4.191Y-16.383
X-5.461Y-16.383
X-8.636Y-14.859
X-2.54Y-11.049
X-10.668Y-19.85823
X6.985Y-27.051
X0.762Y-8.001
X0.762Y-8.763
X0.762Y-9.525
X0.762Y-10.287
X3.429Y-20.447
X4.191Y-20.447
X4.953Y-20.447
X3.429Y-27.305
X-3.429Y-27.305
X2.159Y-11.303
X-7.493Y-24.765
X-6.096Y-24.765
X-4.699Y-24.765
M30