G04 Layer: TopSilkscreenLayer*
G04 EasyEDA Pro v2.2.45.4, 2025-12-09 09:54:16*
G04 Gerber Generator version 0.3*
G04 Scale: 100 percent, Rotated: No, Reflected: No*
G04 Dimensions in millimeters*
G04 Leading zeros omitted, absolute positions, 4 integers and 5 decimals*
G04 Generated by one-click*
%FSLAX45Y45*%
%MOMM*%
%ADD10C,0.1524*%
%ADD11C,0.2032*%
%ADD12C,0.254*%
%ADD13C,0.15001*%
%ADD14C,0.15199*%
%ADD15C,0.2*%
%ADD16C,0.5628*%
%ADD17C,0.55999*%
%ADD18C,0.3*%
%ADD19C,0.5*%
G75*


G04 Text Start*
G54D10*
G01X686054Y-2810510D02*
G01X679704Y-2804414D01*
G01X670560Y-2801366D01*
G01X658114Y-2801366D01*
G01X648716Y-2804414D01*
G01X642620Y-2810510D01*
G01X642620Y-2816860D01*
G01X645668Y-2822956D01*
G01X648716Y-2826004D01*
G01X655066Y-2829052D01*
G01X673608Y-2835402D01*
G01X679704Y-2838450D01*
G01X682752Y-2841498D01*
G01X686054Y-2847848D01*
G01X686054Y-2856992D01*
G01X679704Y-2863342D01*
G01X670560Y-2866390D01*
G01X658114Y-2866390D01*
G01X648716Y-2863342D01*
G01X642620Y-2856992D01*
G01X716280Y-2801366D02*
G01X731520Y-2866390D01*
G01X747014Y-2801366D02*
G01X731520Y-2866390D01*
G01X747014Y-2801366D02*
G01X762508Y-2866390D01*
G01X778002Y-2801366D02*
G01X762508Y-2866390D01*
G01X808228Y-2813812D02*
G01X814324Y-2810510D01*
G01X823468Y-2801366D01*
G01X823468Y-2866390D01*
G01X-1003046Y-2810510D02*
G01X-1009396Y-2804414D01*
G01X-1018540Y-2801366D01*
G01X-1030986Y-2801366D01*
G01X-1040384Y-2804414D01*
G01X-1046480Y-2810510D01*
G01X-1046480Y-2816860D01*
G01X-1043432Y-2822956D01*
G01X-1040384Y-2826004D01*
G01X-1034034Y-2829052D01*
G01X-1015492Y-2835402D01*
G01X-1009396Y-2838450D01*
G01X-1006348Y-2841498D01*
G01X-1003046Y-2847848D01*
G01X-1003046Y-2856992D01*
G01X-1009396Y-2863342D01*
G01X-1018540Y-2866390D01*
G01X-1030986Y-2866390D01*
G01X-1040384Y-2863342D01*
G01X-1046480Y-2856992D01*
G01X-973074Y-2801366D02*
G01X-957580Y-2866390D01*
G01X-942086Y-2801366D02*
G01X-957580Y-2866390D01*
G01X-942086Y-2801366D02*
G01X-926592Y-2866390D01*
G01X-911098Y-2801366D02*
G01X-926592Y-2866390D01*
G01X-877824Y-2816860D02*
G01X-877824Y-2813812D01*
G01X-874776Y-2807462D01*
G01X-871728Y-2804414D01*
G01X-865632Y-2801366D01*
G01X-853186Y-2801366D01*
G01X-846836Y-2804414D01*
G01X-843788Y-2807462D01*
G01X-840740Y-2813812D01*
G01X-840740Y-2819908D01*
G01X-843788Y-2826004D01*
G01X-850138Y-2835402D01*
G01X-881126Y-2866390D01*
G01X-837692Y-2866390D01*
G01X401169Y-2670283D02*
G01X401169Y-2716765D01*
G01X404217Y-2725909D01*
G01X410567Y-2732259D01*
G01X419711Y-2735307D01*
G01X426061Y-2735307D01*
G01X435205Y-2732259D01*
G01X441301Y-2725909D01*
G01X444603Y-2716765D01*
G01X444603Y-2670283D01*
G01X480925Y-2670283D02*
G01X514961Y-2670283D01*
G01X496419Y-2694921D01*
G01X505563Y-2694921D01*
G01X511913Y-2697969D01*
G01X514961Y-2701271D01*
G01X518009Y-2710415D01*
G01X518009Y-2716765D01*
G01X514961Y-2725909D01*
G01X508865Y-2732259D01*
G01X499467Y-2735307D01*
G01X490069Y-2735307D01*
G01X480925Y-2732259D01*
G01X477877Y-2728957D01*
G01X474829Y-2722861D01*
G01X-1038098Y-1699260D02*
G01X-1041146Y-1692910D01*
G01X-1047496Y-1686814D01*
G01X-1053592Y-1683766D01*
G01X-1066038Y-1683766D01*
G01X-1072134Y-1686814D01*
G01X-1078484Y-1692910D01*
G01X-1081532Y-1699260D01*
G01X-1084580Y-1708404D01*
G01X-1084580Y-1723898D01*
G01X-1081532Y-1733296D01*
G01X-1078484Y-1739392D01*
G01X-1072134Y-1745742D01*
G01X-1066038Y-1748790D01*
G01X-1053592Y-1748790D01*
G01X-1047496Y-1745742D01*
G01X-1041146Y-1739392D01*
G01X-1038098Y-1733296D01*
G01X-1007872Y-1696212D02*
G01X-1001776Y-1692910D01*
G01X-992632Y-1683766D01*
G01X-992632Y-1748790D01*
G01X981202Y-1102360D02*
G01X978154Y-1096010D01*
G01X971804Y-1089914D01*
G01X965708Y-1086866D01*
G01X953262Y-1086866D01*
G01X947166Y-1089914D01*
G01X940816Y-1096010D01*
G01X937768Y-1102360D01*
G01X934720Y-1111504D01*
G01X934720Y-1126998D01*
G01X937768Y-1136396D01*
G01X940816Y-1142492D01*
G01X947166Y-1148842D01*
G01X953262Y-1151890D01*
G01X965708Y-1151890D01*
G01X971804Y-1148842D01*
G01X978154Y-1142492D01*
G01X981202Y-1136396D01*
G01X1014476Y-1102360D02*
G01X1014476Y-1099312D01*
G01X1017524Y-1092962D01*
G01X1020572Y-1089914D01*
G01X1026668Y-1086866D01*
G01X1039114Y-1086866D01*
G01X1045464Y-1089914D01*
G01X1048512Y-1092962D01*
G01X1051560Y-1099312D01*
G01X1051560Y-1105408D01*
G01X1048512Y-1111504D01*
G01X1042162Y-1120902D01*
G01X1011428Y-1151890D01*
G01X1054608Y-1151890D01*
G01X968502Y-1877060D02*
G01X965454Y-1870710D01*
G01X959104Y-1864614D01*
G01X953008Y-1861566D01*
G01X940562Y-1861566D01*
G01X934466Y-1864614D01*
G01X928116Y-1870710D01*
G01X925068Y-1877060D01*
G01X922020Y-1886204D01*
G01X922020Y-1901698D01*
G01X925068Y-1911096D01*
G01X928116Y-1917192D01*
G01X934466Y-1923542D01*
G01X940562Y-1926590D01*
G01X953008Y-1926590D01*
G01X959104Y-1923542D01*
G01X965454Y-1917192D01*
G01X968502Y-1911096D01*
G01X1035812Y-1870710D02*
G01X1032764Y-1864614D01*
G01X1023366Y-1861566D01*
G01X1017270Y-1861566D01*
G01X1007872Y-1864614D01*
G01X1001776Y-1874012D01*
G01X998728Y-1889252D01*
G01X998728Y-1904746D01*
G01X1001776Y-1917192D01*
G01X1007872Y-1923542D01*
G01X1017270Y-1926590D01*
G01X1020318Y-1926590D01*
G01X1029462Y-1923542D01*
G01X1035812Y-1917192D01*
G01X1038860Y-1908048D01*
G01X1038860Y-1904746D01*
G01X1035812Y-1895602D01*
G01X1029462Y-1889252D01*
G01X1020318Y-1886204D01*
G01X1017270Y-1886204D01*
G01X1007872Y-1889252D01*
G01X1001776Y-1895602D01*
G01X998728Y-1904746D01*
G01X756539Y-2186051D02*
G01X756539Y-2251075D01*
G01X756539Y-2186051D02*
G01X778129Y-2186051D01*
G01X787527Y-2189099D01*
G01X793623Y-2195195D01*
G01X796671Y-2201545D01*
G01X799973Y-2210689D01*
G01X799973Y-2226183D01*
G01X796671Y-2235581D01*
G01X793623Y-2241677D01*
G01X787527Y-2248027D01*
G01X778129Y-2251075D01*
G01X756539Y-2251075D01*
G01X830199Y-2198497D02*
G01X836295Y-2195195D01*
G01X845439Y-2186051D01*
G01X845439Y-2251075D01*
G01X-1414780Y-2572766D02*
G01X-1414780Y-2637790D01*
G01X-1414780Y-2637790D02*
G01X-1377696Y-2637790D01*
G01X-1347470Y-2572766D02*
G01X-1347470Y-2637790D01*
G01X-1347470Y-2572766D02*
G01X-1307338Y-2572766D01*
G01X-1347470Y-2603754D02*
G01X-1322832Y-2603754D01*
G01X-1347470Y-2637790D02*
G01X-1307338Y-2637790D01*
G01X-1277112Y-2572766D02*
G01X-1277112Y-2637790D01*
G01X-1277112Y-2572766D02*
G01X-1255522Y-2572766D01*
G01X-1246378Y-2575814D01*
G01X-1240028Y-2581910D01*
G01X-1236980Y-2588260D01*
G01X-1233932Y-2597404D01*
G01X-1233932Y-2612898D01*
G01X-1236980Y-2622296D01*
G01X-1240028Y-2628392D01*
G01X-1246378Y-2634742D01*
G01X-1255522Y-2637790D01*
G01X-1277112Y-2637790D01*
G01X-1203706Y-2585212D02*
G01X-1197610Y-2581910D01*
G01X-1188466Y-2572766D01*
G01X-1188466Y-2637790D01*
G01X-634238Y-743966D02*
G01X-640334Y-747014D01*
G01X-646684Y-753110D01*
G01X-649732Y-759460D01*
G01X-652780Y-768604D01*
G01X-652780Y-784098D01*
G01X-649732Y-793496D01*
G01X-646684Y-799592D01*
G01X-640334Y-805942D01*
G01X-634238Y-808990D01*
G01X-621792Y-808990D01*
G01X-615696Y-805942D01*
G01X-609346Y-799592D01*
G01X-606298Y-793496D01*
G01X-603250Y-784098D01*
G01X-603250Y-768604D01*
G01X-606298Y-759460D01*
G01X-609346Y-753110D01*
G01X-615696Y-747014D01*
G01X-621792Y-743966D01*
G01X-634238Y-743966D01*
G01X-624840Y-796544D02*
G01X-606298Y-815086D01*
G01X-573024Y-756412D02*
G01X-566928Y-753110D01*
G01X-557784Y-743966D01*
G01X-557784Y-808990D01*
G01X-1071880Y-1886966D02*
G01X-1071880Y-1951990D01*
G01X-1071880Y-1886966D02*
G01X-1043940Y-1886966D01*
G01X-1034796Y-1890014D01*
G01X-1031748Y-1893062D01*
G01X-1028446Y-1899412D01*
G01X-1028446Y-1905508D01*
G01X-1031748Y-1911604D01*
G01X-1034796Y-1914652D01*
G01X-1043940Y-1917954D01*
G01X-1071880Y-1917954D01*
G01X-1050290Y-1917954D02*
G01X-1028446Y-1951990D01*
G01X-998220Y-1899412D02*
G01X-992124Y-1896110D01*
G01X-982980Y-1886966D01*
G01X-982980Y-1951990D01*
G01X-1071880Y-2077466D02*
G01X-1071880Y-2142490D01*
G01X-1071880Y-2077466D02*
G01X-1043940Y-2077466D01*
G01X-1034796Y-2080514D01*
G01X-1031748Y-2083562D01*
G01X-1028446Y-2089912D01*
G01X-1028446Y-2096008D01*
G01X-1031748Y-2102104D01*
G01X-1034796Y-2105152D01*
G01X-1043940Y-2108454D01*
G01X-1071880Y-2108454D01*
G01X-1050290Y-2108454D02*
G01X-1028446Y-2142490D01*
G01X-995172Y-2092960D02*
G01X-995172Y-2089912D01*
G01X-992124Y-2083562D01*
G01X-989076Y-2080514D01*
G01X-982980Y-2077466D01*
G01X-970534Y-2077466D01*
G01X-964184Y-2080514D01*
G01X-961136Y-2083562D01*
G01X-958088Y-2089912D01*
G01X-958088Y-2096008D01*
G01X-961136Y-2102104D01*
G01X-967486Y-2111502D01*
G01X-998220Y-2142490D01*
G01X-955040Y-2142490D01*
G01X58420Y-1493266D02*
G01X58420Y-1558290D01*
G01X58420Y-1493266D02*
G01X86360Y-1493266D01*
G01X95504Y-1496314D01*
G01X98552Y-1499362D01*
G01X101854Y-1505712D01*
G01X101854Y-1511808D01*
G01X98552Y-1517904D01*
G01X95504Y-1520952D01*
G01X86360Y-1524254D01*
G01X58420Y-1524254D01*
G01X80010Y-1524254D02*
G01X101854Y-1558290D01*
G01X138176Y-1493266D02*
G01X172212Y-1493266D01*
G01X153670Y-1517904D01*
G01X162814Y-1517904D01*
G01X169164Y-1520952D01*
G01X172212Y-1524254D01*
G01X175260Y-1533398D01*
G01X175260Y-1539748D01*
G01X172212Y-1548892D01*
G01X166116Y-1555242D01*
G01X156718Y-1558290D01*
G01X147320Y-1558290D01*
G01X138176Y-1555242D01*
G01X135128Y-1551940D01*
G01X132080Y-1545844D01*
G01X-144780Y-1493266D02*
G01X-144780Y-1558290D01*
G01X-144780Y-1493266D02*
G01X-116840Y-1493266D01*
G01X-107696Y-1496314D01*
G01X-104648Y-1499362D01*
G01X-101346Y-1505712D01*
G01X-101346Y-1511808D01*
G01X-104648Y-1517904D01*
G01X-107696Y-1520952D01*
G01X-116840Y-1524254D01*
G01X-144780Y-1524254D01*
G01X-123190Y-1524254D02*
G01X-101346Y-1558290D01*
G01X-40386Y-1493266D02*
G01X-71120Y-1536446D01*
G01X-24892Y-1536446D01*
G01X-40386Y-1493266D02*
G01X-40386Y-1558290D01*
G01X-347980Y-1493266D02*
G01X-347980Y-1558290D01*
G01X-347980Y-1493266D02*
G01X-320040Y-1493266D01*
G01X-310896Y-1496314D01*
G01X-307848Y-1499362D01*
G01X-304546Y-1505712D01*
G01X-304546Y-1511808D01*
G01X-307848Y-1517904D01*
G01X-310896Y-1520952D01*
G01X-320040Y-1524254D01*
G01X-347980Y-1524254D01*
G01X-326390Y-1524254D02*
G01X-304546Y-1558290D01*
G01X-237236Y-1493266D02*
G01X-268224Y-1493266D01*
G01X-271272Y-1520952D01*
G01X-268224Y-1517904D01*
G01X-259080Y-1514856D01*
G01X-249682Y-1514856D01*
G01X-240284Y-1517904D01*
G01X-234188Y-1524254D01*
G01X-231140Y-1533398D01*
G01X-231140Y-1539748D01*
G01X-234188Y-1548892D01*
G01X-240284Y-1555242D01*
G01X-249682Y-1558290D01*
G01X-259080Y-1558290D01*
G01X-268224Y-1555242D01*
G01X-271272Y-1551940D01*
G01X-274320Y-1545844D01*
G54D11*
G01X-594131Y1080186D02*
G01X-639851Y960044D01*
G01X-594131Y1080186D02*
G01X-548411Y960044D01*
G01X-622579Y1000176D02*
G01X-565429Y1000176D01*
G01X-500659Y1080186D02*
G01X-500659Y960044D01*
G01X-500659Y1080186D02*
G01X-420649Y960044D01*
G01X-420649Y1080186D02*
G01X-420649Y960044D01*
G01X-332765Y1080186D02*
G01X-332765Y960044D01*
G01X-372897Y1080186D02*
G01X-292887Y1080186D01*
G01X-245135Y1080186D02*
G01X-245135Y960044D01*
G01X-245135Y1080186D02*
G01X-170713Y1080186D01*
G01X-245135Y1023036D02*
G01X-199415Y1023036D01*
G01X-245135Y960044D02*
G01X-170713Y960044D01*
G01X-122961Y1080186D02*
G01X-122961Y960044D01*
G01X-122961Y1080186D02*
G01X-42951Y960044D01*
G01X-42951Y1080186D02*
G01X-42951Y960044D01*
G01X4801Y1080186D02*
G01X4801Y960044D01*
G01X4801Y1080186D02*
G01X84811Y960044D01*
G01X84811Y1080186D02*
G01X84811Y960044D01*
G01X178283Y1080186D02*
G01X132563Y960044D01*
G01X178283Y1080186D02*
G01X224003Y960044D01*
G01X149835Y1000176D02*
G01X206985Y1000176D01*
G54D10*
G01X972566Y-1554480D02*
G01X1019048Y-1554480D01*
G01X1028192Y-1551432D01*
G01X1034542Y-1545082D01*
G01X1037590Y-1535938D01*
G01X1037590Y-1529588D01*
G01X1034542Y-1520444D01*
G01X1028192Y-1514348D01*
G01X1019048Y-1511046D01*
G01X972566Y-1511046D01*
G01X988060Y-1477772D02*
G01X985012Y-1477772D01*
G01X978662Y-1474724D01*
G01X975614Y-1471676D01*
G01X972566Y-1465580D01*
G01X972566Y-1453134D01*
G01X975614Y-1446784D01*
G01X978662Y-1443736D01*
G01X985012Y-1440688D01*
G01X991108Y-1440688D01*
G01X997204Y-1443736D01*
G01X1006602Y-1450086D01*
G01X1037590Y-1480820D01*
G01X1037590Y-1437640D01*
G01X-1002538Y-743966D02*
G01X-1008634Y-747014D01*
G01X-1014984Y-753110D01*
G01X-1018032Y-759460D01*
G01X-1021080Y-768604D01*
G01X-1021080Y-784098D01*
G01X-1018032Y-793496D01*
G01X-1014984Y-799592D01*
G01X-1008634Y-805942D01*
G01X-1002538Y-808990D01*
G01X-990092Y-808990D01*
G01X-983996Y-805942D01*
G01X-977646Y-799592D01*
G01X-974598Y-793496D01*
G01X-971550Y-784098D01*
G01X-971550Y-768604D01*
G01X-974598Y-759460D01*
G01X-977646Y-753110D01*
G01X-983996Y-747014D01*
G01X-990092Y-743966D01*
G01X-1002538Y-743966D01*
G01X-993140Y-796544D02*
G01X-974598Y-815086D01*
G01X-938276Y-759460D02*
G01X-938276Y-756412D01*
G01X-935228Y-750062D01*
G01X-932180Y-747014D01*
G01X-926084Y-743966D01*
G01X-913638Y-743966D01*
G01X-907288Y-747014D01*
G01X-904240Y-750062D01*
G01X-901192Y-756412D01*
G01X-901192Y-762508D01*
G01X-904240Y-768604D01*
G01X-910590Y-778002D01*
G01X-941324Y-808990D01*
G01X-898144Y-808990D01*
G01X-551180Y-1493266D02*
G01X-551180Y-1558290D01*
G01X-551180Y-1493266D02*
G01X-523240Y-1493266D01*
G01X-514096Y-1496314D01*
G01X-511048Y-1499362D01*
G01X-507746Y-1505712D01*
G01X-507746Y-1511808D01*
G01X-511048Y-1517904D01*
G01X-514096Y-1520952D01*
G01X-523240Y-1524254D01*
G01X-551180Y-1524254D01*
G01X-529590Y-1524254D02*
G01X-507746Y-1558290D01*
G01X-440436Y-1502410D02*
G01X-443484Y-1496314D01*
G01X-452882Y-1493266D01*
G01X-458978Y-1493266D01*
G01X-468376Y-1496314D01*
G01X-474472Y-1505712D01*
G01X-477520Y-1520952D01*
G01X-477520Y-1536446D01*
G01X-474472Y-1548892D01*
G01X-468376Y-1555242D01*
G01X-458978Y-1558290D01*
G01X-455930Y-1558290D01*
G01X-446786Y-1555242D01*
G01X-440436Y-1548892D01*
G01X-437388Y-1539748D01*
G01X-437388Y-1536446D01*
G01X-440436Y-1527302D01*
G01X-446786Y-1520952D01*
G01X-455930Y-1517904D01*
G01X-458978Y-1517904D01*
G01X-468376Y-1520952D01*
G01X-474472Y-1527302D01*
G01X-477520Y-1536446D01*
G01X-754380Y-1493266D02*
G01X-754380Y-1558290D01*
G01X-754380Y-1493266D02*
G01X-726440Y-1493266D01*
G01X-717296Y-1496314D01*
G01X-714248Y-1499362D01*
G01X-710946Y-1505712D01*
G01X-710946Y-1511808D01*
G01X-714248Y-1517904D01*
G01X-717296Y-1520952D01*
G01X-726440Y-1524254D01*
G01X-754380Y-1524254D01*
G01X-732790Y-1524254D02*
G01X-710946Y-1558290D01*
G01X-637540Y-1493266D02*
G01X-668528Y-1558290D01*
G01X-680720Y-1493266D02*
G01X-637540Y-1493266D01*
G01X-957580Y-1493266D02*
G01X-957580Y-1558290D01*
G01X-957580Y-1493266D02*
G01X-929640Y-1493266D01*
G01X-920496Y-1496314D01*
G01X-917448Y-1499362D01*
G01X-914146Y-1505712D01*
G01X-914146Y-1511808D01*
G01X-917448Y-1517904D01*
G01X-920496Y-1520952D01*
G01X-929640Y-1524254D01*
G01X-957580Y-1524254D01*
G01X-935990Y-1524254D02*
G01X-914146Y-1558290D01*
G01X-868680Y-1493266D02*
G01X-877824Y-1496314D01*
G01X-880872Y-1502410D01*
G01X-880872Y-1508760D01*
G01X-877824Y-1514856D01*
G01X-871728Y-1517904D01*
G01X-859282Y-1520952D01*
G01X-849884Y-1524254D01*
G01X-843788Y-1530350D01*
G01X-840740Y-1536446D01*
G01X-840740Y-1545844D01*
G01X-843788Y-1551940D01*
G01X-846836Y-1555242D01*
G01X-856234Y-1558290D01*
G01X-868680Y-1558290D01*
G01X-877824Y-1555242D01*
G01X-880872Y-1551940D01*
G01X-883920Y-1545844D01*
G01X-883920Y-1536446D01*
G01X-880872Y-1530350D01*
G01X-874776Y-1524254D01*
G01X-865378Y-1520952D01*
G01X-853186Y-1517904D01*
G01X-846836Y-1514856D01*
G01X-843788Y-1508760D01*
G01X-843788Y-1502410D01*
G01X-846836Y-1496314D01*
G01X-856234Y-1493266D01*
G01X-868680Y-1493266D01*
G01X211455Y-2056003D02*
G01X257937Y-2056003D01*
G01X267081Y-2052955D01*
G01X273431Y-2046605D01*
G01X276479Y-2037461D01*
G01X276479Y-2031111D01*
G01X273431Y-2021967D01*
G01X267081Y-2015871D01*
G01X257937Y-2012569D01*
G01X211455Y-2012569D01*
G01X211455Y-1951609D02*
G01X254635Y-1982343D01*
G01X254635Y-1936115D01*
G01X211455Y-1951609D02*
G01X276479Y-1951609D01*
G04 Text End*

G04 PolygonModel Start*
G54D12*
G01X685800Y-3251200D02*
G01X685800Y-3149600D01*
G01X889000Y-3251200D02*
G01X889000Y-3149600D01*
G01X733019Y-2980411D02*
G01X841781Y-2980411D01*
G01X635013Y-3063758D02*
G01X635013Y-3337042D01*
G01X733019Y-3420389D02*
G01X841781Y-3420389D01*
G01X942391Y-3338510D02*
G01X942391Y-3062290D01*
G01X685800Y-3149600D02*
G02X889000Y-3149600I101600J0D01*
G01X889000Y-3251200D02*
G02X685800Y-3251200I-101600J0D01*
G01X-889000Y-3251200D02*
G01X-889000Y-3149600D01*
G01X-685800Y-3251200D02*
G01X-685800Y-3149600D01*
G01X-841781Y-2980411D02*
G01X-733019Y-2980411D01*
G01X-939787Y-3063758D02*
G01X-939787Y-3337042D01*
G01X-841781Y-3420389D02*
G01X-733019Y-3420389D01*
G01X-632409Y-3338510D02*
G01X-632409Y-3062290D01*
G01X-889000Y-3149600D02*
G02X-685800Y-3149600I101600J0D01*
G01X-685800Y-3251200D02*
G02X-889000Y-3251200I-101600J0D01*
G01X449997Y-3281751D02*
G01X449997Y-3080461D01*
G01X449997Y-3652606D02*
G01X449997Y-3483463D01*
G01X-450004Y-3281751D02*
G01X-450004Y-3080461D01*
G01X-450004Y-3652606D02*
G01X-450004Y-3483463D01*
G01X449997Y-3652606D02*
G01X-450004Y-3652606D01*
G01X-1298019Y-1798157D02*
G01X-1378016Y-1798157D01*
G01X-1241974Y-1798203D02*
G01X-1161976Y-1798203D01*
G01X-1298019Y-1656189D02*
G01X-1378016Y-1656189D01*
G01X-1241974Y-1656237D02*
G01X-1161976Y-1656237D01*
G01X-1408991Y-1767175D02*
G01X-1408991Y-1687170D01*
G01X-1130998Y-1687223D02*
G01X-1130998Y-1767225D01*
G01X-1161981Y-1656237D02*
G02X-1130998Y-1687223I0J-30983D01*
G01X-1130998Y-1767220D02*
G02X-1161981Y-1798203I-30983J0D01*
G01X-1378011Y-1798157D02*
G02X-1408991Y-1767175I3J30983D01*
G01X-1408991Y-1687177D02*
G02X-1378011Y-1656189I30983J5D01*
G01X856143Y-860981D02*
G01X856143Y-780984D01*
G01X856097Y-917026D02*
G01X856097Y-997024D01*
G01X998111Y-860981D02*
G01X998111Y-780984D01*
G01X998063Y-917026D02*
G01X998063Y-997024D01*
G01X887125Y-750009D02*
G01X967130Y-750009D01*
G01X967077Y-1028001D02*
G01X887075Y-1028001D01*
G01X998063Y-997019D02*
G02X967077Y-1028001I-30983J0D01*
G01X887080Y-1028001D02*
G02X856097Y-997019I0J30983D01*
G01X856143Y-780989D02*
G02X887125Y-750009I30983J-3D01*
G01X967123Y-750009D02*
G02X998111Y-780989I5J-30983D01*
G01X627543Y-860981D02*
G01X627543Y-780984D01*
G01X627497Y-917026D02*
G01X627497Y-997024D01*
G01X769511Y-860981D02*
G01X769511Y-780984D01*
G01X769463Y-917026D02*
G01X769463Y-997024D01*
G01X658525Y-750009D02*
G01X738530Y-750009D01*
G01X738477Y-1028001D02*
G01X658475Y-1028001D01*
G01X769463Y-997019D02*
G02X738477Y-1028001I-30983J0D01*
G01X658480Y-1028001D02*
G02X627497Y-997019I0J30983D01*
G01X627543Y-780989D02*
G02X658525Y-750009I30983J-3D01*
G01X738523Y-750009D02*
G02X769511Y-780989I5J-30983D01*
G01X398943Y-860981D02*
G01X398943Y-780984D01*
G01X398897Y-917026D02*
G01X398897Y-997024D01*
G01X540911Y-860981D02*
G01X540911Y-780984D01*
G01X540863Y-917026D02*
G01X540863Y-997024D01*
G01X429925Y-750009D02*
G01X509930Y-750009D01*
G01X509877Y-1028001D02*
G01X429875Y-1028001D01*
G01X540863Y-997019D02*
G02X509877Y-1028001I-30983J0D01*
G01X429880Y-1028001D02*
G02X398897Y-997019I0J30983D01*
G01X398943Y-780989D02*
G02X429925Y-750009I30983J-3D01*
G01X509923Y-750009D02*
G02X540911Y-780989I5J-30983D01*
G01X170343Y-860981D02*
G01X170343Y-780984D01*
G01X170297Y-917026D02*
G01X170297Y-997024D01*
G01X312311Y-860981D02*
G01X312311Y-780984D01*
G01X312263Y-917026D02*
G01X312263Y-997024D01*
G01X201325Y-750009D02*
G01X281330Y-750009D01*
G01X281277Y-1028001D02*
G01X201275Y-1028001D01*
G01X312263Y-997019D02*
G02X281277Y-1028001I-30983J0D01*
G01X201280Y-1028001D02*
G02X170297Y-997019I0J30983D01*
G01X170343Y-780989D02*
G02X201325Y-750009I30983J-3D01*
G01X281323Y-750009D02*
G02X312311Y-780989I5J-30983D01*
G54D10*
G01X1409123Y-1849382D02*
G01X1417620Y-1849382D01*
G01X1417620Y-2214618D01*
G01X1130877Y-1849382D02*
G01X1122380Y-1849382D01*
G01X1122380Y-2214618D01*
G01X1417620Y-2122432D02*
G01X1122380Y-2122432D01*
G36*
G01X1425240Y-2207001D02*
G01X1404041Y-2207001D01*
G01X1404041Y-2252721D01*
G01X1425240Y-2252721D01*
G01X1425240Y-2207001D01*
G37*
G36*
G01X1114760Y-2207001D02*
G01X1135959Y-2207001D01*
G01X1135959Y-2252721D01*
G01X1114760Y-2252721D01*
G01X1114760Y-2207001D01*
G37*
G01X370380Y-2129879D02*
G01X645620Y-2129879D01*
G01X645620Y-2129879D02*
G01X645620Y-2154179D01*
G01X370380Y-2315121D02*
G01X645620Y-2315121D01*
G01X645620Y-2315121D02*
G01X645620Y-2290821D01*
G01X411320Y-2129879D02*
G01X411320Y-2315121D01*
G36*
G01X378000Y-2122259D02*
G01X378000Y-2159259D01*
G01X347520Y-2159259D01*
G01X347520Y-2122259D01*
G01X378000Y-2122259D01*
G37*
G36*
G01X378000Y-2322741D02*
G01X378000Y-2285741D01*
G01X347520Y-2285741D01*
G01X347520Y-2322741D01*
G01X378000Y-2322741D01*
G37*
G54D12*
G01X-1143000Y712094D02*
G01X-1397000Y712094D01*
G01X-1397000Y985200D02*
G01X-1397000Y-1600200D01*
G01X-1143000Y985200D02*
G01X-1397000Y985200D01*
G01X-1143000Y-1594800D02*
G01X-1143000Y985200D01*
G01X-1143000Y-1594800D02*
G01X-1397000Y-1594800D01*
G54D13*
G01X-1233000Y-2378100D02*
G01X-1118001Y-2378100D01*
G01X-1118001Y-2523099D01*
G01X-1238001Y-2523099D01*
G01X-1300000Y-2524100D02*
G01X-1424000Y-2524100D01*
G01X-1424000Y-2379101D01*
G01X-1300000Y-2379101D01*
G01X-1118001Y-2378100D02*
G01X-1114999Y-2378100D01*
G01X-1094999Y-2398100D01*
G01X-1094999Y-2500099D01*
G01X-1098001Y-2503099D01*
G01X-1118001Y-2523099D01*
G36*
G01X-1281001Y-2415101D02*
G01X-1282007Y-2487092D01*
G01X-1256007Y-2451092D01*
G01X-1281001Y-2415101D01*
G37*
G54D14*
G01X-39304Y-864001D02*
G01X-39304Y-879000D01*
G01X-179301Y-879000D01*
G01X-184300Y-879000D01*
G01X-184300Y-864001D01*
G01X-39304Y-864001D02*
G01X-184302Y-864001D01*
G54D12*
G01X699Y-759000D02*
G01X-485Y-759000D01*
G54D14*
G01X-4300Y-989000D02*
G01X-4300Y-789000D01*
G01X-224300Y-789000D02*
G01X-224300Y-989000D01*
G54D10*
G01X-266479Y-1012421D02*
G01X-266479Y-867179D01*
G01X-369641Y-867179D01*
G01X-571721Y-1012421D02*
G01X-571721Y-867179D01*
G01X-468559Y-867179D01*
G01X-373560Y-1012421D02*
G01X-464640Y-1012421D01*
G01X-1312621Y-1856854D02*
G01X-1408509Y-1856854D01*
G01X-1408509Y-1988975D01*
G01X-1312621Y-1988975D01*
G01X-1227379Y-1856854D02*
G01X-1131491Y-1856854D01*
G01X-1131491Y-1988975D01*
G01X-1227379Y-1988975D01*
G01X-1312621Y-2047629D02*
G01X-1408509Y-2047629D01*
G01X-1408509Y-2179749D01*
G01X-1312621Y-2179749D01*
G01X-1227379Y-2047629D02*
G01X-1131491Y-2047629D01*
G01X-1131491Y-2179749D01*
G01X-1227379Y-2179749D01*
G01X167660Y-1252779D02*
G01X167660Y-1156891D01*
G01X35540Y-1156891D01*
G01X35540Y-1252779D01*
G01X167660Y-1338021D02*
G01X167660Y-1433909D01*
G01X35540Y-1433909D01*
G01X35540Y-1338021D01*
G01X-25380Y-1252779D02*
G01X-25380Y-1156891D01*
G01X-157500Y-1156891D01*
G01X-157500Y-1252779D01*
G01X-25380Y-1338021D02*
G01X-25380Y-1433909D01*
G01X-157500Y-1433909D01*
G01X-157500Y-1338021D01*
G01X-350540Y-1338021D02*
G01X-350540Y-1433909D01*
G01X-218420Y-1433909D01*
G01X-218420Y-1338021D01*
G01X-350540Y-1252779D02*
G01X-350540Y-1156891D01*
G01X-218420Y-1156891D01*
G01X-218420Y-1252779D01*
G54D15*
G01X900001Y665424D02*
G01X900001Y1310010D01*
G01X-900001Y1310010D01*
G01X-900001Y665424D01*
G01X-900001Y710009D02*
G01X900001Y710009D01*
G01X-900001Y-665404D02*
G01X-900001Y-689991D01*
G01X-900001Y-515409D02*
G01X-900001Y-534579D01*
G01X-900001Y-365409D02*
G01X-900001Y-384579D01*
G01X-900001Y-215410D02*
G01X-900001Y-234579D01*
G01X-900001Y-65405D02*
G01X-900001Y-84577D01*
G01X-900001Y84597D02*
G01X-900001Y65423D01*
G01X-900001Y234589D02*
G01X-900001Y215422D01*
G01X-900001Y384592D02*
G01X-900001Y365422D01*
G01X-900001Y534591D02*
G01X-900001Y515422D01*
G01X900001Y515422D02*
G01X900001Y534591D01*
G01X900001Y365422D02*
G01X900001Y384592D01*
G01X900001Y215422D02*
G01X900001Y234589D01*
G01X900001Y65423D02*
G01X900001Y84597D01*
G01X900001Y-84577D02*
G01X900001Y-65405D01*
G01X900001Y-234579D02*
G01X900001Y-215410D01*
G01X900001Y-384579D02*
G01X900001Y-365409D01*
G01X900001Y-534579D02*
G01X900001Y-515409D01*
G01X-900001Y-689991D02*
G01X900001Y-689991D01*
G01X900001Y-665404D01*
G54D10*
G01X916821Y-1681142D02*
G01X251579Y-1681142D01*
G01X251579Y-1386863D01*
G01X916821Y-1386863D01*
G01X916821Y-1681142D01*
G54D17*
G01X-673100Y-1841500D02*
G01X-673100Y-1720850D01*
G01X88900Y-2298700D02*
G01X88900Y-2419350D01*
G01X-38100Y-2298700D02*
G01X-38100Y-2419350D01*
G01X-38100Y-1841500D02*
G01X-38100Y-1720850D01*
G01X-165100Y-1841500D02*
G01X-165100Y-1720850D01*
G01X-292100Y-1841500D02*
G01X-292100Y-1720850D01*
G54D10*
G01X-864311Y-2248052D02*
G01X-864311Y-1893768D01*
G01X150932Y-1893768D01*
G01X150932Y-2248052D01*
G01X-864311Y-2248052D01*
G54D18*
G01X-801197Y-2187834D02*
G02X-801552Y-2157815I-11J15011D01*
G02X-800532Y-2187819I344J-15007D01*
G01X-874425Y-2373178D02*
G02X-874780Y-2343159I-11J15011D01*
G02X-873760Y-2373163I344J-15007D01*
G54D12*
G01X1397000Y712094D02*
G01X1143000Y712094D01*
G01X1143000Y985200D02*
G01X1143000Y-1600200D01*
G01X1397000Y985200D02*
G01X1143000Y985200D01*
G01X1397000Y-1594800D02*
G01X1397000Y985200D01*
G01X1397000Y-1594800D02*
G01X1143000Y-1594800D01*
G54D10*
G01X-596679Y-1012421D02*
G01X-596679Y-867179D01*
G01X-699841Y-867179D01*
G01X-901921Y-1012421D02*
G01X-901921Y-867179D01*
G01X-798759Y-867179D01*
G01X-703760Y-1012421D02*
G01X-794840Y-1012421D01*
G01X-411460Y-1252779D02*
G01X-411460Y-1156891D01*
G01X-543580Y-1156891D01*
G01X-543580Y-1252779D01*
G01X-411460Y-1338021D02*
G01X-411460Y-1433909D01*
G01X-543580Y-1433909D01*
G01X-543580Y-1338021D01*
G01X-736620Y-1338021D02*
G01X-736620Y-1433909D01*
G01X-604500Y-1433909D01*
G01X-604500Y-1338021D01*
G01X-736620Y-1252779D02*
G01X-736620Y-1156891D01*
G01X-604500Y-1156891D01*
G01X-604500Y-1252779D01*
G01X-929660Y-1338021D02*
G01X-929660Y-1433909D01*
G01X-797540Y-1433909D01*
G01X-797540Y-1338021D01*
G01X-929660Y-1252779D02*
G01X-929660Y-1156891D01*
G01X-797540Y-1156891D01*
G01X-797540Y-1252779D01*

G04 Circle Start*
G54D19*
G01X-1002894Y736600D02*
G03X-952906Y736600I24994J0D01*
G03X-1002894Y736600I-24994J0D01*
G04 Circle End*

M02*

