G04 Layer: DrillDrawingLayer*
G04 EasyEDA Pro v2.2.45.4, 2025-12-09 09:54:16*
G04 Gerber Generator version 0.3*
G04 Scale: 100 percent, Rotated: No, Reflected: No*
G04 Dimensions in millimeters*
G04 Leading zeros omitted, absolute positions, 4 integers and 5 decimals*
G04 Generated by one-click*
%FSLAX45Y45*%
%MOMM*%
%AMIconRect*4,1,4,0.28,-0.28,-0.28,-0.28,-0.28,0.28,0.28,0.28,0.28,-0.28,0*4,0,4,0.233333,-0.233333,0.233333,0.233333,-0.233333,0.233333,-0.233333,-0.233333,0.233333,-0.233333,0*%
%AMIconTriangle*4,1,3,-0.339593,0.240473,0.339593,0.240473,0,-0.37884,-0.339593,0.240473,0*4,0,3,-0.265673,0.19404,0,-0.27342,0.266233,0.19404,-0.265673,0.19404,0*%
%AMIconStar6*4,1,12,0.12068,0.20888,0.298527,0.172713,0.241313,0,0.298527,-0.17206,0.12068,-0.208227,0,-0.344073,-0.120073,-0.208227,-0.298573,-0.17206,-0.240707,0,-0.298573,0.17206,-0.120073,0.20888,0,0.344073,0.12068,0.20888,0*4,0,12,-0.000467,0.273467,-0.090067,0.171733,-0.237533,0.136733,-0.193667,-0.007467,-0.237533,-0.1372,-0.090067,-0.171733,-0.000467,-0.273933,0.090067,-0.171733,0.237533,-0.1372,0.194133,0.007,0.237533,0.1372,0.090067,0.171267,-0.000467,0.273467,0*%
%AMIconStar4*4,1,8,-0.311733,0.311733,0,0.202533,0.311733,0.311733,0.202533,0,0.311733,-0.311733,0,-0.202533,-0.304407,-0.311733,-0.202533,0,-0.311733,0.311733,0*4,0,8,0.233333,-0.233333,0.1512,0,0.233333,0.233333,0,0.1512,-0.233333,0.233333,-0.1512,0,-0.233333,-0.233333,0,-0.1512,0.233333,-0.233333,0*%
%AMIconPlus*4,1,12,0.1736,-0.28,-0.1736,-0.28,-0.1736,-0.1736,-0.28,-0.1736,-0.28,0.1736,-0.1736,0.1736,-0.1736,0.28,0.1736,0.28,0.1736,0.1736,0.28,0.1736,0.28,-0.1736,0.1736,-0.1736,0.1736,-0.28,0*4,0,12,0.126933,-0.233333,0.126933,-0.126933,0.233333,-0.126933,0.233333,0.126933,0.126933,0.126933,0.126933,0.233333,-0.126933,0.233333,-0.126933,0.126933,-0.233333,0.126933,-0.233333,-0.126933,-0.126933,-0.126933,-0.126933,-0.233333,0.126933,-0.233333,0*%
%AMIconX*4,1,16,0.28,-0.28,0.076347,-0.28,0,-0.203653,-0.076347,-0.28,-0.28,-0.28,-0.28,-0.076347,-0.203653,0,-0.28,0.076347,-0.28,0.28,-0.076347,0.28,0,0.203653,0.076347,0.28,0.28,0.28,0.28,0.076347,0.203653,0,0.28,-0.076347,0.28,-0.28,0*4,0,16,0.23352,-0.23296,0.23352,-0.095853,0.137107,0.000093,0.23352,0.095853,0.23352,0.2331,0.095853,0.2331,0,0.137107,-0.095853,0.2331,-0.23352,0.2331,-0.23352,0.095853,-0.137107,0.000093,-0.23352,-0.095853,-0.23352,-0.23296,-0.095853,-0.23296,0,-0.137107,0.095853,-0.23296,0.23352,-0.23296,0*%
%ADD10IconRect*%
%ADD11C,0.616X0.522667*%
%ADD12IconTriangle*%
%ADD13IconStar6*%
%ADD14IconStar4*%
%ADD15IconPlus*%
%ADD16IconX*%
G75*


G04 Drill Drawing Start*
G54D10*
G01X-432003Y-2971597D03*
G01X432003Y-2971597D03*
G54D11*
G01X-432003Y-3389605D03*
G01X432003Y-3389605D03*
G54D12*
G01X-289992Y-3022600D03*
G01X289001Y-3022600D03*
G54D13*
G01X-1244600Y-3200400D03*
G01X-1244600Y1193800D03*
G01X1257300Y-3200400D03*
G01X1257300Y1193800D03*
G54D14*
G01X-680645Y-2793549D03*
G01X706452Y-225807D03*
G01X1010151Y789515D03*
G01X1028697Y-479019D03*
G01X1079500Y639565D03*
G54D15*
G01X-1270000Y-1447800D03*
G01X-1270000Y-1193800D03*
G01X-1270000Y-939800D03*
G01X-1270000Y-685800D03*
G01X-1270000Y-431800D03*
G01X-1270000Y-177800D03*
G01X-1270000Y76200D03*
G01X-1270000Y330200D03*
G01X-1270000Y584200D03*
G01X-1270000Y838200D03*
G01X1270000Y-1447800D03*
G01X1270000Y-1193800D03*
G01X1270000Y-939800D03*
G01X1270000Y-685800D03*
G01X1270000Y-431800D03*
G01X1270000Y-177800D03*
G01X1270000Y76200D03*
G01X1270000Y330200D03*
G01X1270000Y584200D03*
G01X1270000Y838200D03*
G54D16*
G01X-1270000Y-2209800D03*
G01X-1066800Y-1985823D03*
G01X-1054100Y-660400D03*
G01X-977900Y-2032000D03*
G01X-977900Y-1612900D03*
G01X-863600Y-1485900D03*
G01X-749300Y-2476500D03*
G01X-673100Y-1485900D03*
G01X-673100Y-571500D03*
G01X-609600Y-2476500D03*
G01X-546100Y-1638300D03*
G01X-469900Y-2476500D03*
G01X-419100Y-1638300D03*
G01X-419100Y-737387D03*
G01X-342900Y-2730500D03*
G01X-254000Y-1104900D03*
G01X-190500Y-2730500D03*
G01X-88900Y-1638300D03*
G01X0Y-1308100D03*
G01X38100Y-76200D03*
G01X38100Y38100D03*
G01X76200Y-1028700D03*
G01X76200Y-952500D03*
G01X76200Y-876300D03*
G01X76200Y-800100D03*
G01X101600Y-1574800D03*
G01X152400Y-2730500D03*
G01X152400Y-76200D03*
G01X152400Y38100D03*
G01X203200Y-1308100D03*
G01X215900Y-1130300D03*
G01X342900Y-2730500D03*
G01X342900Y-2044700D03*
G01X419100Y-2044700D03*
G01X495300Y-2044700D03*
G01X698500Y-2705100D03*
G04 Drill Drawing End*

M02*

