G04 Layer: BottomLayer*
G04 EasyEDA Pro v2.2.45.4, 2025-12-09 09:54:16*
G04 Gerber Generator version 0.3*
G04 Scale: 100 percent, Rotated: No, Reflected: No*
G04 Dimensions in millimeters*
G04 Leading zeros omitted, absolute positions, 4 integers and 5 decimals*
G04 Generated by one-click*
%FSLAX45Y45*%
%MOMM*%
%ADD10C,0.85508*%
%ADD11C,0.254*%
%ADD12O,1.0X2.1*%
%ADD13O,1.0X1.8*%
%ADD14C,1.7*%
%ADD15R,1.7X1.5748*%
%ADD16C,0.62001*%
%ADD17C,0.61001*%
%ADD18C,0.5020*%
%ADD19C,0.5*%
G75*


G04 Copper Start*
G36*
G01X55009Y-1066800D02*
G01X51120Y-1066027D01*
G01X47824Y-1063824D01*
G01X41076Y-1057076D01*
G01X38873Y-1053780D01*
G01X38100Y-1049891D01*
G01X38100Y-778909D01*
G01X38873Y-775020D01*
G01X41076Y-771724D01*
G01X47824Y-764976D01*
G01X51120Y-762773D01*
G01X55009Y-762000D01*
G01X110091Y-762000D01*
G01X113980Y-762773D01*
G01X117276Y-764976D01*
G01X124024Y-771724D01*
G01X126227Y-775020D01*
G01X127000Y-778909D01*
G01X127000Y-887999D01*
G01X127708Y-889708D01*
G01X138992Y-900992D01*
G01X140701Y-901700D01*
G01X510540Y-901700D01*
G01X514428Y-902473D01*
G01X517724Y-904676D01*
G01X519927Y-907972D01*
G01X520700Y-911860D01*
G01X520700Y-999091D01*
G01X519927Y-1002980D01*
G01X517724Y-1006276D01*
G01X472876Y-1051124D01*
G01X469580Y-1053327D01*
G01X465691Y-1054100D01*
G01X128001Y-1054100D01*
G01X126292Y-1054808D01*
G01X117276Y-1063824D01*
G01X113980Y-1066027D01*
G01X110091Y-1066800D01*
G01X55009Y-1066800D01*
G37*
G36*
G01X309009Y-2082800D02*
G01X305120Y-2082027D01*
G01X301824Y-2079824D01*
G01X295076Y-2073076D01*
G01X292873Y-2069780D01*
G01X292100Y-2065891D01*
G01X292100Y-2023509D01*
G01X292873Y-2019620D01*
G01X295076Y-2016324D01*
G01X301824Y-2009576D01*
G01X305120Y-2007373D01*
G01X309009Y-2006600D01*
G01X529191Y-2006600D01*
G01X533080Y-2007373D01*
G01X536376Y-2009576D01*
G01X543124Y-2016324D01*
G01X545327Y-2019620D01*
G01X546100Y-2023509D01*
G01X546100Y-2065891D01*
G01X545327Y-2069780D01*
G01X543124Y-2073076D01*
G01X536376Y-2079824D01*
G01X533080Y-2082027D01*
G01X529191Y-2082800D01*
G01X309009Y-2082800D01*
G37*
G36*
G01X-1474343Y701726D02*
G01X694886Y701726D01*
G01X679331Y686171D01*
G01X673236Y678228D01*
G01X669405Y668977D01*
G01X668098Y659051D01*
G01X668098Y-184791D01*
G01X659460Y-195065D01*
G01X653507Y-207095D01*
G01X650579Y-220195D01*
G01X650843Y-233615D01*
G01X654285Y-246589D01*
G01X660707Y-258375D01*
G01X669743Y-268301D01*
G01X680876Y-275799D01*
G01X693471Y-280440D01*
G01X706808Y-281960D01*
G01X706808Y-661291D01*
G01X708114Y-671217D01*
G01X711946Y-680468D01*
G01X718041Y-688411D01*
G01X746742Y-717111D01*
G01X754685Y-723207D01*
G01X763935Y-727038D01*
G01X773862Y-728345D01*
G01X966491Y-728345D01*
G01X1010033Y-771887D01*
G01X1010033Y-2229275D01*
G01X801163Y-2438146D01*
G01X-428202Y-2438146D01*
G01X-438578Y-2429291D01*
G01X-450770Y-2423173D01*
G01X-464072Y-2420146D01*
G01X-477711Y-2420386D01*
G01X-490897Y-2423880D01*
G01X-502866Y-2430424D01*
G01X-512924Y-2439639D01*
G01X-520487Y-2450991D01*
G01X-525118Y-2463822D01*
G01X-526548Y-2477388D01*
G01X-524693Y-2490903D01*
G01X-519662Y-2503582D01*
G01X-528277Y-2503582D01*
G01X-552995Y-2478865D01*
G01X-554369Y-2463877D01*
G01X-559642Y-2449780D01*
G01X-568440Y-2437569D01*
G01X-580142Y-2428106D01*
G01X-593924Y-2422057D01*
G01X-608812Y-2419851D01*
G01X-623755Y-2421642D01*
G01X-637699Y-2427305D01*
G01X-649661Y-2436439D01*
G01X-658795Y-2448401D01*
G01X-664458Y-2462345D01*
G01X-666249Y-2477288D01*
G01X-664043Y-2492176D01*
G01X-657994Y-2505958D01*
G01X-648531Y-2517660D01*
G01X-636320Y-2526458D01*
G01X-622223Y-2531731D01*
G01X-607235Y-2533105D01*
G01X-587895Y-2552446D01*
G01X-758813Y-2552446D01*
G01X-1039680Y-2271580D01*
G01X-1047623Y-2265484D01*
G01X-1056873Y-2261653D01*
G01X-1066800Y-2260346D01*
G01X-1165213Y-2260346D01*
G01X-1213395Y-2212165D01*
G01X-1214215Y-2199909D01*
G01X-1217658Y-2188119D01*
G01X-1223561Y-2177348D01*
G01X-1231646Y-2168102D01*
G01X-1231646Y-1727200D01*
G01X-1232953Y-1717273D01*
G01X-1236784Y-1708023D01*
G01X-1242880Y-1700080D01*
G01X-1345946Y-1597013D01*
G01X-1345946Y-1491845D01*
G01X-1335610Y-1506136D01*
G01X-1322626Y-1518073D01*
G01X-1307518Y-1527174D01*
G01X-1290895Y-1533071D01*
G01X-1273430Y-1535527D01*
G01X-1255826Y-1534442D01*
G01X-1238794Y-1529861D01*
G01X-1223022Y-1521967D01*
G01X-1209145Y-1511081D01*
G01X-1197725Y-1497640D01*
G01X-1189221Y-1482188D01*
G01X-1183978Y-1465348D01*
G01X-1182206Y-1447800D01*
G01X-1183978Y-1430252D01*
G01X-1189221Y-1413412D01*
G01X-1197725Y-1397960D01*
G01X-1209145Y-1384519D01*
G01X-1223022Y-1373633D01*
G01X-1238794Y-1365739D01*
G01X-1255826Y-1361158D01*
G01X-1273430Y-1360073D01*
G01X-1290895Y-1362529D01*
G01X-1307518Y-1368426D01*
G01X-1322626Y-1377527D01*
G01X-1335610Y-1389464D01*
G01X-1345946Y-1403755D01*
G01X-1345946Y-1274277D01*
G01X-1330402Y-1286514D01*
G01X-1312928Y-1295787D01*
G01X-1294082Y-1301802D01*
G01X-1274466Y-1304364D01*
G01X-1254707Y-1303392D01*
G01X-1235437Y-1298917D01*
G01X-1217272Y-1291083D01*
G01X-1200792Y-1280139D01*
G01X-1186524Y-1266436D01*
G01X-1174924Y-1250411D01*
G01X-1166363Y-1232577D01*
G01X-1161115Y-1213503D01*
G01X-1159346Y-1193800D01*
G01X-1161115Y-1174097D01*
G01X-1166363Y-1155023D01*
G01X-1174924Y-1137189D01*
G01X-1186524Y-1121164D01*
G01X-1200792Y-1107461D01*
G01X-1217272Y-1096517D01*
G01X-1235437Y-1088683D01*
G01X-1254707Y-1084208D01*
G01X-1274466Y-1083236D01*
G01X-1294082Y-1085798D01*
G01X-1312928Y-1091813D01*
G01X-1330402Y-1101086D01*
G01X-1345946Y-1113323D01*
G01X-1345946Y-1020277D01*
G01X-1330522Y-1032436D01*
G01X-1313192Y-1041676D01*
G01X-1294500Y-1047707D01*
G01X-1275037Y-1050339D01*
G01X-1255416Y-1049488D01*
G01X-1236253Y-1045182D01*
G01X-1117454Y-1163982D01*
G01X-1117454Y-1960447D01*
G01X-1122321Y-1974548D01*
G01X-1123340Y-1989431D01*
G01X-1120438Y-2004063D01*
G01X-1113818Y-2017431D01*
G01X-1103938Y-2028608D01*
G01X-1091483Y-2036818D01*
G01X-1077317Y-2041493D01*
G01X-1062421Y-2042308D01*
G01X-1047830Y-2039207D01*
G01X-1034553Y-2032405D01*
G01X-1032726Y-2046277D01*
G01X-1027555Y-2059278D01*
G01X-1019356Y-2070616D01*
G01X-1008628Y-2079598D01*
G01X-996025Y-2085677D01*
G01X-982317Y-2088482D01*
G01X-968340Y-2087842D01*
G01X-954946Y-2083796D01*
G01X-942952Y-2076591D01*
G01X-933089Y-2066667D01*
G01X-925960Y-2054627D01*
G01X-921999Y-2041208D01*
G01X-921447Y-2027227D01*
G01X-924338Y-2013537D01*
G01X-930496Y-2000973D01*
G01X-939546Y-1990302D01*
G01X-939546Y-1654598D01*
G01X-930067Y-1643261D01*
G01X-923843Y-1629858D01*
G01X-921296Y-1615301D01*
G01X-922601Y-1600581D01*
G01X-927668Y-1586699D01*
G01X-936152Y-1574600D01*
G01X-947477Y-1565106D01*
G01X-960872Y-1558865D01*
G01X-975426Y-1556299D01*
G01X-990147Y-1557585D01*
G01X-1004036Y-1562634D01*
G01X-1016146Y-1571103D01*
G01X-1016146Y-1479778D01*
G01X-919923Y-1479778D01*
G01X-919801Y-1493059D01*
G01X-916590Y-1505946D01*
G01X-910467Y-1517732D01*
G01X-901768Y-1527768D01*
G01X-899917Y-1536334D01*
G01X-896169Y-1544256D01*
G01X-890720Y-1551120D01*
G01X-839920Y-1601920D01*
G01X-831977Y-1608016D01*
G01X-822727Y-1611847D01*
G01X-812800Y-1613154D01*
G01X-600087Y-1613154D01*
G01X-597896Y-1615345D01*
G01X-601983Y-1628981D01*
G01X-602542Y-1643206D01*
G01X-599537Y-1657121D01*
G01X-593159Y-1669847D01*
G01X-583809Y-1680582D01*
G01X-572079Y-1688647D01*
G01X-558708Y-1693534D01*
G01X-544542Y-1694933D01*
G01X-530473Y-1692757D01*
G01X-517392Y-1687143D01*
G01X-506123Y-1678444D01*
G01X-497378Y-1667212D01*
G01X-491709Y-1654153D01*
G01X-489474Y-1640094D01*
G01X-490814Y-1625922D01*
G01X-495645Y-1612531D01*
G01X-503661Y-1600767D01*
G01X-514357Y-1591373D01*
G01X-518980Y-1585780D01*
G01X-557080Y-1547680D01*
G01X-565023Y-1541584D01*
G01X-574273Y-1537753D01*
G01X-584200Y-1536446D01*
G01X-647510Y-1536446D01*
G01X-638908Y-1531074D01*
G01X-631402Y-1524254D01*
G01X-485787Y-1524254D01*
G01X-457454Y-1552587D01*
G01X-457454Y-1596602D01*
G01X-467080Y-1608172D01*
G01X-473319Y-1621868D01*
G01X-475733Y-1636723D01*
G01X-474150Y-1651690D01*
G01X-468682Y-1665712D01*
G01X-459715Y-1677800D01*
G01X-447881Y-1687099D01*
G01X-434017Y-1692956D01*
G01X-419100Y-1694955D01*
G01X-404183Y-1692956D01*
G01X-390319Y-1687099D01*
G01X-378485Y-1677800D01*
G01X-369518Y-1665712D01*
G01X-364050Y-1651690D01*
G01X-362467Y-1636723D01*
G01X-145533Y-1636723D01*
G01X-143950Y-1651690D01*
G01X-138482Y-1665712D01*
G01X-129515Y-1677800D01*
G01X-117681Y-1687099D01*
G01X-103817Y-1692956D01*
G01X-88900Y-1694955D01*
G01X-73983Y-1692956D01*
G01X-60119Y-1687099D01*
G01X-48285Y-1677800D01*
G01X-39318Y-1665712D01*
G01X-33850Y-1651690D01*
G01X-32267Y-1636723D01*
G01X-34681Y-1621868D01*
G01X-40920Y-1608172D01*
G01X-50546Y-1596602D01*
G01X-50546Y-1573223D01*
G01X44967Y-1573223D01*
G01X46550Y-1588190D01*
G01X52018Y-1602212D01*
G01X60985Y-1614300D01*
G01X72819Y-1623599D01*
G01X86683Y-1629456D01*
G01X101600Y-1631455D01*
G01X116517Y-1629456D01*
G01X130381Y-1623599D01*
G01X142215Y-1614300D01*
G01X151182Y-1602212D01*
G01X156650Y-1588190D01*
G01X158233Y-1573223D01*
G01X155819Y-1558368D01*
G01X149580Y-1544672D01*
G01X139954Y-1533102D01*
G01X139954Y-1425587D01*
G01X200835Y-1364705D01*
G01X215823Y-1363331D01*
G01X229920Y-1358058D01*
G01X242131Y-1349260D01*
G01X251594Y-1337558D01*
G01X257643Y-1323776D01*
G01X259849Y-1308888D01*
G01X258058Y-1293945D01*
G01X252395Y-1280001D01*
G01X243261Y-1268039D01*
G01X231299Y-1258905D01*
G01X217355Y-1253242D01*
G01X202412Y-1251451D01*
G01X187524Y-1253657D01*
G01X173742Y-1259706D01*
G01X162040Y-1269169D01*
G01X153242Y-1281380D01*
G01X147969Y-1295477D01*
G01X146595Y-1310465D01*
G01X74480Y-1382580D01*
G01X74480Y-1382580D01*
G01X68384Y-1390523D01*
G01X64553Y-1399773D01*
G01X63246Y-1409700D01*
G01X63246Y-1533102D01*
G01X53620Y-1544672D01*
G01X47381Y-1558368D01*
G01X44967Y-1573223D01*
G01X-50546Y-1573223D01*
G01X-50546Y-1412887D01*
G01X-2365Y-1364705D01*
G01X12623Y-1363331D01*
G01X26720Y-1358058D01*
G01X38931Y-1349260D01*
G01X48394Y-1337558D01*
G01X54443Y-1323776D01*
G01X56649Y-1308888D01*
G01X54858Y-1293945D01*
G01X49195Y-1280001D01*
G01X40061Y-1268039D01*
G01X28099Y-1258905D01*
G01X14155Y-1253242D01*
G01X-788Y-1251451D01*
G01X-15676Y-1253657D01*
G01X-29458Y-1259706D01*
G01X-41160Y-1269169D01*
G01X-49958Y-1281380D01*
G01X-55231Y-1295477D01*
G01X-56605Y-1310465D01*
G01X-116020Y-1369880D01*
G01X-116020Y-1369880D01*
G01X-122116Y-1377823D01*
G01X-125947Y-1387073D01*
G01X-127254Y-1397000D01*
G01X-127254Y-1596602D01*
G01X-136880Y-1608172D01*
G01X-143119Y-1621868D01*
G01X-145533Y-1636723D01*
G01X-362467Y-1636723D01*
G01X-364881Y-1621868D01*
G01X-371120Y-1608172D01*
G01X-380746Y-1596602D01*
G01X-380746Y-1536700D01*
G01X-382053Y-1526773D01*
G01X-385884Y-1517523D01*
G01X-391980Y-1509580D01*
G01X-442780Y-1458780D01*
G01X-450723Y-1452684D01*
G01X-459973Y-1448853D01*
G01X-469900Y-1447546D01*
G01X-631402Y-1447546D01*
G01X-642187Y-1438422D01*
G01X-654895Y-1432250D01*
G01X-668735Y-1429414D01*
G01X-682846Y-1430090D01*
G01X-696351Y-1434236D01*
G01X-708410Y-1441595D01*
G01X-718274Y-1451708D01*
G01X-725329Y-1463948D01*
G01X-729136Y-1477552D01*
G01X-729460Y-1491675D01*
G01X-726279Y-1505440D01*
G01X-719791Y-1517989D01*
G01X-710400Y-1528543D01*
G01X-698690Y-1536446D01*
G01X-796913Y-1536446D01*
G01X-816107Y-1517252D01*
G01X-811080Y-1513020D01*
G01X-747580Y-1449520D01*
G01X-741484Y-1441577D01*
G01X-737653Y-1432327D01*
G01X-736346Y-1422400D01*
G01X-736346Y-1196987D01*
G01X-708013Y-1168654D01*
G01X-279400Y-1168654D01*
G01X-267664Y-1166814D01*
G01X-257055Y-1161472D01*
G01X-242853Y-1160447D01*
G01X-229356Y-1155914D01*
G01X-217416Y-1148159D01*
G01X-207785Y-1137671D01*
G01X-201074Y-1125114D01*
G01X-197706Y-1111280D01*
G01X-197893Y-1097043D01*
G01X-201623Y-1083303D01*
G01X-208662Y-1070926D01*
G01X-218564Y-1060695D01*
G01X-230704Y-1053256D01*
G01X-244316Y-1049079D01*
G01X-258539Y-1048427D01*
G01X-272476Y-1051343D01*
G01X-285245Y-1057640D01*
G01X-296042Y-1066923D01*
G01X-304182Y-1078604D01*
G01X-309154Y-1091946D01*
G01X-723900Y-1091946D01*
G01X-733827Y-1093253D01*
G01X-743077Y-1097084D01*
G01X-751020Y-1103180D01*
G01X-801820Y-1153980D01*
G01X-807916Y-1161923D01*
G01X-811747Y-1171173D01*
G01X-813054Y-1181100D01*
G01X-813054Y-1406513D01*
G01X-840645Y-1434104D01*
G01X-840645Y-1434104D01*
G01X-853334Y-1430183D01*
G01X-866587Y-1429324D01*
G01X-879677Y-1431574D01*
G01X-891882Y-1436810D01*
G01X-902534Y-1444743D01*
G01X-911046Y-1454938D01*
G01X-916950Y-1466834D01*
G01X-919923Y-1479778D01*
G01X-1016146Y-1479778D01*
G01X-1016146Y-1143000D01*
G01X-1017872Y-1129890D01*
G01X-1022932Y-1117673D01*
G01X-1030982Y-1107182D01*
G01X-1164618Y-973547D01*
G01X-1162266Y-965054D01*
G01X12446Y-965054D01*
G01X12446Y-1054100D01*
G01X14399Y-1063917D01*
G01X19960Y-1072240D01*
G01X32660Y-1084940D01*
G01X40983Y-1090501D01*
G01X50800Y-1092454D01*
G01X114300Y-1092454D01*
G01X124117Y-1090501D01*
G01X132440Y-1084940D01*
G01X137626Y-1079754D01*
G01X271518Y-1079754D01*
G01X292246Y-1100482D01*
G01X292246Y-1984228D01*
G01X286660Y-1988460D01*
G01X273960Y-2001160D01*
G01X268399Y-2009483D01*
G01X266446Y-2019300D01*
G01X266446Y-2070100D01*
G01X268399Y-2079917D01*
G01X273960Y-2088240D01*
G01X286660Y-2100940D01*
G01X294983Y-2106501D01*
G01X304800Y-2108454D01*
G01X533400Y-2108454D01*
G01X543217Y-2106501D01*
G01X551540Y-2100940D01*
G01X564240Y-2088240D01*
G01X569801Y-2079917D01*
G01X571754Y-2070100D01*
G01X571754Y-2019300D01*
G01X569801Y-2009483D01*
G01X564240Y-2001160D01*
G01X551540Y-1988460D01*
G01X543217Y-1982899D01*
G01X533400Y-1980946D01*
G01X393554Y-1980946D01*
G01X393553Y-1079754D01*
G01X469900Y-1079754D01*
G01X479717Y-1077801D01*
G01X488040Y-1072240D01*
G01X538840Y-1021440D01*
G01X544401Y-1013117D01*
G01X546354Y-1003300D01*
G01X546354Y-901700D01*
G01X544401Y-891883D01*
G01X538840Y-883560D01*
G01X530517Y-877999D01*
G01X520700Y-876046D01*
G01X152654Y-876046D01*
G01X152654Y-774700D01*
G01X150701Y-764883D01*
G01X145140Y-756560D01*
G01X132440Y-743860D01*
G01X124117Y-738299D01*
G01X114300Y-736346D01*
G01X50800Y-736346D01*
G01X40983Y-738299D01*
G01X32660Y-743860D01*
G01X19960Y-756560D01*
G01X14399Y-764883D01*
G01X12446Y-774700D01*
G01X12446Y-863746D01*
G01X-1189625Y-863746D01*
G01X-1203772Y-851154D01*
G01X-622300Y-851154D01*
G01X-612373Y-849847D01*
G01X-603123Y-846016D01*
G01X-595180Y-839920D01*
G01X-530993Y-775734D01*
G01X-460805Y-775734D01*
G01X-449237Y-785362D01*
G01X-435542Y-791604D01*
G01X-420687Y-794020D01*
G01X-405720Y-792439D01*
G01X-391697Y-786974D01*
G01X-379608Y-778009D01*
G01X-370306Y-766178D01*
G01X-364447Y-752314D01*
G01X-362445Y-737398D01*
G01X-364442Y-722480D01*
G01X-370295Y-708615D01*
G01X-379593Y-696780D01*
G01X-391679Y-687811D01*
G01X-405700Y-682340D01*
G01X-420666Y-680754D01*
G01X-435522Y-683165D01*
G01X-449219Y-689402D01*
G01X-460791Y-699026D01*
G01X-546880Y-699026D01*
G01X-556807Y-700333D01*
G01X-566057Y-704164D01*
G01X-574000Y-710259D01*
G01X-638187Y-774446D01*
G01X-1203772Y-774446D01*
G01X-1188838Y-761013D01*
G01X-1176579Y-745102D01*
G01X-1167398Y-727237D01*
G01X-1161597Y-708007D01*
G01X-1159369Y-688045D01*
G01X-1160786Y-668009D01*
G01X-1165801Y-648559D01*
G01X-1174250Y-630336D01*
G01X-1185854Y-613941D01*
G01X-1200230Y-599914D01*
G01X-1216906Y-588716D01*
G01X-1235331Y-580718D01*
G01X-1254898Y-576182D01*
G01X-1274963Y-575258D01*
G01X-1294864Y-577976D01*
G01X-1313946Y-584247D01*
G01X-1331580Y-593864D01*
G01X-1347185Y-606511D01*
G01X-1360247Y-621770D01*
G01X-1370335Y-639139D01*
G01X-1377117Y-658046D01*
G01X-1380369Y-677867D01*
G01X-1379985Y-697949D01*
G01X-1375977Y-717631D01*
G01X-1368476Y-736264D01*
G01X-1357732Y-753235D01*
G01X-1344096Y-767983D01*
G01X-1328019Y-780024D01*
G01X-1335220Y-785680D01*
G01X-1411420Y-861880D01*
G01X-1417516Y-869823D01*
G01X-1421347Y-879073D01*
G01X-1422654Y-889000D01*
G01X-1422654Y-1612900D01*
G01X-1421347Y-1622827D01*
G01X-1417516Y-1632077D01*
G01X-1411420Y-1640020D01*
G01X-1308354Y-1743087D01*
G01X-1308354Y-2168102D01*
G01X-1317291Y-2178601D01*
G01X-1323426Y-2190949D01*
G01X-1326398Y-2204412D01*
G01X-1326029Y-2218195D01*
G01X-1322342Y-2231481D01*
G01X-1315555Y-2243482D01*
G01X-1306070Y-2253489D01*
G01X-1294448Y-2260908D01*
G01X-1281379Y-2265300D01*
G01X-1267635Y-2266405D01*
G01X-1208220Y-2325820D01*
G01X-1200277Y-2331916D01*
G01X-1191027Y-2335747D01*
G01X-1181100Y-2337054D01*
G01X-1082687Y-2337054D01*
G01X-801820Y-2617920D01*
G01X-793877Y-2624016D01*
G01X-784627Y-2627847D01*
G01X-774700Y-2629154D01*
G01X593713Y-2629154D01*
G01X646704Y-2682145D01*
G01X642617Y-2695781D01*
G01X642058Y-2710006D01*
G01X645063Y-2723921D01*
G01X651441Y-2736647D01*
G01X660791Y-2747382D01*
G01X672521Y-2755447D01*
G01X685892Y-2760334D01*
G01X700058Y-2761733D01*
G01X714127Y-2759557D01*
G01X727208Y-2753943D01*
G01X738477Y-2745244D01*
G01X747222Y-2734012D01*
G01X752891Y-2720953D01*
G01X755126Y-2706894D01*
G01X753786Y-2692722D01*
G01X748955Y-2679331D01*
G01X740939Y-2667567D01*
G01X730243Y-2658173D01*
G01X725620Y-2652580D01*
G01X653331Y-2580290D01*
G01X839428Y-2580290D01*
G01X850246Y-2579439D01*
G01X860393Y-2575592D01*
G01X869056Y-2569057D01*
G01X1127121Y-2310992D01*
G01X1133216Y-2303049D01*
G01X1137048Y-2293799D01*
G01X1138354Y-2283872D01*
G01X1138354Y-1438623D01*
G01X1182687Y-1438623D01*
G01X1182687Y-1456977D01*
G01X1186503Y-1474930D01*
G01X1193968Y-1491697D01*
G01X1204756Y-1506546D01*
G01X1218396Y-1518827D01*
G01X1234291Y-1528004D01*
G01X1251747Y-1533675D01*
G01X1270000Y-1535594D01*
G01X1288253Y-1533675D01*
G01X1305709Y-1528004D01*
G01X1321604Y-1518827D01*
G01X1335244Y-1506546D01*
G01X1346032Y-1491697D01*
G01X1353497Y-1474930D01*
G01X1357313Y-1456977D01*
G01X1357313Y-1438623D01*
G01X1353497Y-1420670D01*
G01X1346032Y-1403903D01*
G01X1335244Y-1389054D01*
G01X1321604Y-1376773D01*
G01X1305709Y-1367596D01*
G01X1288253Y-1361925D01*
G01X1270000Y-1360006D01*
G01X1270000Y-1360006D01*
G01X1251747Y-1361925D01*
G01X1234291Y-1367596D01*
G01X1218396Y-1376773D01*
G01X1204756Y-1389054D01*
G01X1193968Y-1403903D01*
G01X1186503Y-1420670D01*
G01X1182687Y-1438623D01*
G01X1138354Y-1438623D01*
G01X1138354Y-1183590D01*
G01X1159818Y-1183590D01*
G01X1159818Y-1204010D01*
G01X1163570Y-1224082D01*
G01X1170947Y-1243123D01*
G01X1181696Y-1260484D01*
G01X1195453Y-1275574D01*
G01X1211748Y-1287880D01*
G01X1230027Y-1296982D01*
G01X1249667Y-1302570D01*
G01X1270000Y-1304454D01*
G01X1290333Y-1302570D01*
G01X1309973Y-1296982D01*
G01X1328252Y-1287880D01*
G01X1344547Y-1275574D01*
G01X1358304Y-1260484D01*
G01X1369053Y-1243123D01*
G01X1376430Y-1224082D01*
G01X1380182Y-1204010D01*
G01X1380182Y-1183590D01*
G01X1376430Y-1163518D01*
G01X1369053Y-1144477D01*
G01X1358304Y-1127116D01*
G01X1344547Y-1112026D01*
G01X1328252Y-1099720D01*
G01X1309973Y-1090618D01*
G01X1290333Y-1085030D01*
G01X1270000Y-1083146D01*
G01X1270000Y-1083146D01*
G01X1249667Y-1085030D01*
G01X1230027Y-1090618D01*
G01X1211748Y-1099720D01*
G01X1195453Y-1112026D01*
G01X1181696Y-1127116D01*
G01X1170947Y-1144477D01*
G01X1163570Y-1163518D01*
G01X1159818Y-1183590D01*
G01X1138354Y-1183590D01*
G01X1138354Y-929590D01*
G01X1159818Y-929590D01*
G01X1159818Y-950010D01*
G01X1163570Y-970082D01*
G01X1170947Y-989123D01*
G01X1181696Y-1006484D01*
G01X1195453Y-1021574D01*
G01X1211748Y-1033880D01*
G01X1230027Y-1042982D01*
G01X1249667Y-1048570D01*
G01X1270000Y-1050454D01*
G01X1290333Y-1048570D01*
G01X1309973Y-1042982D01*
G01X1328252Y-1033880D01*
G01X1344547Y-1021574D01*
G01X1358304Y-1006484D01*
G01X1369053Y-989123D01*
G01X1376430Y-970082D01*
G01X1380182Y-950010D01*
G01X1380182Y-929590D01*
G01X1376430Y-909518D01*
G01X1369053Y-890477D01*
G01X1358304Y-873116D01*
G01X1344547Y-858026D01*
G01X1328252Y-845720D01*
G01X1309973Y-836618D01*
G01X1290333Y-831030D01*
G01X1270000Y-829146D01*
G01X1270000Y-829146D01*
G01X1249667Y-831030D01*
G01X1230027Y-836618D01*
G01X1211748Y-845720D01*
G01X1195453Y-858026D01*
G01X1181696Y-873116D01*
G01X1170947Y-890477D01*
G01X1163570Y-909518D01*
G01X1159818Y-929590D01*
G01X1138354Y-929590D01*
G01X1138354Y-675590D01*
G01X1159818Y-675590D01*
G01X1159818Y-696010D01*
G01X1163570Y-716082D01*
G01X1170947Y-735123D01*
G01X1181696Y-752484D01*
G01X1195453Y-767574D01*
G01X1211748Y-779880D01*
G01X1230027Y-788982D01*
G01X1249667Y-794570D01*
G01X1270000Y-796454D01*
G01X1290333Y-794570D01*
G01X1309973Y-788982D01*
G01X1328252Y-779880D01*
G01X1344547Y-767574D01*
G01X1358304Y-752484D01*
G01X1369053Y-735123D01*
G01X1376430Y-716082D01*
G01X1380182Y-696010D01*
G01X1380182Y-675590D01*
G01X1376430Y-655518D01*
G01X1369053Y-636477D01*
G01X1358304Y-619116D01*
G01X1344547Y-604026D01*
G01X1328252Y-591720D01*
G01X1309973Y-582618D01*
G01X1290333Y-577030D01*
G01X1270000Y-575146D01*
G01X1270000Y-575146D01*
G01X1249667Y-577030D01*
G01X1230027Y-582618D01*
G01X1211748Y-591720D01*
G01X1195453Y-604026D01*
G01X1181696Y-619116D01*
G01X1170947Y-636477D01*
G01X1163570Y-655518D01*
G01X1159818Y-675590D01*
G01X1138354Y-675590D01*
G01X1138354Y-550322D01*
G01X1137048Y-540395D01*
G01X1133216Y-531145D01*
G01X1127121Y-523201D01*
G01X1084820Y-480901D01*
G01X1083949Y-468988D01*
G01X1080577Y-457529D01*
G01X1074859Y-447043D01*
G01X1067051Y-438003D01*
G01X1067051Y-421590D01*
G01X1159818Y-421590D01*
G01X1159818Y-442010D01*
G01X1163570Y-462082D01*
G01X1170947Y-481123D01*
G01X1181696Y-498484D01*
G01X1195453Y-513574D01*
G01X1211748Y-525880D01*
G01X1230027Y-534982D01*
G01X1249667Y-540570D01*
G01X1270000Y-542454D01*
G01X1290333Y-540570D01*
G01X1309973Y-534982D01*
G01X1328252Y-525880D01*
G01X1344547Y-513574D01*
G01X1358304Y-498484D01*
G01X1369053Y-481123D01*
G01X1376430Y-462082D01*
G01X1380182Y-442010D01*
G01X1380182Y-421590D01*
G01X1376430Y-401518D01*
G01X1369053Y-382477D01*
G01X1358304Y-365116D01*
G01X1344547Y-350026D01*
G01X1328252Y-337720D01*
G01X1309973Y-328618D01*
G01X1290333Y-323030D01*
G01X1270000Y-321146D01*
G01X1270000Y-321146D01*
G01X1249667Y-323030D01*
G01X1230027Y-328618D01*
G01X1211748Y-337720D01*
G01X1195453Y-350026D01*
G01X1181696Y-365116D01*
G01X1170947Y-382477D01*
G01X1163570Y-401518D01*
G01X1159818Y-421590D01*
G01X1067051Y-421590D01*
G01X1067051Y-167590D01*
G01X1159818Y-167590D01*
G01X1159818Y-188010D01*
G01X1163570Y-208082D01*
G01X1170947Y-227123D01*
G01X1181696Y-244484D01*
G01X1195453Y-259574D01*
G01X1211748Y-271880D01*
G01X1230027Y-280982D01*
G01X1249667Y-286570D01*
G01X1270000Y-288454D01*
G01X1290333Y-286570D01*
G01X1309973Y-280982D01*
G01X1328252Y-271880D01*
G01X1344547Y-259574D01*
G01X1358304Y-244484D01*
G01X1369053Y-227123D01*
G01X1376430Y-208082D01*
G01X1380182Y-188010D01*
G01X1380182Y-167590D01*
G01X1376430Y-147518D01*
G01X1369053Y-128477D01*
G01X1358304Y-111116D01*
G01X1344547Y-96026D01*
G01X1328252Y-83720D01*
G01X1309973Y-74618D01*
G01X1290333Y-69030D01*
G01X1270000Y-67146D01*
G01X1270000Y-67146D01*
G01X1249667Y-69030D01*
G01X1230027Y-74618D01*
G01X1211748Y-83720D01*
G01X1195453Y-96026D01*
G01X1181696Y-111116D01*
G01X1170947Y-128477D01*
G01X1163570Y-147518D01*
G01X1159818Y-167590D01*
G01X1067051Y-167590D01*
G01X1067051Y86410D01*
G01X1159818Y86410D01*
G01X1159818Y65990D01*
G01X1163570Y45918D01*
G01X1170947Y26877D01*
G01X1181696Y9516D01*
G01X1195453Y-5574D01*
G01X1211748Y-17880D01*
G01X1230027Y-26982D01*
G01X1249667Y-32570D01*
G01X1270000Y-34454D01*
G01X1290333Y-32570D01*
G01X1309973Y-26982D01*
G01X1328252Y-17880D01*
G01X1344547Y-5574D01*
G01X1358304Y9516D01*
G01X1369053Y26877D01*
G01X1376430Y45918D01*
G01X1380182Y65990D01*
G01X1380182Y86410D01*
G01X1376430Y106482D01*
G01X1369053Y125523D01*
G01X1358304Y142884D01*
G01X1344547Y157974D01*
G01X1328252Y170280D01*
G01X1309973Y179382D01*
G01X1290333Y184970D01*
G01X1270000Y186854D01*
G01X1270000Y186854D01*
G01X1249667Y184970D01*
G01X1230027Y179382D01*
G01X1211748Y170280D01*
G01X1195453Y157974D01*
G01X1181696Y142884D01*
G01X1170947Y125523D01*
G01X1163570Y106482D01*
G01X1159818Y86410D01*
G01X1067051Y86410D01*
G01X1067051Y340410D01*
G01X1159818Y340410D01*
G01X1159818Y319990D01*
G01X1163570Y299918D01*
G01X1170947Y280877D01*
G01X1181696Y263516D01*
G01X1195453Y248426D01*
G01X1211748Y236120D01*
G01X1230027Y227018D01*
G01X1249667Y221430D01*
G01X1270000Y219546D01*
G01X1290333Y221430D01*
G01X1309973Y227018D01*
G01X1328252Y236120D01*
G01X1344547Y248426D01*
G01X1358304Y263516D01*
G01X1369053Y280877D01*
G01X1376430Y299918D01*
G01X1380182Y319990D01*
G01X1380182Y340410D01*
G01X1376430Y360482D01*
G01X1369053Y379523D01*
G01X1358304Y396884D01*
G01X1344547Y411974D01*
G01X1328252Y424280D01*
G01X1309973Y433382D01*
G01X1290333Y438970D01*
G01X1270000Y440854D01*
G01X1270000Y440854D01*
G01X1249667Y438970D01*
G01X1230027Y433382D01*
G01X1211748Y424280D01*
G01X1195453Y411974D01*
G01X1181696Y396884D01*
G01X1170947Y379523D01*
G01X1163570Y360482D01*
G01X1159818Y340410D01*
G01X1067051Y340410D01*
G01X1067051Y572876D01*
G01X1077618Y583442D01*
G01X1092411Y584915D01*
G01X1106300Y590218D01*
G01X1112045Y594410D01*
G01X1159818Y594410D01*
G01X1159818Y573990D01*
G01X1163570Y553918D01*
G01X1170947Y534877D01*
G01X1181696Y517516D01*
G01X1195453Y502426D01*
G01X1211748Y490120D01*
G01X1230027Y481018D01*
G01X1249667Y475430D01*
G01X1270000Y473546D01*
G01X1290333Y475430D01*
G01X1309973Y481018D01*
G01X1328252Y490120D01*
G01X1344547Y502426D01*
G01X1358304Y517516D01*
G01X1369053Y534877D01*
G01X1376430Y553918D01*
G01X1380182Y573990D01*
G01X1380182Y594410D01*
G01X1376430Y614482D01*
G01X1369053Y633523D01*
G01X1358304Y650884D01*
G01X1344547Y665974D01*
G01X1328252Y678280D01*
G01X1309973Y687382D01*
G01X1290333Y692970D01*
G01X1270000Y694854D01*
G01X1270000Y694854D01*
G01X1249667Y692970D01*
G01X1230027Y687382D01*
G01X1211748Y678280D01*
G01X1195453Y665974D01*
G01X1181696Y650884D01*
G01X1170947Y633523D01*
G01X1163570Y614482D01*
G01X1159818Y594410D01*
G01X1112045Y594410D01*
G01X1118310Y598980D01*
G01X1127600Y610587D01*
G01X1133518Y624225D01*
G01X1135651Y638937D01*
G01X1133848Y653694D01*
G01X1128235Y667461D01*
G01X1119207Y679272D01*
G01X1107396Y688300D01*
G01X1093629Y693912D01*
G01X1078873Y695716D01*
G01X1064160Y693583D01*
G01X1050522Y687665D01*
G01X1038916Y678375D01*
G01X1030154Y666365D01*
G01X1024850Y652476D01*
G01X1023377Y637683D01*
G01X1001577Y615883D01*
G01X995482Y607939D01*
G01X991650Y598689D01*
G01X990343Y588762D01*
G01X990343Y-438003D01*
G01X981622Y-448405D01*
G01X975651Y-460595D01*
G01X972780Y-473863D01*
G01X973177Y-487431D01*
G01X976818Y-500508D01*
G01X983490Y-512329D01*
G01X992804Y-522204D01*
G01X1004215Y-529555D01*
G01X1017057Y-533953D01*
G01X1030580Y-535141D01*
G01X1061646Y-566208D01*
G01X1061646Y-715019D01*
G01X1009498Y-662871D01*
G01X1001555Y-656775D01*
G01X992305Y-652944D01*
G01X982378Y-651637D01*
G01X789749Y-651637D01*
G01X783516Y-645404D01*
G01X783516Y-264516D01*
G01X782209Y-254589D01*
G01X778377Y-245339D01*
G01X772282Y-237396D01*
G01X762575Y-227689D01*
G01X761703Y-215776D01*
G01X758332Y-204317D01*
G01X752613Y-193831D01*
G01X744806Y-184791D01*
G01X744806Y643164D01*
G01X773297Y671655D01*
G01X930645Y671655D01*
G01X940572Y672962D01*
G01X949822Y676793D01*
G01X957765Y682888D01*
G01X976603Y701726D01*
G01X1474343Y701726D01*
G01X1474343Y-3203794D01*
G01X1472370Y-3236404D01*
G01X1466481Y-3268539D01*
G01X1456762Y-3299730D01*
G01X1443354Y-3329522D01*
G01X1426452Y-3357481D01*
G01X1406304Y-3383198D01*
G01X1383202Y-3406300D01*
G01X1357485Y-3426448D01*
G01X1329526Y-3443350D01*
G01X1299734Y-3456758D01*
G01X1268543Y-3466477D01*
G01X1236408Y-3472366D01*
G01X1203798Y-3474339D01*
G01X493014Y-3474339D01*
G01X501027Y-3460576D01*
G01X505981Y-3445441D01*
G01X507657Y-3429605D01*
G01X507657Y-3349605D01*
G01X505760Y-3332770D01*
G01X500165Y-3316780D01*
G01X491152Y-3302435D01*
G01X479173Y-3290456D01*
G01X464828Y-3281443D01*
G01X448838Y-3275848D01*
G01X432003Y-3273951D01*
G01X415169Y-3275848D01*
G01X399178Y-3281443D01*
G01X384834Y-3290456D01*
G01X372855Y-3302435D01*
G01X363841Y-3316780D01*
G01X358246Y-3332770D01*
G01X356349Y-3349605D01*
G01X356349Y-3429605D01*
G01X358025Y-3445441D01*
G01X362980Y-3460576D01*
G01X370992Y-3474339D01*
G01X-370992Y-3474339D01*
G01X-362980Y-3460576D01*
G01X-358025Y-3445441D01*
G01X-356349Y-3429605D01*
G01X-356349Y-3349605D01*
G01X-358246Y-3332770D01*
G01X-363841Y-3316780D01*
G01X-372855Y-3302435D01*
G01X-384834Y-3290456D01*
G01X-399178Y-3281443D01*
G01X-415169Y-3275848D01*
G01X-432003Y-3273951D01*
G01X-448838Y-3275848D01*
G01X-464828Y-3281443D01*
G01X-479173Y-3290456D01*
G01X-491152Y-3302435D01*
G01X-500165Y-3316780D01*
G01X-505760Y-3332770D01*
G01X-507657Y-3349605D01*
G01X-507657Y-3429605D01*
G01X-505981Y-3445441D01*
G01X-501027Y-3460576D01*
G01X-493014Y-3474339D01*
G01X-1203797Y-3474339D01*
G01X-1236408Y-3472366D01*
G01X-1268543Y-3466477D01*
G01X-1299734Y-3456758D01*
G01X-1329526Y-3443350D01*
G01X-1357485Y-3426448D01*
G01X-1383202Y-3406300D01*
G01X-1406304Y-3383198D01*
G01X-1426452Y-3357481D01*
G01X-1443354Y-3329522D01*
G01X-1456762Y-3299730D01*
G01X-1466481Y-3268539D01*
G01X-1472370Y-3236404D01*
G01X-1474343Y-3203794D01*
G01X-1474343Y-3200400D01*
G01X-1371854Y-3200400D01*
G01X-1369921Y-3222497D01*
G01X-1364180Y-3243923D01*
G01X-1354805Y-3264027D01*
G01X-1342082Y-3282197D01*
G01X-1326397Y-3297882D01*
G01X-1308227Y-3310605D01*
G01X-1288123Y-3319980D01*
G01X-1266697Y-3325721D01*
G01X-1244600Y-3327654D01*
G01X-1222503Y-3325721D01*
G01X-1201077Y-3319980D01*
G01X-1180973Y-3310605D01*
G01X-1162803Y-3297882D01*
G01X-1147118Y-3282197D01*
G01X-1134395Y-3264027D01*
G01X-1125020Y-3243923D01*
G01X-1119279Y-3222497D01*
G01X-1117346Y-3200400D01*
G01X1130046Y-3200400D01*
G01X1131979Y-3222497D01*
G01X1137720Y-3243923D01*
G01X1147095Y-3264027D01*
G01X1159818Y-3282197D01*
G01X1175503Y-3297882D01*
G01X1193673Y-3310605D01*
G01X1213777Y-3319980D01*
G01X1235203Y-3325721D01*
G01X1257300Y-3327654D01*
G01X1279397Y-3325721D01*
G01X1300823Y-3319980D01*
G01X1320927Y-3310605D01*
G01X1339097Y-3297882D01*
G01X1354782Y-3282197D01*
G01X1367505Y-3264027D01*
G01X1376880Y-3243923D01*
G01X1382621Y-3222497D01*
G01X1384554Y-3200400D01*
G01X1382621Y-3178303D01*
G01X1376880Y-3156877D01*
G01X1367505Y-3136773D01*
G01X1354782Y-3118603D01*
G01X1339097Y-3102918D01*
G01X1320927Y-3090195D01*
G01X1300823Y-3080820D01*
G01X1279397Y-3075079D01*
G01X1257300Y-3073146D01*
G01X1235203Y-3075079D01*
G01X1213777Y-3080820D01*
G01X1193673Y-3090195D01*
G01X1175503Y-3102918D01*
G01X1159818Y-3118603D01*
G01X1147095Y-3136773D01*
G01X1137720Y-3156877D01*
G01X1131979Y-3178303D01*
G01X1130046Y-3200400D01*
G01X1130046Y-3200400D01*
G01X-1117346Y-3200400D01*
G01X-1119279Y-3178303D01*
G01X-1125020Y-3156877D01*
G01X-1134395Y-3136773D01*
G01X-1147118Y-3118603D01*
G01X-1162803Y-3102918D01*
G01X-1180973Y-3090195D01*
G01X-1201077Y-3080820D01*
G01X-1222503Y-3075079D01*
G01X-1244600Y-3073146D01*
G01X-1266697Y-3075079D01*
G01X-1288123Y-3080820D01*
G01X-1308227Y-3090195D01*
G01X-1326397Y-3102918D01*
G01X-1342082Y-3118603D01*
G01X-1354805Y-3136773D01*
G01X-1364180Y-3156877D01*
G01X-1369921Y-3178303D01*
G01X-1371854Y-3200400D01*
G01X-1371854Y-3200400D01*
G01X-1474343Y-3200400D01*
G01X-1474343Y-2916597D01*
G01X-507657Y-2916597D01*
G01X-507657Y-3026597D01*
G01X-505760Y-3043431D01*
G01X-500165Y-3059422D01*
G01X-491152Y-3073766D01*
G01X-479173Y-3085745D01*
G01X-464828Y-3094758D01*
G01X-448838Y-3100354D01*
G01X-432003Y-3102251D01*
G01X-415169Y-3100354D01*
G01X-399178Y-3094758D01*
G01X-384834Y-3085745D01*
G01X-372855Y-3073766D01*
G01X-363841Y-3059422D01*
G01X-358246Y-3043431D01*
G01X-356349Y-3026597D01*
G01X-356349Y-3022600D01*
G01X-348145Y-3022600D01*
G01X-346164Y-3037651D01*
G01X-340354Y-3051677D01*
G01X-331112Y-3063721D01*
G01X-319068Y-3072962D01*
G01X-305043Y-3078772D01*
G01X-289992Y-3080753D01*
G01X-274941Y-3078772D01*
G01X-260915Y-3072962D01*
G01X-248871Y-3063721D01*
G01X-239630Y-3051677D01*
G01X-233820Y-3037651D01*
G01X-231838Y-3022600D01*
G01X230848Y-3022600D01*
G01X232829Y-3037651D01*
G01X238639Y-3051677D01*
G01X247881Y-3063721D01*
G01X259925Y-3072962D01*
G01X273950Y-3078772D01*
G01X289001Y-3080753D01*
G01X304052Y-3078772D01*
G01X318078Y-3072962D01*
G01X330122Y-3063721D01*
G01X339363Y-3051677D01*
G01X345173Y-3037651D01*
G01X347155Y-3022600D01*
G01X345173Y-3007549D01*
G01X339363Y-2993523D01*
G01X330122Y-2981479D01*
G01X318078Y-2972238D01*
G01X304052Y-2966428D01*
G01X289001Y-2964447D01*
G01X273950Y-2966428D01*
G01X259925Y-2972238D01*
G01X247881Y-2981479D01*
G01X238639Y-2993523D01*
G01X232829Y-3007549D01*
G01X230848Y-3022600D01*
G01X230848Y-3022600D01*
G01X-231838Y-3022600D01*
G01X-233820Y-3007549D01*
G01X-239630Y-2993523D01*
G01X-248871Y-2981479D01*
G01X-260915Y-2972238D01*
G01X-274941Y-2966428D01*
G01X-289992Y-2964447D01*
G01X-305043Y-2966428D01*
G01X-319068Y-2972238D01*
G01X-331112Y-2981479D01*
G01X-340354Y-2993523D01*
G01X-346164Y-3007549D01*
G01X-348145Y-3022600D01*
G01X-348145Y-3022600D01*
G01X-356349Y-3022600D01*
G01X-356349Y-2916597D01*
G01X356349Y-2916597D01*
G01X356349Y-3026597D01*
G01X358246Y-3043431D01*
G01X363841Y-3059422D01*
G01X372855Y-3073766D01*
G01X384834Y-3085745D01*
G01X399178Y-3094758D01*
G01X415169Y-3100354D01*
G01X432003Y-3102251D01*
G01X448838Y-3100354D01*
G01X464828Y-3094758D01*
G01X479173Y-3085745D01*
G01X491152Y-3073766D01*
G01X500165Y-3059422D01*
G01X505760Y-3043431D01*
G01X507657Y-3026597D01*
G01X507657Y-2916597D01*
G01X505760Y-2899762D01*
G01X500165Y-2883772D01*
G01X491152Y-2869427D01*
G01X479173Y-2857448D01*
G01X464828Y-2848435D01*
G01X448838Y-2842840D01*
G01X432003Y-2840943D01*
G01X415169Y-2842840D01*
G01X399178Y-2848435D01*
G01X384834Y-2857448D01*
G01X372855Y-2869427D01*
G01X363841Y-2883772D01*
G01X358246Y-2899762D01*
G01X356349Y-2916597D01*
G01X356349Y-2916597D01*
G01X-356349Y-2916597D01*
G01X-358246Y-2899762D01*
G01X-363841Y-2883772D01*
G01X-372855Y-2869427D01*
G01X-384834Y-2857448D01*
G01X-399178Y-2848435D01*
G01X-415169Y-2842840D01*
G01X-432003Y-2840943D01*
G01X-448838Y-2842840D01*
G01X-464828Y-2848435D01*
G01X-479173Y-2857448D01*
G01X-491152Y-2869427D01*
G01X-500165Y-2883772D01*
G01X-505760Y-2899762D01*
G01X-507657Y-2916597D01*
G01X-507657Y-2916597D01*
G01X-1474343Y-2916597D01*
G01X-1474343Y-2731288D01*
G01X-399549Y-2731288D01*
G01X-397343Y-2746176D01*
G01X-391294Y-2759958D01*
G01X-381831Y-2771660D01*
G01X-369620Y-2780458D01*
G01X-355523Y-2785731D01*
G01X-340535Y-2787105D01*
G01X-306520Y-2821120D01*
G01X-298577Y-2827216D01*
G01X-289327Y-2831047D01*
G01X-279400Y-2832354D01*
G01X279400Y-2832354D01*
G01X279400Y-2832354D01*
G01X289327Y-2831047D01*
G01X298577Y-2827216D01*
G01X306520Y-2821120D01*
G01X340535Y-2787105D01*
G01X355523Y-2785731D01*
G01X369620Y-2780458D01*
G01X381831Y-2771660D01*
G01X391294Y-2759958D01*
G01X397343Y-2746176D01*
G01X399549Y-2731288D01*
G01X397758Y-2716345D01*
G01X392095Y-2702401D01*
G01X382961Y-2690439D01*
G01X370999Y-2681305D01*
G01X357055Y-2675642D01*
G01X342112Y-2673851D01*
G01X327224Y-2676057D01*
G01X313442Y-2682106D01*
G01X301740Y-2691569D01*
G01X292942Y-2703780D01*
G01X287669Y-2717877D01*
G01X286295Y-2732865D01*
G01X263513Y-2755646D01*
G01X203168Y-2755646D01*
G01X207668Y-2742960D01*
G01X209047Y-2729570D01*
G01X207229Y-2716233D01*
G01X202316Y-2703701D01*
G01X194585Y-2692682D01*
G01X184472Y-2683797D01*
G01X172550Y-2677550D01*
G01X159489Y-2674291D01*
G01X146029Y-2674205D01*
G01X132928Y-2677296D01*
G01X120927Y-2683392D01*
G01X110702Y-2692146D01*
G01X-148802Y-2692146D01*
G01X-159027Y-2683392D01*
G01X-171028Y-2677296D01*
G01X-184129Y-2674205D01*
G01X-197589Y-2674291D01*
G01X-210650Y-2677550D01*
G01X-222572Y-2683797D01*
G01X-232685Y-2692682D01*
G01X-240416Y-2703701D01*
G01X-245329Y-2716233D01*
G01X-247147Y-2729570D01*
G01X-245768Y-2742960D01*
G01X-241268Y-2755646D01*
G01X-263513Y-2755646D01*
G01X-286295Y-2732865D01*
G01X-287669Y-2717877D01*
G01X-292942Y-2703780D01*
G01X-301740Y-2691569D01*
G01X-313442Y-2682106D01*
G01X-327224Y-2676057D01*
G01X-342112Y-2673851D01*
G01X-357055Y-2675642D01*
G01X-370999Y-2681305D01*
G01X-382961Y-2690439D01*
G01X-392095Y-2702401D01*
G01X-397758Y-2716345D01*
G01X-399549Y-2731288D01*
G01X-1474343Y-2731288D01*
G01X-1474343Y-427151D01*
G01X-1380556Y-427151D01*
G01X-1379512Y-447659D01*
G01X-1374696Y-467621D01*
G01X-1366274Y-486349D01*
G01X-1354537Y-503199D01*
G01X-1339889Y-517589D01*
G01X-1322834Y-529026D01*
G01X-1303959Y-537114D01*
G01X-1283915Y-541575D01*
G01X-1263392Y-542256D01*
G01X-1243096Y-539133D01*
G01X-1223727Y-532314D01*
G01X-1109126Y-646914D01*
G01X-1109126Y-646914D01*
G01X-1110739Y-661731D01*
G01X-1108432Y-676456D01*
G01X-1102365Y-690070D01*
G01X-1092957Y-701630D01*
G01X-1080860Y-710337D01*
G01X-1066911Y-715587D01*
G01X-1052076Y-717019D01*
G01X-1037380Y-714531D01*
G01X-1023842Y-708298D01*
G01X-1012398Y-698749D01*
G01X-1003840Y-686547D01*
G01X-998760Y-672535D01*
G01X-997510Y-657683D01*
G01X-1000177Y-643019D01*
G01X-1006576Y-629558D01*
G01X-1016264Y-618231D01*
G01X-1028570Y-609823D01*
G01X-1042644Y-604916D01*
G01X-1169486Y-478073D01*
G01X-1162667Y-458704D01*
G01X-1159544Y-438408D01*
G01X-1160225Y-417885D01*
G01X-1164686Y-397841D01*
G01X-1172774Y-378966D01*
G01X-1184211Y-361911D01*
G01X-1198601Y-347263D01*
G01X-1215451Y-335526D01*
G01X-1234179Y-327104D01*
G01X-1254141Y-322288D01*
G01X-1274649Y-321244D01*
G01X-1294997Y-324007D01*
G01X-1314484Y-330482D01*
G01X-1332439Y-340446D01*
G01X-1348244Y-353556D01*
G01X-1361354Y-369361D01*
G01X-1371318Y-387316D01*
G01X-1377793Y-406803D01*
G01X-1380556Y-427151D01*
G01X-1474343Y-427151D01*
G01X-1474343Y-167590D01*
G01X-1380182Y-167590D01*
G01X-1380182Y-188010D01*
G01X-1376430Y-208082D01*
G01X-1369053Y-227123D01*
G01X-1358304Y-244484D01*
G01X-1344547Y-259574D01*
G01X-1328252Y-271880D01*
G01X-1309973Y-280982D01*
G01X-1290333Y-286570D01*
G01X-1270000Y-288454D01*
G01X-1249667Y-286570D01*
G01X-1230027Y-280982D01*
G01X-1211748Y-271880D01*
G01X-1195453Y-259574D01*
G01X-1181696Y-244484D01*
G01X-1170947Y-227123D01*
G01X-1163570Y-208082D01*
G01X-1159818Y-188010D01*
G01X-1159818Y-167590D01*
G01X-1163570Y-147518D01*
G01X-1170947Y-128477D01*
G01X-1181696Y-111116D01*
G01X-1195453Y-96026D01*
G01X-1211748Y-83720D01*
G01X-1230027Y-74618D01*
G01X-1249667Y-69030D01*
G01X-1270000Y-67146D01*
G01X-1270000Y-67146D01*
G01X-1290333Y-69030D01*
G01X-1309973Y-74618D01*
G01X-1328252Y-83720D01*
G01X-1344547Y-96026D01*
G01X-1358304Y-111116D01*
G01X-1369053Y-128477D01*
G01X-1376430Y-147518D01*
G01X-1380182Y-167590D01*
G01X-1474343Y-167590D01*
G01X-1474343Y86410D01*
G01X-1380182Y86410D01*
G01X-1380182Y65990D01*
G01X-1376430Y45918D01*
G01X-1369053Y26877D01*
G01X-1358304Y9516D01*
G01X-1344547Y-5574D01*
G01X-1328252Y-17880D01*
G01X-1309973Y-26982D01*
G01X-1290333Y-32570D01*
G01X-1270000Y-34454D01*
G01X-1249667Y-32570D01*
G01X-1230027Y-26982D01*
G01X-1211748Y-17880D01*
G01X-1195453Y-5574D01*
G01X-1181696Y9516D01*
G01X-1170947Y26877D01*
G01X-1163570Y45918D01*
G01X-1159818Y65990D01*
G01X-1159818Y86410D01*
G01X-1163570Y106482D01*
G01X-1170947Y125523D01*
G01X-1181696Y142884D01*
G01X-1195453Y157974D01*
G01X-1211748Y170280D01*
G01X-1230027Y179382D01*
G01X-1249667Y184970D01*
G01X-1270000Y186854D01*
G01X-1270000Y186854D01*
G01X-1290333Y184970D01*
G01X-1309973Y179382D01*
G01X-1328252Y170280D01*
G01X-1344547Y157974D01*
G01X-1358304Y142884D01*
G01X-1369053Y125523D01*
G01X-1376430Y106482D01*
G01X-1380182Y86410D01*
G01X-1474343Y86410D01*
G01X-1474343Y340410D01*
G01X-1380182Y340410D01*
G01X-1380182Y319990D01*
G01X-1376430Y299918D01*
G01X-1369053Y280877D01*
G01X-1358304Y263516D01*
G01X-1344547Y248426D01*
G01X-1328252Y236120D01*
G01X-1309973Y227018D01*
G01X-1290333Y221430D01*
G01X-1270000Y219546D01*
G01X-1249667Y221430D01*
G01X-1230027Y227018D01*
G01X-1211748Y236120D01*
G01X-1195453Y248426D01*
G01X-1181696Y263516D01*
G01X-1170947Y280877D01*
G01X-1163570Y299918D01*
G01X-1159818Y319990D01*
G01X-1159818Y340410D01*
G01X-1163570Y360482D01*
G01X-1170947Y379523D01*
G01X-1181696Y396884D01*
G01X-1195453Y411974D01*
G01X-1211748Y424280D01*
G01X-1230027Y433382D01*
G01X-1249667Y438970D01*
G01X-1270000Y440854D01*
G01X-1270000Y440854D01*
G01X-1290333Y438970D01*
G01X-1309973Y433382D01*
G01X-1328252Y424280D01*
G01X-1344547Y411974D01*
G01X-1358304Y396884D01*
G01X-1369053Y379523D01*
G01X-1376430Y360482D01*
G01X-1380182Y340410D01*
G01X-1474343Y340410D01*
G01X-1474343Y594410D01*
G01X-1380182Y594410D01*
G01X-1380182Y573990D01*
G01X-1376430Y553918D01*
G01X-1369053Y534877D01*
G01X-1358304Y517516D01*
G01X-1344547Y502426D01*
G01X-1328252Y490120D01*
G01X-1309973Y481018D01*
G01X-1290333Y475430D01*
G01X-1270000Y473546D01*
G01X-1249667Y475430D01*
G01X-1230027Y481018D01*
G01X-1211748Y490120D01*
G01X-1195453Y502426D01*
G01X-1181696Y517516D01*
G01X-1170947Y534877D01*
G01X-1163570Y553918D01*
G01X-1159818Y573990D01*
G01X-1159818Y594410D01*
G01X-1163570Y614482D01*
G01X-1170947Y633523D01*
G01X-1181696Y650884D01*
G01X-1195453Y665974D01*
G01X-1211748Y678280D01*
G01X-1230027Y687382D01*
G01X-1249667Y692970D01*
G01X-1270000Y694854D01*
G01X-1270000Y694854D01*
G01X-1290333Y692970D01*
G01X-1309973Y687382D01*
G01X-1328252Y678280D01*
G01X-1344547Y665974D01*
G01X-1358304Y650884D01*
G01X-1369053Y633523D01*
G01X-1376430Y614482D01*
G01X-1380182Y594410D01*
G01X-1474343Y594410D01*
G01X-1474343Y701726D01*
G37*
G54D10*
G01X1270000Y-1363054D02*
G01X1270000Y-1360006D01*
G01X1270000Y-1532546D02*
G01X1270000Y-1535594D01*
G01X1354746Y-1447800D02*
G01X1357794Y-1447800D01*
G01X1185254Y-1447800D02*
G01X1182206Y-1447800D01*
G01X-1270000Y-1363054D02*
G01X-1270000Y-1360006D01*
G01X-1270000Y-1532546D02*
G01X-1270000Y-1535594D01*
G01X-1185254Y-1447800D02*
G01X-1182206Y-1447800D01*
G04 Copper End*

G04 PolygonModel Start*
G54D11*
G01X1100000Y-2159927D02*
G01X1100000Y-550321D01*
G01X1028697Y-479019D01*
G01X1028697Y-479019D02*
G01X1028697Y588762D01*
G01X1079500Y639565D01*
G01X1010151Y789515D02*
G01X930645Y710009D01*
G01X757410Y710009D01*
G01X706452Y659050D01*
G01X706452Y-225807D01*
G01X-609600Y-2476500D02*
G01X-544164Y-2541936D01*
G01X841936Y-2541936D01*
G01X1100000Y-2283872D01*
G01X1100000Y-2159927D01*
G01X-469900Y-2476500D02*
G01X817050Y-2476500D01*
G01X1048388Y-2245162D01*
G01X1048388Y-756001D01*
G01X982378Y-689991D01*
G01X773862Y-689991D01*
G01X745162Y-661291D01*
G01X745162Y-264516D01*
G01X706452Y-225807D01*

G04 Pad Start*
G54D12*
G01X-432003Y-2971597D03*
G54D13*
G01X-432003Y-3389605D03*
G01X432003Y-3389605D03*
G54D12*
G01X432003Y-2971597D03*
G54D14*
G01X-1270000Y-1447800D03*
G01X-1270000Y-1193800D03*
G01X-1270000Y-939800D03*
G01X-1270000Y-685800D03*
G01X-1270000Y-431800D03*
G01X-1270000Y-177800D03*
G01X-1270000Y76200D03*
G01X-1270000Y330200D03*
G01X-1270000Y584200D03*
G54D15*
G01X-1270000Y838200D03*
G54D14*
G01X1270000Y-1447800D03*
G01X1270000Y-1193800D03*
G01X1270000Y-939800D03*
G01X1270000Y-685800D03*
G01X1270000Y-431800D03*
G01X1270000Y-177800D03*
G01X1270000Y76200D03*
G01X1270000Y330200D03*
G01X1270000Y584200D03*
G54D15*
G01X1270000Y838200D03*
G04 Pad End*

G04 Via Start*
G54D16*
G01X-1054100Y-660400D03*
G01X38100Y38100D03*
G01X152400Y38100D03*
G01X152400Y-76200D03*
G01X38100Y-76200D03*
G01X-977900Y-1612900D03*
G01X-977900Y-2032000D03*
G01X-419100Y-737387D03*
G01X-673100Y-571500D03*
G01X-190500Y-2730500D03*
G01X152400Y-2730500D03*
G01X101600Y-1574800D03*
G01X-88900Y-1638300D03*
G01X0Y-1308100D03*
G01X203200Y-1308100D03*
G01X-1270000Y-2209800D03*
G01X-673100Y-1485900D03*
G01X-419100Y-1638300D03*
G01X-546100Y-1638300D03*
G01X-863600Y-1485900D03*
G01X-254000Y-1104900D03*
G01X-1066800Y-1985823D03*
G01X698500Y-2705100D03*
G01X76200Y-800100D03*
G01X76200Y-876300D03*
G01X76200Y-952500D03*
G01X76200Y-1028700D03*
G01X342900Y-2044700D03*
G01X419100Y-2044700D03*
G01X495300Y-2044700D03*
G01X342900Y-2730500D03*
G01X-342900Y-2730500D03*
G01X215900Y-1130300D03*
G01X-749300Y-2476500D03*
G01X-609600Y-2476500D03*
G01X-469900Y-2476500D03*
G54D17*
G01X-680645Y-2793549D03*
G01X1079500Y639565D03*
G01X1028697Y-479019D03*
G01X706452Y-225807D03*
G01X1010151Y789515D03*
G04 Via End*

G04 Track Start*
G54D11*
G01X-342900Y-2730500D02*
G01X-279400Y-2794000D01*
G01X279400Y-2794000D01*
G01X342900Y-2730500D01*
G54D19*
G01X76200Y-1028700D02*
G01X292100Y-1028700D01*
G01X342900Y-1079500D01*
G01X342900Y-1943100D01*
G01X342900Y-2044700D01*
G01X419100Y-2044700D02*
G01X495300Y-2044700D01*
G01X342900Y-2044700D02*
G01X419100Y-2044700D01*
G01X76200Y-914400D02*
G01X76200Y-800100D01*
G01X-1270000Y-939800D02*
G01X-1244600Y-914400D01*
G01X76200Y-914400D01*
G01X76200Y-1028700D01*
G54D11*
G01X-977900Y-1612900D02*
G01X-977900Y-2032000D01*
G54D19*
G01X-1066800Y-1955800D02*
G01X-1066800Y-1985825D01*
G54D11*
G01X-419100Y-737380D02*
G01X-546880Y-737380D01*
G01X-622300Y-812800D01*
G01X-1054100Y-660400D02*
G01X-1054100Y-647700D01*
G01X-1270000Y-431800D01*
G01X-190500Y-2730500D02*
G01X152400Y-2730500D01*
G01X-88900Y-1638300D02*
G01X-88900Y-1397000D01*
G01X0Y-1308100D01*
G01X101600Y-1574800D02*
G01X101600Y-1409700D01*
G01X203200Y-1308100D01*
G01X-622300Y-812800D02*
G01X-1308100Y-812800D01*
G01X-1384300Y-889000D01*
G01X-1384300Y-1612900D01*
G01X-1270000Y-1727200D01*
G01X-1270000Y-2209800D01*
G01X-673100Y-1485900D02*
G01X-469900Y-1485900D01*
G01X-419100Y-1536700D01*
G01X-419100Y-1651000D01*
G01X-863600Y-1485900D02*
G01X-863600Y-1524000D01*
G01X-812800Y-1574800D01*
G01X-584200Y-1574800D01*
G01X-546100Y-1612900D01*
G01X-546100Y-1651000D01*
G01X-254000Y-1104900D02*
G01X-279400Y-1130300D01*
G01X-723900Y-1130300D01*
G01X-774700Y-1181100D01*
G01X-774700Y-1422400D01*
G01X-838200Y-1485900D01*
G01X-863600Y-1485900D01*
G54D19*
G01X-1270000Y-939800D02*
G01X-1066800Y-1143000D01*
G01X-1066800Y-1955800D01*
G54D11*
G01X698500Y-2679700D02*
G01X698500Y-2705100D01*
G01X-1181100Y-2298700D02*
G01X-1066800Y-2298700D01*
G01X-1270000Y-2209800D02*
G01X-1181100Y-2298700D01*
G01X609600Y-2590800D02*
G01X698500Y-2679700D01*
G01X-774700Y-2590800D02*
G01X609600Y-2590800D01*
G01X-1066800Y-2298700D02*
G01X-774700Y-2590800D01*
G04 Track End*

M02*

