G04 Layer: BottomSilkscreenLayer*
G04 EasyEDA Pro v2.2.45.4, 2025-12-09 09:54:16*
G04 Gerber Generator version 0.3*
G04 Scale: 100 percent, Rotated: No, Reflected: No*
G04 Dimensions in millimeters*
G04 Leading zeros omitted, absolute positions, 4 integers and 5 decimals*
G04 Generated by one-click*
%FSLAX45Y45*%
%MOMM*%
%ADD10C,0.2032*%
%ADD11C,0.5514*%
G75*


G04 Image Start*
G36*
G01X186106Y-2133056D02*
G01X-105799Y-2133056D01*
G01X-109675Y-2131004D01*
G01X-113548Y-2128952D01*
G01X-117523Y-2124977D01*
G01X-121501Y-2120997D01*
G01X-123553Y-2117123D01*
G01X-125603Y-2113247D01*
G01X-125603Y-2041766D01*
G01X-123553Y-2037893D01*
G01X-121501Y-2034017D01*
G01X-117523Y-2030042D01*
G01X-113548Y-2026061D01*
G01X-109675Y-2024014D01*
G01X-105799Y-2021964D01*
G01X-89438Y-2021964D01*
G01X-85565Y-2024014D01*
G01X-81689Y-2026061D01*
G01X-77711Y-2030042D01*
G01X-73736Y-2034017D01*
G01X-71686Y-2037893D01*
G01X-69634Y-2041766D01*
G01X-69355Y-2059208D01*
G01X-69078Y-2076646D01*
G01X-15944Y-2076646D01*
G01X-15664Y-2059208D01*
G01X-15387Y-2041766D01*
G01X-13335Y-2037893D01*
G01X-11285Y-2034017D01*
G01X-7308Y-2030042D01*
G01X-3332Y-2026061D01*
G01X544Y-2024014D01*
G01X4417Y-2021964D01*
G01X20777Y-2021964D01*
G01X24653Y-2024014D01*
G01X28527Y-2026061D01*
G01X32504Y-2030042D01*
G01X36479Y-2034017D01*
G01X38532Y-2037893D01*
G01X40584Y-2041766D01*
G01X40861Y-2059208D01*
G01X41140Y-2076646D01*
G01X94399Y-2076646D01*
G01X94399Y-2023379D01*
G01X76965Y-2023100D01*
G01X59525Y-2022820D01*
G01X55651Y-2020768D01*
G01X51775Y-2018718D01*
G01X47800Y-2014743D01*
G01X43823Y-2010763D01*
G01X41773Y-2006890D01*
G01X39721Y-2003014D01*
G01X39444Y-1985594D01*
G01X39164Y-1968172D01*
G01X-33317Y-1967939D01*
G01X-105799Y-1967702D01*
G01X-109675Y-1965653D01*
G01X-113548Y-1963600D01*
G01X-121501Y-1955648D01*
G01X-125600Y-1947896D01*
G01X-125600Y-1931533D01*
G01X-123551Y-1927659D01*
G01X-121501Y-1923783D01*
G01X-117523Y-1919806D01*
G01X-113548Y-1915828D01*
G01X-109675Y-1913778D01*
G01X-105799Y-1911726D01*
G01X-88425Y-1911449D01*
G01X-71051Y-1911170D01*
G01X-70772Y-1893794D01*
G01X-70495Y-1876417D01*
G01X-68445Y-1872541D01*
G01X-66393Y-1868665D01*
G01X-58440Y-1860713D01*
G01X-54567Y-1858660D01*
G01X-50691Y-1856610D01*
G01X-33254Y-1856329D01*
G01X-15817Y-1856052D01*
G01X-15817Y-1692676D01*
G01X-33254Y-1692397D01*
G01X-50691Y-1692120D01*
G01X-54567Y-1690065D01*
G01X-58440Y-1688015D01*
G01X-62415Y-1684038D01*
G01X-66393Y-1680060D01*
G01X-68445Y-1676184D01*
G01X-70495Y-1672311D01*
G01X-70495Y-1600830D01*
G01X-68445Y-1596954D01*
G01X-66393Y-1593080D01*
G01X-62415Y-1589103D01*
G01X-58440Y-1585125D01*
G01X-54567Y-1583073D01*
G01X-50691Y-1581023D01*
G01X39291Y-1580535D01*
G01X39291Y-1417000D01*
G01X-105799Y-1416533D01*
G01X-109675Y-1414480D01*
G01X-113548Y-1412430D01*
G01X-117523Y-1408453D01*
G01X-121501Y-1404475D01*
G01X-123553Y-1400599D01*
G01X-125603Y-1396726D01*
G01X-125882Y-1379350D01*
G01X-126162Y-1361971D01*
G01X-143535Y-1361694D01*
G01X-160909Y-1361415D01*
G01X-164782Y-1359365D01*
G01X-168659Y-1357312D01*
G01X-176611Y-1349360D01*
G01X-178659Y-1345484D01*
G01X-180708Y-1341608D01*
G01X-180708Y-1325245D01*
G01X-178659Y-1321369D01*
G01X-176611Y-1317495D01*
G01X-172636Y-1313515D01*
G01X-168659Y-1309540D01*
G01X-164782Y-1307490D01*
G01X-160909Y-1305436D01*
G01X-88364Y-1305204D01*
G01X-15817Y-1304971D01*
G01X-15817Y-1196495D01*
G01X-179296Y-1196495D01*
G01X-179573Y-1213935D01*
G01X-179852Y-1231374D01*
G01X-181902Y-1235250D01*
G01X-183954Y-1239126D01*
G01X-187932Y-1243101D01*
G01X-191907Y-1247076D01*
G01X-195781Y-1249129D01*
G01X-199657Y-1251176D01*
G01X-216017Y-1251176D01*
G01X-219890Y-1249129D01*
G01X-223766Y-1247076D01*
G01X-227744Y-1243101D01*
G01X-231719Y-1239126D01*
G01X-233769Y-1235250D01*
G01X-235821Y-1231374D01*
G01X-236101Y-1213996D01*
G01X-236377Y-1196619D01*
G01X-253751Y-1196343D01*
G01X-271125Y-1196063D01*
G01X-275001Y-1194011D01*
G01X-278874Y-1191961D01*
G01X-282852Y-1187983D01*
G01X-286827Y-1184006D01*
G01X-288879Y-1180130D01*
G01X-290929Y-1176256D01*
G01X-291208Y-1158880D01*
G01X-291485Y-1141504D01*
G01X-308859Y-1141225D01*
G01X-326235Y-1140945D01*
G01X-330109Y-1138895D01*
G01X-333982Y-1136843D01*
G01X-337960Y-1132868D01*
G01X-341935Y-1128890D01*
G01X-346034Y-1121138D01*
G01X-346034Y-1104776D01*
G01X-343985Y-1100899D01*
G01X-341935Y-1097026D01*
G01X-337960Y-1093048D01*
G01X-333982Y-1089071D01*
G01X-330109Y-1087018D01*
G01X-326235Y-1084969D01*
G01X-281305Y-1084725D01*
G01X-236377Y-1084481D01*
G01X-236101Y-1067069D01*
G01X-235821Y-1049660D01*
G01X-233769Y-1045784D01*
G01X-231719Y-1041908D01*
G01X-227744Y-1037933D01*
G01X-223766Y-1033953D01*
G01X-219890Y-1031903D01*
G01X-216017Y-1029851D01*
G01X-144549Y-1029851D01*
G01X-140673Y-1031903D01*
G01X-136799Y-1033953D01*
G01X-132822Y-1037933D01*
G01X-128847Y-1041908D01*
G01X-124747Y-1049660D01*
G01X-124747Y-1066020D01*
G01X-128847Y-1073772D01*
G01X-132822Y-1077750D01*
G01X-136799Y-1081725D01*
G01X-140673Y-1083777D01*
G01X-144549Y-1085830D01*
G01X-161983Y-1086109D01*
G01X-179421Y-1086386D01*
G01X-179421Y-1139655D01*
G01X-126162Y-1139655D01*
G01X-125603Y-1104776D01*
G01X-123553Y-1100899D01*
G01X-121501Y-1097026D01*
G01X-117523Y-1093048D01*
G01X-113548Y-1089071D01*
G01X-109675Y-1087021D01*
G01X-105799Y-1084974D01*
G01X-89438Y-1084974D01*
G01X-85565Y-1087021D01*
G01X-81689Y-1089071D01*
G01X-77711Y-1093048D01*
G01X-73736Y-1097026D01*
G01X-71686Y-1100899D01*
G01X-69634Y-1104776D01*
G01X-69355Y-1122215D01*
G01X-69078Y-1139655D01*
G01X-15855Y-1139655D01*
G01X-15621Y-1067097D01*
G01X-15387Y-994542D01*
G01X-13335Y-990666D01*
G01X-11285Y-986790D01*
G01X-3332Y-978837D01*
G01X544Y-976854D01*
G01X4417Y-974865D01*
G01X11306Y-974611D01*
G01X18197Y-974352D01*
G01X20353Y-975058D01*
G01X22512Y-975764D01*
G01X25519Y-977306D01*
G01X28527Y-978845D01*
G01X32504Y-982817D01*
G01X36479Y-986790D01*
G01X40584Y-994542D01*
G01X41138Y-1029294D01*
G01X58511Y-1029574D01*
G01X75888Y-1029851D01*
G01X79764Y-1031903D01*
G01X83637Y-1033953D01*
G01X87612Y-1037933D01*
G01X91587Y-1041908D01*
G01X93640Y-1045784D01*
G01X95687Y-1049660D01*
G01X95687Y-1066020D01*
G01X93640Y-1069896D01*
G01X91587Y-1073772D01*
G01X87612Y-1077750D01*
G01X83637Y-1081725D01*
G01X79764Y-1083777D01*
G01X75888Y-1085830D01*
G01X58450Y-1086109D01*
G01X41013Y-1086386D01*
G01X41013Y-1139655D01*
G01X94272Y-1139655D01*
G01X94831Y-1104776D01*
G01X96881Y-1100899D01*
G01X98933Y-1097026D01*
G01X102908Y-1093048D01*
G01X106886Y-1089071D01*
G01X110759Y-1087021D01*
G01X114635Y-1084974D01*
G01X130995Y-1084974D01*
G01X134871Y-1087021D01*
G01X138748Y-1089071D01*
G01X142723Y-1093048D01*
G01X146700Y-1097026D01*
G01X148750Y-1100899D01*
G01X150802Y-1104776D01*
G01X151079Y-1122152D01*
G01X151356Y-1139530D01*
G01X168732Y-1139807D01*
G01X186106Y-1140084D01*
G01X189979Y-1142136D01*
G01X193855Y-1144189D01*
G01X197830Y-1148166D01*
G01X201808Y-1152141D01*
G01X203855Y-1156017D01*
G01X205905Y-1159894D01*
G01X205905Y-1176256D01*
G01X203855Y-1180130D01*
G01X201808Y-1184006D01*
G01X197830Y-1187983D01*
G01X193855Y-1191961D01*
G01X189979Y-1194011D01*
G01X186106Y-1196063D01*
G01X168666Y-1196343D01*
G01X151232Y-1196622D01*
G01X151232Y-1304879D01*
G01X168666Y-1305159D01*
G01X186106Y-1305436D01*
G01X189979Y-1307490D01*
G01X193855Y-1309540D01*
G01X197830Y-1313515D01*
G01X201808Y-1317495D01*
G01X203858Y-1321369D01*
G01X205910Y-1325245D01*
G01X205910Y-1451841D01*
G01X203858Y-1455717D01*
G01X201808Y-1459593D01*
G01X197830Y-1463568D01*
G01X193855Y-1467546D01*
G01X189979Y-1469596D01*
G01X186106Y-1471646D01*
G01X169746Y-1471646D01*
G01X165870Y-1469596D01*
G01X161996Y-1467546D01*
G01X154043Y-1459593D01*
G01X151991Y-1455717D01*
G01X149941Y-1451841D01*
G01X149695Y-1406906D01*
G01X149451Y-1361973D01*
G01X132044Y-1361694D01*
G01X114635Y-1361415D01*
G01X110759Y-1359365D01*
G01X106886Y-1357312D01*
G01X98933Y-1349360D01*
G01X96881Y-1345484D01*
G01X94831Y-1341608D01*
G01X94587Y-1296609D01*
G01X94343Y-1251613D01*
G01X41013Y-1251613D01*
G01X41013Y-1359995D01*
G01X58450Y-1360274D01*
G01X75888Y-1360556D01*
G01X79764Y-1362606D01*
G01X83637Y-1364658D01*
G01X87612Y-1368633D01*
G01X91587Y-1372611D01*
G01X93642Y-1376487D01*
G01X95692Y-1380363D01*
G01X95936Y-1425298D01*
G01X96180Y-1470231D01*
G01X113586Y-1470510D01*
G01X130995Y-1470790D01*
G01X134871Y-1472839D01*
G01X138748Y-1474892D01*
G01X146700Y-1482844D01*
G01X148747Y-1486720D01*
G01X150797Y-1490596D01*
G01X150797Y-1506959D01*
G01X148747Y-1510835D01*
G01X146700Y-1514709D01*
G01X142723Y-1518689D01*
G01X138748Y-1522664D01*
G01X134871Y-1524714D01*
G01X130995Y-1526766D01*
G01X113586Y-1527045D01*
G01X96180Y-1527322D01*
G01X95692Y-1617193D01*
G01X93642Y-1621069D01*
G01X91587Y-1624942D01*
G01X87612Y-1628922D01*
G01X83637Y-1632897D01*
G01X79764Y-1634950D01*
G01X75888Y-1637000D01*
G01X41013Y-1637558D01*
G01X41013Y-1745816D01*
G01X58450Y-1746095D01*
G01X75888Y-1746372D01*
G01X79764Y-1748427D01*
G01X83637Y-1750479D01*
G01X87612Y-1754454D01*
G01X91587Y-1758432D01*
G01X93642Y-1762308D01*
G01X95692Y-1766184D01*
G01X95969Y-1783560D01*
G01X96248Y-1800936D01*
G01X113622Y-1801213D01*
G01X130995Y-1801492D01*
G01X134871Y-1803545D01*
G01X138748Y-1805595D01*
G01X142723Y-1809570D01*
G01X146700Y-1813550D01*
G01X148747Y-1817423D01*
G01X150797Y-1821299D01*
G01X150797Y-1837662D01*
G01X148747Y-1841538D01*
G01X146700Y-1845414D01*
G01X142723Y-1849389D01*
G01X138748Y-1853367D01*
G01X134871Y-1855419D01*
G01X130995Y-1857469D01*
G01X86004Y-1857713D01*
G01X41013Y-1857959D01*
G01X41013Y-1911170D01*
G01X58450Y-1911447D01*
G01X75888Y-1911726D01*
G01X79764Y-1913778D01*
G01X83637Y-1915828D01*
G01X91587Y-1923783D01*
G01X93642Y-1927659D01*
G01X95692Y-1931533D01*
G01X95969Y-1948909D01*
G01X96248Y-1966285D01*
G01X130995Y-1966844D01*
G01X134871Y-1968894D01*
G01X138748Y-1970946D01*
G01X142723Y-1974924D01*
G01X146700Y-1978899D01*
G01X148750Y-1982775D01*
G01X150802Y-1986651D01*
G01X151046Y-2031586D01*
G01X151290Y-2076519D01*
G01X168699Y-2076801D01*
G01X186106Y-2077077D01*
G01X189979Y-2079127D01*
G01X193855Y-2081179D01*
G01X197830Y-2085157D01*
G01X201808Y-2089132D01*
G01X203855Y-2093008D01*
G01X205905Y-2096884D01*
G01X205905Y-2113247D01*
G01X203855Y-2117123D01*
G01X201808Y-2120997D01*
G01X197830Y-2124977D01*
G01X193855Y-2128952D01*
G01X189979Y-2131004D01*
G01X186106Y-2133056D01*
G37*
G36*
G01X-254765Y-2133051D02*
G01X-271125Y-2133051D01*
G01X-275001Y-2131002D01*
G01X-278874Y-2128952D01*
G01X-282852Y-2124977D01*
G01X-286827Y-2120997D01*
G01X-288879Y-2117123D01*
G01X-290929Y-2113247D01*
G01X-291158Y-2013133D01*
G01X-291389Y-1913016D01*
G01X-344620Y-1913016D01*
G01X-344899Y-1930458D01*
G01X-345178Y-1947896D01*
G01X-347228Y-1951772D01*
G01X-349280Y-1955648D01*
G01X-353256Y-1959625D01*
G01X-357233Y-1963600D01*
G01X-361107Y-1965650D01*
G01X-364983Y-1967700D01*
G01X-381343Y-1967700D01*
G01X-389095Y-1963600D01*
G01X-397048Y-1955648D01*
G01X-399097Y-1951772D01*
G01X-401150Y-1947896D01*
G01X-401427Y-1930458D01*
G01X-401706Y-1913016D01*
G01X-510075Y-1913016D01*
G01X-510075Y-2021530D01*
G01X-456814Y-2021530D01*
G01X-456535Y-2004090D01*
G01X-456258Y-1986651D01*
G01X-454205Y-1982775D01*
G01X-452156Y-1978899D01*
G01X-448178Y-1974924D01*
G01X-444203Y-1970946D01*
G01X-440327Y-1968896D01*
G01X-436453Y-1966849D01*
G01X-420093Y-1966849D01*
G01X-416217Y-1968896D01*
G01X-412344Y-1970946D01*
G01X-404391Y-1978899D01*
G01X-400286Y-1986651D01*
G01X-400009Y-2004027D01*
G01X-399730Y-2021403D01*
G01X-382356Y-2021683D01*
G01X-364983Y-2021959D01*
G01X-361107Y-2024012D01*
G01X-357233Y-2026061D01*
G01X-353256Y-2030042D01*
G01X-349280Y-2034017D01*
G01X-347228Y-2037893D01*
G01X-345178Y-2041766D01*
G01X-345178Y-2113247D01*
G01X-347228Y-2117123D01*
G01X-349280Y-2120997D01*
G01X-353256Y-2124977D01*
G01X-357233Y-2128952D01*
G01X-361107Y-2131002D01*
G01X-364983Y-2133051D01*
G01X-381343Y-2133051D01*
G01X-389095Y-2128952D01*
G01X-393070Y-2124977D01*
G01X-397048Y-2120997D01*
G01X-399097Y-2117123D01*
G01X-401150Y-2113247D01*
G01X-401427Y-2095823D01*
G01X-401706Y-2078396D01*
G01X-601777Y-2077938D01*
G01X-605653Y-2075886D01*
G01X-609526Y-2073834D01*
G01X-613504Y-2069859D01*
G01X-617482Y-2065881D01*
G01X-621581Y-2058129D01*
G01X-621825Y-2013153D01*
G01X-622071Y-1968172D01*
G01X-694588Y-1967939D01*
G01X-767103Y-1967702D01*
G01X-770979Y-1965653D01*
G01X-774852Y-1963600D01*
G01X-778830Y-1959625D01*
G01X-782805Y-1955648D01*
G01X-786905Y-1947896D01*
G01X-786905Y-1931533D01*
G01X-784855Y-1927659D01*
G01X-782805Y-1923783D01*
G01X-778830Y-1919806D01*
G01X-774852Y-1915828D01*
G01X-770979Y-1913778D01*
G01X-767103Y-1911726D01*
G01X-749729Y-1911449D01*
G01X-732356Y-1911170D01*
G01X-732079Y-1893794D01*
G01X-731799Y-1876417D01*
G01X-729747Y-1872541D01*
G01X-727697Y-1868665D01*
G01X-723722Y-1864688D01*
G01X-719745Y-1860713D01*
G01X-715869Y-1858663D01*
G01X-711995Y-1856613D01*
G01X-695635Y-1856613D01*
G01X-691759Y-1858663D01*
G01X-687885Y-1860713D01*
G01X-679933Y-1868665D01*
G01X-677880Y-1872541D01*
G01X-675830Y-1876417D01*
G01X-675551Y-1893854D01*
G01X-675274Y-1911297D01*
G01X-622140Y-1911297D01*
G01X-621863Y-1893854D01*
G01X-621581Y-1876417D01*
G01X-617482Y-1868665D01*
G01X-613504Y-1864688D01*
G01X-609526Y-1860713D01*
G01X-605653Y-1858660D01*
G01X-601777Y-1856610D01*
G01X-584357Y-1856329D01*
G01X-566933Y-1856052D01*
G01X-566704Y-1755999D01*
G01X-566558Y-1692549D01*
G01X-510075Y-1692549D01*
G01X-510075Y-1856179D01*
G01X-346471Y-1856179D01*
G01X-346471Y-1692549D01*
G01X-346471Y-1692549D01*
G01X-510075Y-1692549D01*
G01X-566558Y-1692549D01*
G01X-566473Y-1655948D01*
G01X-564424Y-1652072D01*
G01X-562371Y-1648196D01*
G01X-558394Y-1644221D01*
G01X-554418Y-1640243D01*
G01X-550545Y-1638191D01*
G01X-546669Y-1636138D01*
G01X-501708Y-1635895D01*
G01X-456745Y-1635651D01*
G01X-456501Y-1590680D01*
G01X-456456Y-1582313D01*
G01X-399854Y-1582313D01*
G01X-399854Y-1635709D01*
G01X-346471Y-1635709D01*
G01X-346471Y-1582313D01*
G01X-346471Y-1582313D01*
G01X-399854Y-1582313D01*
G01X-456456Y-1582313D01*
G01X-456258Y-1545712D01*
G01X-454205Y-1541838D01*
G01X-452156Y-1537962D01*
G01X-448178Y-1533987D01*
G01X-444203Y-1530007D01*
G01X-440327Y-1527957D01*
G01X-436453Y-1525905D01*
G01X-419044Y-1525628D01*
G01X-401635Y-1525349D01*
G01X-401391Y-1480414D01*
G01X-401150Y-1435478D01*
G01X-399097Y-1431605D01*
G01X-397048Y-1427729D01*
G01X-393070Y-1423751D01*
G01X-389095Y-1419774D01*
G01X-385219Y-1417724D01*
G01X-381343Y-1415672D01*
G01X-363969Y-1415392D01*
G01X-346596Y-1415115D01*
G01X-346316Y-1397739D01*
G01X-346039Y-1380363D01*
G01X-341935Y-1372611D01*
G01X-337960Y-1368633D01*
G01X-333982Y-1364658D01*
G01X-330109Y-1362606D01*
G01X-326235Y-1360556D01*
G01X-308859Y-1360274D01*
G01X-291485Y-1359997D01*
G01X-291208Y-1342621D01*
G01X-290929Y-1325245D01*
G01X-288879Y-1321369D01*
G01X-286827Y-1317495D01*
G01X-282852Y-1313515D01*
G01X-278874Y-1309540D01*
G01X-275001Y-1307554D01*
G01X-271125Y-1305570D01*
G01X-264239Y-1305311D01*
G01X-257348Y-1305055D01*
G01X-255191Y-1305761D01*
G01X-253032Y-1306469D01*
G01X-250025Y-1308009D01*
G01X-247015Y-1309548D01*
G01X-243040Y-1313520D01*
G01X-239062Y-1317495D01*
G01X-237012Y-1321369D01*
G01X-234960Y-1325245D01*
G01X-234960Y-1562075D01*
G01X-237012Y-1565951D01*
G01X-239062Y-1569827D01*
G01X-247015Y-1577779D01*
G01X-250891Y-1579832D01*
G01X-254765Y-1581884D01*
G01X-289639Y-1582443D01*
G01X-289639Y-1635582D01*
G01X-272202Y-1635862D01*
G01X-254765Y-1636138D01*
G01X-250891Y-1638191D01*
G01X-247015Y-1640243D01*
G01X-243040Y-1644221D01*
G01X-239062Y-1648196D01*
G01X-237012Y-1652072D01*
G01X-234960Y-1655948D01*
G01X-234716Y-1700881D01*
G01X-234472Y-1745818D01*
G01X-217063Y-1746095D01*
G01X-199657Y-1746372D01*
G01X-195781Y-1748427D01*
G01X-191907Y-1750479D01*
G01X-183954Y-1758432D01*
G01X-181902Y-1762308D01*
G01X-179852Y-1766184D01*
G01X-179575Y-1783560D01*
G01X-179296Y-1800936D01*
G01X-161922Y-1801213D01*
G01X-144549Y-1801492D01*
G01X-140673Y-1803545D01*
G01X-136799Y-1805595D01*
G01X-132822Y-1809570D01*
G01X-128847Y-1813550D01*
G01X-126797Y-1817423D01*
G01X-124747Y-1821299D01*
G01X-124747Y-1837662D01*
G01X-128847Y-1845414D01*
G01X-136799Y-1853367D01*
G01X-140673Y-1855419D01*
G01X-144549Y-1857469D01*
G01X-161983Y-1857751D01*
G01X-179421Y-1858028D01*
G01X-179421Y-1966285D01*
G01X-161983Y-1966565D01*
G01X-144549Y-1966844D01*
G01X-140673Y-1968894D01*
G01X-136799Y-1970946D01*
G01X-128847Y-1978899D01*
G01X-124747Y-1986651D01*
G01X-124747Y-2003014D01*
G01X-126797Y-2006890D01*
G01X-128847Y-2010763D01*
G01X-132822Y-2014743D01*
G01X-136799Y-2018718D01*
G01X-140673Y-2020768D01*
G01X-144549Y-2022820D01*
G01X-189509Y-2023067D01*
G01X-234472Y-2023311D01*
G01X-234960Y-2113247D01*
G01X-237012Y-2117123D01*
G01X-239062Y-2120997D01*
G01X-243040Y-2124977D01*
G01X-247015Y-2128952D01*
G01X-250891Y-2131002D01*
G01X-254765Y-2133051D01*
G37*
G36*
G01X-420093Y-1802323D02*
G01X-436453Y-1802323D01*
G01X-440327Y-1800243D01*
G01X-444203Y-1798163D01*
G01X-448135Y-1794228D01*
G01X-452067Y-1790296D01*
G01X-454147Y-1786420D01*
G01X-456227Y-1782547D01*
G01X-456227Y-1766184D01*
G01X-452067Y-1758432D01*
G01X-444203Y-1750563D01*
G01X-440327Y-1748549D01*
G01X-436453Y-1746534D01*
G01X-429562Y-1746255D01*
G01X-422674Y-1745978D01*
G01X-421383Y-1746448D01*
G01X-420093Y-1746913D01*
G01X-416217Y-1748721D01*
G01X-412344Y-1750527D01*
G01X-408409Y-1754480D01*
G01X-404477Y-1758432D01*
G01X-400317Y-1766184D01*
G01X-400317Y-1782547D01*
G01X-402397Y-1786420D01*
G01X-404477Y-1790296D01*
G01X-412344Y-1798163D01*
G01X-416217Y-1800243D01*
G01X-420093Y-1802323D01*
G37*
G36*
G01X-81689Y-1026610D02*
G01X-85565Y-1028659D01*
G01X-89438Y-1030707D01*
G01X-105799Y-1030707D01*
G01X-109675Y-1028659D01*
G01X-113548Y-1026610D01*
G01X-117523Y-1022632D01*
G01X-121501Y-1018654D01*
G01X-123553Y-1014781D01*
G01X-125603Y-1010905D01*
G01X-125839Y-938347D01*
G01X-126073Y-865792D01*
G01X-179296Y-865792D01*
G01X-179573Y-883229D01*
G01X-179852Y-900671D01*
G01X-181902Y-904547D01*
G01X-183954Y-908421D01*
G01X-187932Y-912398D01*
G01X-191907Y-916376D01*
G01X-195781Y-918423D01*
G01X-199657Y-920473D01*
G01X-216017Y-920473D01*
G01X-219890Y-918423D01*
G01X-223766Y-916376D01*
G01X-227744Y-912398D01*
G01X-231719Y-908421D01*
G01X-233769Y-904547D01*
G01X-235821Y-900671D01*
G01X-236101Y-883295D01*
G01X-236377Y-865916D01*
G01X-253751Y-865640D01*
G01X-271125Y-865360D01*
G01X-275001Y-863310D01*
G01X-278874Y-861258D01*
G01X-286827Y-853305D01*
G01X-288879Y-849429D01*
G01X-290929Y-845553D01*
G01X-291208Y-828175D01*
G01X-291485Y-810798D01*
G01X-308859Y-810522D01*
G01X-326235Y-810245D01*
G01X-333982Y-806140D01*
G01X-341935Y-798187D01*
G01X-343985Y-794311D01*
G01X-346034Y-790438D01*
G01X-346034Y-774073D01*
G01X-341935Y-766321D01*
G01X-333982Y-758368D01*
G01X-330109Y-756315D01*
G01X-326235Y-754266D01*
G01X-281305Y-754022D01*
G01X-236377Y-753778D01*
G01X-236101Y-736366D01*
G01X-235821Y-718955D01*
G01X-233769Y-715079D01*
G01X-231719Y-711205D01*
G01X-227744Y-707227D01*
G01X-223766Y-703250D01*
G01X-219890Y-701200D01*
G01X-216017Y-699148D01*
G01X-181270Y-698594D01*
G01X-180993Y-681215D01*
G01X-180713Y-663839D01*
G01X-178661Y-659963D01*
G01X-176611Y-656087D01*
G01X-168659Y-648134D01*
G01X-164782Y-646082D01*
G01X-160909Y-644030D01*
G01X-143500Y-643753D01*
G01X-126093Y-643473D01*
G01X-125847Y-598538D01*
G01X-125603Y-553606D01*
G01X-123553Y-549730D01*
G01X-121501Y-545854D01*
G01X-117523Y-541876D01*
G01X-113548Y-537898D01*
G01X-109675Y-535849D01*
G01X-105799Y-533796D01*
G01X-36914Y-533476D01*
G01X-34755Y-534152D01*
G01X-32598Y-534827D01*
G01X-29588Y-536367D01*
G01X-26581Y-537906D01*
G01X-22603Y-541881D01*
G01X-18628Y-545854D01*
G01X-16579Y-549730D01*
G01X-14526Y-553606D01*
G01X-14247Y-571015D01*
G01X-13970Y-588424D01*
G01X30958Y-588670D01*
G01X75888Y-588914D01*
G01X79764Y-590964D01*
G01X83637Y-593016D01*
G01X91587Y-600972D01*
G01X93640Y-604845D01*
G01X95687Y-608721D01*
G01X95687Y-625084D01*
G01X93640Y-628960D01*
G01X91587Y-632836D01*
G01X87612Y-636814D01*
G01X83637Y-640789D01*
G01X79764Y-642841D01*
G01X75888Y-644891D01*
G01X41013Y-645450D01*
G01X41013Y-698591D01*
G01X58450Y-698871D01*
G01X75888Y-699148D01*
G01X79764Y-701200D01*
G01X83637Y-703250D01*
G01X91587Y-711205D01*
G01X93640Y-715079D01*
G01X95687Y-718955D01*
G01X95687Y-735317D01*
G01X93640Y-739193D01*
G01X91587Y-743069D01*
G01X87612Y-747047D01*
G01X83637Y-751022D01*
G01X79764Y-753074D01*
G01X75888Y-755124D01*
G01X4417Y-755124D01*
G01X544Y-753074D01*
G01X-3332Y-751022D01*
G01X-11285Y-743069D01*
G01X-13335Y-739193D01*
G01X-15387Y-735317D01*
G01X-15664Y-717880D01*
G01X-15944Y-700438D01*
G01X-124186Y-700438D01*
G01X-124463Y-717880D01*
G01X-124744Y-735317D01*
G01X-126794Y-739193D01*
G01X-128847Y-743069D01*
G01X-132822Y-747047D01*
G01X-136799Y-751022D01*
G01X-140673Y-753074D01*
G01X-144549Y-755124D01*
G01X-161983Y-755404D01*
G01X-179421Y-755686D01*
G01X-179421Y-808952D01*
G01X-126162Y-808952D01*
G01X-125603Y-774073D01*
G01X-123553Y-770197D01*
G01X-121501Y-766321D01*
G01X-117523Y-762345D01*
G01X-113548Y-758368D01*
G01X-109675Y-756318D01*
G01X-105799Y-754268D01*
G01X-89438Y-754268D01*
G01X-85565Y-756318D01*
G01X-81689Y-758368D01*
G01X-73736Y-766321D01*
G01X-71686Y-770197D01*
G01X-69634Y-774073D01*
G01X-69355Y-791484D01*
G01X-69078Y-808893D01*
G01X20777Y-809381D01*
G01X24653Y-811433D01*
G01X28527Y-813486D01*
G01X36479Y-821439D01*
G01X38532Y-825315D01*
G01X40584Y-829188D01*
G01X40584Y-900671D01*
G01X38532Y-904547D01*
G01X36479Y-908421D01*
G01X32504Y-912398D01*
G01X28527Y-916376D01*
G01X24653Y-918423D01*
G01X20777Y-920473D01*
G01X4417Y-920473D01*
G01X544Y-918423D01*
G01X-3332Y-916376D01*
G01X-7308Y-912398D01*
G01X-11285Y-908421D01*
G01X-13335Y-904547D01*
G01X-15387Y-900671D01*
G01X-15664Y-883229D01*
G01X-15944Y-865792D01*
G01X-69205Y-865792D01*
G01X-69205Y-919058D01*
G01X-34331Y-919617D01*
G01X-30457Y-921669D01*
G01X-26581Y-923719D01*
G01X-22603Y-927697D01*
G01X-18628Y-931675D01*
G01X-16581Y-935551D01*
G01X-14531Y-939424D01*
G01X-14531Y-955787D01*
G01X-16581Y-959663D01*
G01X-18628Y-963539D01*
G01X-26581Y-971492D01*
G01X-30457Y-973544D01*
G01X-34331Y-975596D01*
G01X-51704Y-975873D01*
G01X-69078Y-976152D01*
G01X-69355Y-993529D01*
G01X-69634Y-1010905D01*
G01X-71686Y-1014781D01*
G01X-73736Y-1018654D01*
G01X-77711Y-1022632D01*
G01X-81689Y-1026610D01*
G37*
G36*
G01X800049Y-1577779D02*
G01X796176Y-1579832D01*
G01X792300Y-1581884D01*
G01X720832Y-1581884D01*
G01X716958Y-1579832D01*
G01X713082Y-1577779D01*
G01X709105Y-1573804D01*
G01X705129Y-1569827D01*
G01X703077Y-1565951D01*
G01X701027Y-1562075D01*
G01X700781Y-1517078D01*
G01X700537Y-1472080D01*
G01X647337Y-1472080D01*
G01X647057Y-1489519D01*
G01X646781Y-1506959D01*
G01X644728Y-1510835D01*
G01X642678Y-1514709D01*
G01X638701Y-1518689D01*
G01X634726Y-1522664D01*
G01X630850Y-1524714D01*
G01X626976Y-1526761D01*
G01X610616Y-1526761D01*
G01X606740Y-1524714D01*
G01X602866Y-1522664D01*
G01X598889Y-1518689D01*
G01X594911Y-1514709D01*
G01X592861Y-1510835D01*
G01X590812Y-1506959D01*
G01X590565Y-1462024D01*
G01X590321Y-1417089D01*
G01X572912Y-1416809D01*
G01X555503Y-1416533D01*
G01X551630Y-1414480D01*
G01X547754Y-1412430D01*
G01X539803Y-1404475D01*
G01X537754Y-1400599D01*
G01X535704Y-1396726D01*
G01X535704Y-1380363D01*
G01X539803Y-1372611D01*
G01X543778Y-1368633D01*
G01X547754Y-1364658D01*
G01X551630Y-1362606D01*
G01X555503Y-1360556D01*
G01X626976Y-1360556D01*
G01X630850Y-1362606D01*
G01X634726Y-1364658D01*
G01X642678Y-1372611D01*
G01X644728Y-1376487D01*
G01X646781Y-1380363D01*
G01X647057Y-1397800D01*
G01X647337Y-1415242D01*
G01X700598Y-1415242D01*
G01X700598Y-1361973D01*
G01X683158Y-1361694D01*
G01X665724Y-1361415D01*
G01X661848Y-1359365D01*
G01X657974Y-1357312D01*
G01X650022Y-1349360D01*
G01X647969Y-1345484D01*
G01X645919Y-1341608D01*
G01X645640Y-1324186D01*
G01X645363Y-1306766D01*
G01X572877Y-1306533D01*
G01X500395Y-1306299D01*
G01X496522Y-1304247D01*
G01X492646Y-1302197D01*
G01X488671Y-1298217D01*
G01X484693Y-1294242D01*
G01X482646Y-1290366D01*
G01X480596Y-1286492D01*
G01X480596Y-1270127D01*
G01X482646Y-1266251D01*
G01X484693Y-1262375D01*
G01X488671Y-1258400D01*
G01X492646Y-1254425D01*
G01X496522Y-1252370D01*
G01X500395Y-1250318D01*
G01X572943Y-1250084D01*
G01X645488Y-1249850D01*
G01X645488Y-1196530D01*
G01X572943Y-1196297D01*
G01X500395Y-1196063D01*
G01X496522Y-1194011D01*
G01X492646Y-1191961D01*
G01X488671Y-1187983D01*
G01X484693Y-1184006D01*
G01X482646Y-1180130D01*
G01X480596Y-1176256D01*
G01X480596Y-1159894D01*
G01X482646Y-1156017D01*
G01X484693Y-1152141D01*
G01X488671Y-1148166D01*
G01X492646Y-1144189D01*
G01X496522Y-1142136D01*
G01X500395Y-1140084D01*
G01X517771Y-1139807D01*
G01X535145Y-1139530D01*
G01X535422Y-1122152D01*
G01X535699Y-1104776D01*
G01X537751Y-1100899D01*
G01X539803Y-1097026D01*
G01X547754Y-1089071D01*
G01X551630Y-1087018D01*
G01X555503Y-1084969D01*
G01X572879Y-1084692D01*
G01X590253Y-1084412D01*
G01X590530Y-1067036D01*
G01X590812Y-1049660D01*
G01X594911Y-1041908D01*
G01X598889Y-1037933D01*
G01X602866Y-1033953D01*
G01X606740Y-1031903D01*
G01X610616Y-1029851D01*
G01X627990Y-1029574D01*
G01X645363Y-1029294D01*
G01X645640Y-1011918D01*
G01X645919Y-994542D01*
G01X647969Y-990666D01*
G01X650022Y-986790D01*
G01X653997Y-982812D01*
G01X657974Y-978837D01*
G01X661848Y-976785D01*
G01X665724Y-974735D01*
G01X734609Y-974415D01*
G01X736765Y-975088D01*
G01X738924Y-975764D01*
G01X741934Y-977306D01*
G01X744941Y-978845D01*
G01X748916Y-982817D01*
G01X752894Y-986790D01*
G01X754944Y-990666D01*
G01X756991Y-994542D01*
G01X756991Y-1010905D01*
G01X754944Y-1014781D01*
G01X752894Y-1018654D01*
G01X748916Y-1022632D01*
G01X744941Y-1026610D01*
G01X741068Y-1028662D01*
G01X737192Y-1030712D01*
G01X719818Y-1030989D01*
G01X702445Y-1031268D01*
G01X702165Y-1048644D01*
G01X701888Y-1066020D01*
G01X699836Y-1069896D01*
G01X697786Y-1073772D01*
G01X689834Y-1081725D01*
G01X685957Y-1083777D01*
G01X682084Y-1085830D01*
G01X664644Y-1086109D01*
G01X647210Y-1086386D01*
G01X647210Y-1139655D01*
G01X700471Y-1139655D01*
G01X700748Y-1122215D01*
G01X701027Y-1104776D01*
G01X703077Y-1100899D01*
G01X705129Y-1097026D01*
G01X709105Y-1093048D01*
G01X713082Y-1089071D01*
G01X716958Y-1087021D01*
G01X720832Y-1084974D01*
G01X737192Y-1084974D01*
G01X741068Y-1087021D01*
G01X744941Y-1089071D01*
G01X748916Y-1093048D01*
G01X752894Y-1097026D01*
G01X754946Y-1100899D01*
G01X756996Y-1104776D01*
G01X757230Y-1177270D01*
G01X757466Y-1249761D01*
G01X774883Y-1250041D01*
G01X792300Y-1250318D01*
G01X796176Y-1252370D01*
G01X800049Y-1254425D01*
G01X804027Y-1258400D01*
G01X808002Y-1262375D01*
G01X810052Y-1266251D01*
G01X812099Y-1270127D01*
G01X812099Y-1286492D01*
G01X810052Y-1290366D01*
G01X808002Y-1294242D01*
G01X804027Y-1298217D01*
G01X800049Y-1302197D01*
G01X796176Y-1304247D01*
G01X792300Y-1306299D01*
G01X774865Y-1306576D01*
G01X757425Y-1306855D01*
G01X757425Y-1359995D01*
G01X774865Y-1360274D01*
G01X792300Y-1360556D01*
G01X796176Y-1362606D01*
G01X800049Y-1364658D01*
G01X804027Y-1368633D01*
G01X808002Y-1372611D01*
G01X810054Y-1376487D01*
G01X812104Y-1380363D01*
G01X812104Y-1451841D01*
G01X810054Y-1455717D01*
G01X808002Y-1459593D01*
G01X800049Y-1467546D01*
G01X796176Y-1469598D01*
G01X792300Y-1471651D01*
G01X774865Y-1471930D01*
G01X757425Y-1472207D01*
G01X757425Y-1525349D01*
G01X774865Y-1525626D01*
G01X792300Y-1525905D01*
G01X796176Y-1527957D01*
G01X800049Y-1530007D01*
G01X804027Y-1533987D01*
G01X808002Y-1537962D01*
G01X810052Y-1541838D01*
G01X812099Y-1545712D01*
G01X812099Y-1562075D01*
G01X810052Y-1565951D01*
G01X808002Y-1569827D01*
G01X804027Y-1573804D01*
G01X800049Y-1577779D01*
G37*
G36*
G01X-530309Y-920786D02*
G01X-660331Y-920821D01*
G01X-665930Y-920072D01*
G01X-671525Y-919323D01*
G01X-675399Y-918340D01*
G01X-679275Y-917354D01*
G01X-684009Y-916186D01*
G01X-688746Y-915017D01*
G01X-697050Y-912117D01*
G01X-705353Y-909218D01*
G01X-706521Y-908279D01*
G01X-707690Y-907341D01*
G01X-709844Y-906686D01*
G01X-711995Y-906031D01*
G01X-714047Y-904425D01*
G01X-716105Y-902823D01*
G01X-718454Y-902823D01*
G01X-718454Y-901134D01*
G01X-720524Y-900613D01*
G01X-722597Y-900095D01*
G01X-726503Y-895934D01*
G01X-728000Y-895934D01*
G01X-729038Y-895096D01*
G01X-730077Y-894255D01*
G01X-735673Y-889749D01*
G01X-741274Y-885246D01*
G01X-742399Y-883702D01*
G01X-743521Y-882155D01*
G01X-745147Y-882155D01*
G01X-746869Y-880433D01*
G01X-748591Y-878708D01*
G01X-748591Y-877085D01*
G01X-750181Y-875960D01*
G01X-751774Y-874834D01*
G01X-759221Y-865561D01*
G01X-766674Y-856285D01*
G01X-766674Y-853857D01*
G01X-768828Y-851581D01*
G01X-772404Y-844260D01*
G01X-775978Y-836940D01*
G01X-777766Y-833046D01*
G01X-779554Y-829147D01*
G01X-780123Y-826155D01*
G01X-780692Y-823161D01*
G01X-782566Y-819716D01*
G01X-783595Y-814550D01*
G01X-784621Y-809381D01*
G01X-785688Y-805505D01*
G01X-786752Y-801632D01*
G01X-786816Y-787852D01*
G01X-730453Y-787852D01*
G01X-728398Y-797324D01*
G01X-726343Y-806801D01*
G01X-724852Y-811106D01*
G01X-723359Y-815411D01*
G01X-722300Y-816701D01*
G01X-721241Y-817994D01*
G01X-720621Y-820021D01*
G01X-720004Y-822048D01*
G01X-716300Y-827484D01*
G01X-712292Y-832642D01*
G01X-708287Y-837804D01*
G01X-704974Y-840910D01*
G01X-701662Y-844022D01*
G01X-696029Y-848269D01*
G01X-690397Y-852521D01*
G01X-683113Y-856021D01*
G01X-675830Y-859521D01*
G01X-664637Y-861799D01*
G01X-664637Y-861799D01*
G01X-653440Y-864078D01*
G01X-593169Y-864032D01*
G01X-532892Y-863989D01*
G01X-523420Y-861969D01*
G01X-513949Y-859947D01*
G01X-510075Y-858525D01*
G01X-506199Y-857103D01*
G01X-499311Y-853585D01*
G01X-492422Y-850064D01*
G01X-489836Y-847519D01*
G01X-487256Y-844974D01*
G01X-485023Y-843803D01*
G01X-482790Y-842635D01*
G01X-477751Y-836343D01*
G01X-472709Y-830052D01*
G01X-470464Y-828675D01*
G01X-470464Y-826409D01*
G01X-468861Y-824354D01*
G01X-467258Y-822302D01*
G01X-466606Y-820148D01*
G01X-465955Y-817994D01*
G01X-464830Y-816701D01*
G01X-463710Y-815411D01*
G01X-463093Y-812825D01*
G01X-462476Y-810245D01*
G01X-461592Y-809120D01*
G01X-460705Y-807999D01*
G01X-459499Y-802231D01*
G01X-458290Y-796465D01*
G01X-457551Y-792157D01*
G01X-456814Y-787852D01*
G01X-456750Y-727784D01*
G01X-456687Y-667713D01*
G01X-458059Y-659747D01*
G01X-459433Y-651782D01*
G01X-460695Y-648338D01*
G01X-461957Y-644891D01*
G01X-462864Y-641891D01*
G01X-463768Y-638891D01*
G01X-465394Y-636824D01*
G01X-467022Y-634756D01*
G01X-467022Y-632480D01*
G01X-469189Y-629214D01*
G01X-471358Y-625945D01*
G01X-472420Y-624291D01*
G01X-473476Y-622638D01*
G01X-481193Y-614604D01*
G01X-488909Y-606567D01*
G01X-490342Y-606567D01*
G01X-491381Y-605721D01*
G01X-492422Y-604873D01*
G01X-495130Y-602706D01*
G01X-497835Y-600540D01*
G01X-500370Y-600540D01*
G01X-502422Y-598970D01*
G01X-504477Y-597400D01*
G01X-509643Y-595589D01*
G01X-514810Y-593776D01*
G01X-521698Y-592826D01*
G01X-532031Y-590382D01*
G01X-653788Y-590205D01*
G01X-658353Y-591101D01*
G01X-662915Y-591995D01*
G01X-666791Y-592899D01*
G01X-670664Y-593804D01*
G01X-680997Y-597294D01*
G01X-687885Y-600740D01*
G01X-694774Y-604190D01*
G01X-702836Y-611307D01*
G01X-708551Y-616636D01*
G01X-712409Y-621154D01*
G01X-716265Y-625673D01*
G01X-717342Y-627962D01*
G01X-718421Y-630250D01*
G01X-719991Y-632836D01*
G01X-720989Y-634990D01*
G01X-721990Y-637141D01*
G01X-723814Y-640585D01*
G01X-725635Y-644030D01*
G01X-727260Y-650921D01*
G01X-728883Y-657812D01*
G01X-729633Y-662117D01*
G01X-730385Y-666422D01*
G01X-730418Y-727136D01*
G01X-730453Y-787852D01*
G01X-786816Y-787852D01*
G01X-787075Y-731876D01*
G01X-787400Y-662117D01*
G01X-786574Y-655658D01*
G01X-785749Y-649196D01*
G01X-784824Y-645536D01*
G01X-783895Y-641876D01*
G01X-782958Y-638218D01*
G01X-782023Y-634558D01*
G01X-780524Y-629389D01*
G01X-779026Y-624223D01*
G01X-777923Y-621640D01*
G01X-776816Y-619056D01*
G01X-772820Y-610875D01*
G01X-768828Y-602691D01*
G01X-768276Y-602262D01*
G01X-767730Y-601830D01*
G01X-766384Y-598602D01*
G01X-765040Y-595373D01*
G01X-763229Y-595373D01*
G01X-763229Y-593575D01*
G01X-759615Y-588660D01*
G01X-756001Y-583748D01*
G01X-746318Y-574274D01*
G01X-736641Y-564799D01*
G01X-727862Y-557479D01*
G01X-725526Y-557479D01*
G01X-725106Y-556405D01*
G01X-724687Y-555325D01*
G01X-718960Y-552402D01*
G01X-713235Y-549481D01*
G01X-712821Y-548808D01*
G01X-712406Y-548140D01*
G01X-709894Y-547586D01*
G01X-707380Y-547035D01*
G01X-705419Y-544673D01*
G01X-702678Y-544101D01*
G01X-699940Y-543532D01*
G01X-698218Y-542455D01*
G01X-696496Y-541376D01*
G01X-693054Y-540751D01*
G01X-689607Y-540128D01*
G01X-687796Y-538963D01*
G01X-685988Y-537799D01*
G01X-673064Y-536001D01*
G01X-668081Y-533796D01*
G01X-596613Y-533690D01*
G01X-525142Y-533583D01*
G01X-520405Y-534266D01*
G01X-515671Y-534949D01*
G01X-508518Y-536616D01*
G01X-501366Y-538284D01*
G01X-500383Y-539270D01*
G01X-499397Y-540255D01*
G01X-494378Y-540255D01*
G01X-491249Y-541919D01*
G01X-488117Y-543580D01*
G01X-484972Y-544093D01*
G01X-481833Y-544609D01*
G01X-480779Y-545874D01*
G01X-479727Y-547144D01*
G01X-476827Y-547144D01*
G01X-473908Y-549298D01*
G01X-470992Y-551449D01*
G01X-468742Y-551449D01*
G01X-468742Y-553141D01*
G01X-466448Y-553717D01*
G01X-464152Y-554294D01*
G01X-453748Y-562686D01*
G01X-443342Y-571081D01*
G01X-439382Y-575259D01*
G01X-435425Y-579440D01*
G01X-427975Y-588716D01*
G01X-420522Y-597990D01*
G01X-420522Y-600415D01*
G01X-419435Y-601553D01*
G01X-418351Y-602691D01*
G01X-412979Y-613547D01*
G01X-407604Y-624406D01*
G01X-407604Y-627347D01*
G01X-405902Y-631383D01*
G01X-404198Y-635419D01*
G01X-403362Y-640156D01*
G01X-402529Y-644891D01*
G01X-401488Y-648767D01*
G01X-400449Y-652643D01*
G01X-400121Y-719816D01*
G01X-399796Y-786991D01*
G01X-400624Y-796033D01*
G01X-401455Y-805076D01*
G01X-403179Y-811967D01*
G01X-404904Y-818855D01*
G01X-406179Y-823806D01*
G01X-407449Y-828754D01*
G01X-409326Y-832846D01*
G01X-411206Y-836940D01*
G01X-411970Y-838665D01*
G01X-412737Y-840384D01*
G01X-413659Y-842538D01*
G01X-414584Y-844690D01*
G01X-416679Y-848136D01*
G01X-418775Y-851581D01*
G01X-422184Y-858901D01*
G01X-423967Y-858901D01*
G01X-423967Y-860697D01*
G01X-427579Y-865612D01*
G01X-431193Y-870527D01*
G01X-440279Y-879803D01*
G01X-449367Y-889074D01*
G01X-457977Y-894585D01*
G01X-458409Y-895076D01*
G01X-458838Y-895566D01*
G01X-463146Y-898322D01*
G01X-467451Y-901083D01*
G01X-470896Y-903760D01*
G01X-475630Y-905967D01*
G01X-480367Y-908169D01*
G01X-482087Y-908873D01*
G01X-483812Y-909574D01*
G01X-488709Y-911796D01*
G01X-493608Y-914019D01*
G01X-496466Y-914019D01*
G01X-499179Y-915228D01*
G01X-501894Y-916435D01*
G01X-509643Y-917908D01*
G01X-517390Y-919381D01*
G01X-523850Y-920085D01*
G01X-530309Y-920786D01*
G37*
G36*
G01X-575945Y-809061D02*
G01X-580253Y-809805D01*
G01X-584558Y-810547D01*
G01X-602638Y-810547D01*
G01X-606943Y-809805D01*
G01X-611251Y-809061D01*
G01X-616417Y-807649D01*
G01X-621581Y-806232D01*
G01X-629333Y-802803D01*
G01X-630626Y-801997D01*
G01X-631916Y-801190D01*
G01X-634497Y-800108D01*
G01X-640527Y-796133D01*
G01X-646554Y-792157D01*
G01X-652582Y-786127D01*
G01X-658609Y-780103D01*
G01X-662501Y-774073D01*
G01X-666392Y-768045D01*
G01X-667456Y-766321D01*
G01X-668523Y-764601D01*
G01X-669580Y-762015D01*
G01X-671131Y-758571D01*
G01X-672681Y-755124D01*
G01X-675510Y-744791D01*
G01X-676252Y-740486D01*
G01X-676996Y-736181D01*
G01X-676996Y-718094D01*
G01X-676252Y-713788D01*
G01X-675510Y-709483D01*
G01X-674096Y-704314D01*
G01X-672681Y-699148D01*
G01X-670966Y-695272D01*
G01X-669249Y-691396D01*
G01X-668444Y-690105D01*
G01X-667639Y-688812D01*
G01X-667098Y-687522D01*
G01X-666554Y-686229D01*
G01X-658609Y-674174D01*
G01X-652582Y-668144D01*
G01X-646554Y-662117D01*
G01X-640527Y-658223D01*
G01X-634497Y-654329D01*
G01X-632777Y-653265D01*
G01X-631055Y-652203D01*
G01X-629763Y-651673D01*
G01X-628472Y-651144D01*
G01X-625028Y-649592D01*
G01X-621581Y-648043D01*
G01X-616417Y-646628D01*
G01X-611251Y-645211D01*
G01X-606943Y-644469D01*
G01X-602638Y-643727D01*
G01X-593169Y-643778D01*
G01X-583695Y-643829D01*
G01X-579818Y-644512D01*
G01X-575945Y-645196D01*
G01X-570779Y-646618D01*
G01X-565612Y-648043D01*
G01X-561739Y-649757D01*
G01X-557863Y-651474D01*
G01X-556572Y-652280D01*
G01X-555280Y-653085D01*
G01X-553989Y-653628D01*
G01X-552699Y-654167D01*
G01X-546669Y-658142D01*
G01X-540642Y-662117D01*
G01X-534614Y-668144D01*
G01X-528587Y-674174D01*
G01X-524695Y-680202D01*
G01X-520802Y-686229D01*
G01X-519740Y-687951D01*
G01X-518673Y-689676D01*
G01X-517616Y-692257D01*
G01X-516064Y-695703D01*
G01X-514513Y-699148D01*
G01X-513100Y-704314D01*
G01X-511686Y-709483D01*
G01X-510941Y-713788D01*
G01X-510200Y-718094D01*
G01X-510200Y-736181D01*
G01X-510941Y-740486D01*
G01X-511686Y-744791D01*
G01X-513100Y-749958D01*
G01X-514513Y-755124D01*
G01X-517947Y-762876D01*
G01X-518752Y-764169D01*
G01X-519557Y-765459D01*
G01X-520639Y-768045D01*
G01X-524614Y-774073D01*
G01X-528587Y-780103D01*
G01X-534614Y-786127D01*
G01X-540642Y-792157D01*
G01X-546669Y-796051D01*
G01X-552699Y-799943D01*
G01X-554418Y-801009D01*
G01X-556141Y-802074D01*
G01X-557433Y-802602D01*
G01X-558724Y-803133D01*
G01X-565612Y-806232D01*
G01X-570779Y-807649D01*
G01X-575945Y-809061D01*
G37*
G36*
G01X682084Y-920786D02*
G01X552061Y-920821D01*
G01X546463Y-920072D01*
G01X540868Y-919323D01*
G01X536994Y-918340D01*
G01X533118Y-917354D01*
G01X528384Y-916186D01*
G01X523644Y-915017D01*
G01X515343Y-912117D01*
G01X507040Y-909218D01*
G01X505871Y-908279D01*
G01X504701Y-907341D01*
G01X502549Y-906686D01*
G01X500395Y-906031D01*
G01X498343Y-904425D01*
G01X496288Y-902823D01*
G01X493939Y-902823D01*
G01X493939Y-901134D01*
G01X491866Y-900613D01*
G01X489796Y-900095D01*
G01X485889Y-895934D01*
G01X484393Y-895934D01*
G01X483354Y-895096D01*
G01X482316Y-894255D01*
G01X476717Y-889749D01*
G01X471119Y-885246D01*
G01X469994Y-883702D01*
G01X468869Y-882155D01*
G01X467246Y-882155D01*
G01X465521Y-880433D01*
G01X463801Y-878708D01*
G01X463801Y-877085D01*
G01X462211Y-875960D01*
G01X460619Y-874834D01*
G01X453169Y-865561D01*
G01X445717Y-856285D01*
G01X445717Y-853857D01*
G01X444642Y-852719D01*
G01X443565Y-851581D01*
G01X439989Y-844260D01*
G01X436415Y-836940D01*
G01X434627Y-833046D01*
G01X432839Y-829147D01*
G01X432267Y-826155D01*
G01X431698Y-823161D01*
G01X430761Y-821439D01*
G01X429826Y-819716D01*
G01X428798Y-814550D01*
G01X427769Y-809381D01*
G01X426705Y-805505D01*
G01X425641Y-801632D01*
G01X425576Y-787852D01*
G01X481940Y-787852D01*
G01X483992Y-797324D01*
G01X486049Y-806801D01*
G01X487540Y-811106D01*
G01X489034Y-815411D01*
G01X490093Y-816701D01*
G01X491152Y-817994D01*
G01X491772Y-820021D01*
G01X492387Y-822048D01*
G01X494241Y-824766D01*
G01X496090Y-827484D01*
G01X500098Y-832642D01*
G01X504106Y-837804D01*
G01X507416Y-840910D01*
G01X510731Y-844022D01*
G01X516364Y-848269D01*
G01X521995Y-852521D01*
G01X529280Y-856021D01*
G01X536562Y-859521D01*
G01X547754Y-861799D01*
G01X547754Y-861799D01*
G01X558950Y-864078D01*
G01X619224Y-864032D01*
G01X679498Y-863989D01*
G01X688972Y-861969D01*
G01X698444Y-859947D01*
G01X702318Y-858525D01*
G01X706194Y-857103D01*
G01X713082Y-853585D01*
G01X719971Y-850064D01*
G01X725137Y-844974D01*
G01X727370Y-843803D01*
G01X729600Y-842635D01*
G01X739684Y-830052D01*
G01X740804Y-829363D01*
G01X741926Y-828675D01*
G01X741926Y-826409D01*
G01X743532Y-824354D01*
G01X745134Y-822302D01*
G01X745785Y-820148D01*
G01X746437Y-817994D01*
G01X747560Y-816701D01*
G01X748683Y-815411D01*
G01X749300Y-812825D01*
G01X749915Y-810245D01*
G01X750801Y-809120D01*
G01X751688Y-807999D01*
G01X752894Y-802231D01*
G01X754101Y-796465D01*
G01X754840Y-792157D01*
G01X755579Y-787852D01*
G01X755640Y-727784D01*
G01X755706Y-667713D01*
G01X754334Y-659747D01*
G01X752960Y-651782D01*
G01X751698Y-648338D01*
G01X750433Y-644891D01*
G01X748624Y-638891D01*
G01X746996Y-636824D01*
G01X745371Y-634756D01*
G01X745371Y-632480D01*
G01X743204Y-629214D01*
G01X741035Y-625945D01*
G01X739973Y-624291D01*
G01X738914Y-622638D01*
G01X731200Y-614604D01*
G01X723483Y-606567D01*
G01X722051Y-606567D01*
G01X721012Y-605721D01*
G01X719971Y-604873D01*
G01X714555Y-600540D01*
G01X712023Y-600540D01*
G01X709971Y-598970D01*
G01X707916Y-597400D01*
G01X702749Y-595589D01*
G01X697583Y-593776D01*
G01X690695Y-592826D01*
G01X685528Y-591604D01*
G01X680359Y-590382D01*
G01X619483Y-590293D01*
G01X558604Y-590205D01*
G01X554040Y-591101D01*
G01X549478Y-591995D01*
G01X545602Y-592899D01*
G01X541729Y-593804D01*
G01X536562Y-595549D01*
G01X531393Y-597294D01*
G01X524507Y-600740D01*
G01X517619Y-604190D01*
G01X509557Y-611307D01*
G01X506700Y-613971D01*
G01X503839Y-616636D01*
G01X496128Y-625673D01*
G01X495049Y-627962D01*
G01X493972Y-630250D01*
G01X493187Y-631543D01*
G01X492399Y-632836D01*
G01X491404Y-634990D01*
G01X490403Y-637141D01*
G01X486755Y-644030D01*
G01X485132Y-650921D01*
G01X483507Y-657812D01*
G01X482760Y-662117D01*
G01X482008Y-666422D01*
G01X481975Y-727136D01*
G01X481940Y-787852D01*
G01X425576Y-787852D01*
G01X425315Y-731876D01*
G01X424993Y-662117D01*
G01X425818Y-655658D01*
G01X426641Y-649196D01*
G01X427568Y-645536D01*
G01X428498Y-641876D01*
G01X429433Y-638218D01*
G01X430370Y-634558D01*
G01X431869Y-629389D01*
G01X433365Y-624223D01*
G01X435574Y-619056D01*
G01X439572Y-610875D01*
G01X443565Y-602691D01*
G01X444114Y-602262D01*
G01X444663Y-601830D01*
G01X446009Y-598602D01*
G01X447352Y-595373D01*
G01X449161Y-595373D01*
G01X449161Y-593575D01*
G01X452778Y-588660D01*
G01X456392Y-583748D01*
G01X475752Y-564799D01*
G01X484530Y-557479D01*
G01X486867Y-557479D01*
G01X487284Y-556405D01*
G01X487705Y-555325D01*
G01X493431Y-552402D01*
G01X499158Y-549481D01*
G01X499572Y-548808D01*
G01X499984Y-548140D01*
G01X502498Y-547586D01*
G01X505013Y-547035D01*
G01X506974Y-544673D01*
G01X509715Y-544101D01*
G01X512450Y-543532D01*
G01X514175Y-542455D01*
G01X515894Y-541376D01*
G01X519339Y-540751D01*
G01X522785Y-540128D01*
G01X524594Y-538963D01*
G01X526405Y-537799D01*
G01X532864Y-536900D01*
G01X539326Y-536001D01*
G01X541820Y-534899D01*
G01X544312Y-533796D01*
G01X687248Y-533583D01*
G01X696722Y-534949D01*
G01X703875Y-536616D01*
G01X711027Y-538284D01*
G01X712010Y-539270D01*
G01X712996Y-540255D01*
G01X718015Y-540255D01*
G01X721144Y-541919D01*
G01X724276Y-543580D01*
G01X727418Y-544093D01*
G01X730560Y-544609D01*
G01X731614Y-545874D01*
G01X732666Y-547144D01*
G01X735566Y-547144D01*
G01X738482Y-549298D01*
G01X741401Y-551449D01*
G01X743651Y-551449D01*
G01X743651Y-553141D01*
G01X745945Y-553717D01*
G01X748241Y-554294D01*
G01X758645Y-562686D01*
G01X769051Y-571081D01*
G01X773011Y-575259D01*
G01X776968Y-579440D01*
G01X784418Y-588716D01*
G01X791870Y-597990D01*
G01X791870Y-600415D01*
G01X792958Y-601553D01*
G01X794042Y-602691D01*
G01X799414Y-613547D01*
G01X804786Y-624406D01*
G01X804786Y-627347D01*
G01X808195Y-635419D01*
G01X809028Y-640156D01*
G01X809864Y-644891D01*
G01X810905Y-648767D01*
G01X811944Y-652643D01*
G01X812269Y-719816D01*
G01X812594Y-786991D01*
G01X811769Y-796033D01*
G01X810938Y-805076D01*
G01X809214Y-811967D01*
G01X807486Y-818855D01*
G01X806214Y-823806D01*
G01X804944Y-828754D01*
G01X803064Y-832846D01*
G01X801187Y-836940D01*
G01X800420Y-838665D01*
G01X799656Y-840384D01*
G01X798733Y-842538D01*
G01X797809Y-844690D01*
G01X795713Y-848136D01*
G01X793618Y-851581D01*
G01X790209Y-858901D01*
G01X788426Y-858901D01*
G01X788426Y-860697D01*
G01X784814Y-865612D01*
G01X781200Y-870527D01*
G01X772112Y-879803D01*
G01X763026Y-889074D01*
G01X758721Y-891830D01*
G01X754413Y-894585D01*
G01X753981Y-895076D01*
G01X753552Y-895566D01*
G01X749247Y-898322D01*
G01X744941Y-901083D01*
G01X741497Y-903760D01*
G01X736763Y-905967D01*
G01X732025Y-908169D01*
G01X730303Y-908873D01*
G01X728581Y-909574D01*
G01X723684Y-911796D01*
G01X718784Y-914019D01*
G01X715924Y-914019D01*
G01X713212Y-915228D01*
G01X710499Y-916435D01*
G01X695000Y-919381D01*
G01X688543Y-920085D01*
G01X682084Y-920786D01*
G37*
G36*
G01X636445Y-809061D02*
G01X632140Y-809805D01*
G01X627835Y-810547D01*
G01X609752Y-810547D01*
G01X605447Y-809805D01*
G01X601142Y-809061D01*
G01X595975Y-807649D01*
G01X590812Y-806232D01*
G01X583060Y-802803D01*
G01X581767Y-801997D01*
G01X580476Y-801190D01*
G01X579186Y-800649D01*
G01X577893Y-800108D01*
G01X565838Y-792157D01*
G01X559811Y-786127D01*
G01X553784Y-780103D01*
G01X549892Y-774073D01*
G01X546001Y-768045D01*
G01X544934Y-766321D01*
G01X543870Y-764601D01*
G01X543342Y-763308D01*
G01X542811Y-762015D01*
G01X541261Y-758571D01*
G01X539712Y-755124D01*
G01X538295Y-749958D01*
G01X536882Y-744791D01*
G01X536141Y-740486D01*
G01X535396Y-736181D01*
G01X535396Y-718094D01*
G01X536141Y-713788D01*
G01X536882Y-709483D01*
G01X538295Y-704314D01*
G01X539712Y-699148D01*
G01X543141Y-691396D01*
G01X543946Y-690105D01*
G01X544751Y-688812D01*
G01X545295Y-687522D01*
G01X545836Y-686229D01*
G01X549811Y-680202D01*
G01X553784Y-674174D01*
G01X559811Y-668144D01*
G01X565838Y-662117D01*
G01X577893Y-654329D01*
G01X579615Y-653265D01*
G01X581337Y-652203D01*
G01X582628Y-651673D01*
G01X583921Y-651144D01*
G01X587365Y-649592D01*
G01X590812Y-648043D01*
G01X595975Y-646628D01*
G01X601142Y-645211D01*
G01X609752Y-643727D01*
G01X628696Y-643829D01*
G01X632572Y-644512D01*
G01X636445Y-645196D01*
G01X641614Y-646618D01*
G01X646781Y-648043D01*
G01X650654Y-649757D01*
G01X654530Y-651474D01*
G01X655820Y-652280D01*
G01X657113Y-653085D01*
G01X658404Y-653628D01*
G01X659694Y-654167D01*
G01X665724Y-658142D01*
G01X671749Y-662117D01*
G01X677779Y-668144D01*
G01X683804Y-674174D01*
G01X691591Y-686229D01*
G01X692653Y-687951D01*
G01X693717Y-689676D01*
G01X694248Y-690966D01*
G01X694776Y-692257D01*
G01X696328Y-695703D01*
G01X697878Y-699148D01*
G01X699292Y-704314D01*
G01X700707Y-709483D01*
G01X701451Y-713788D01*
G01X702191Y-718094D01*
G01X702191Y-736181D01*
G01X701451Y-740486D01*
G01X700707Y-744791D01*
G01X697878Y-755124D01*
G01X696163Y-759000D01*
G01X694446Y-762876D01*
G01X693641Y-764169D01*
G01X692836Y-765459D01*
G01X692292Y-766752D01*
G01X691754Y-768045D01*
G01X687779Y-774073D01*
G01X683804Y-780103D01*
G01X671749Y-792157D01*
G01X665724Y-796051D01*
G01X659694Y-799943D01*
G01X657974Y-801009D01*
G01X656250Y-802074D01*
G01X654959Y-802602D01*
G01X653669Y-803133D01*
G01X646781Y-806232D01*
G01X641614Y-807649D01*
G01X636445Y-809061D01*
G37*
G36*
G01X682084Y-2133364D02*
G01X552061Y-2133399D01*
G01X546463Y-2132650D01*
G01X540868Y-2131901D01*
G01X536994Y-2130918D01*
G01X533118Y-2129932D01*
G01X528384Y-2128764D01*
G01X523644Y-2127595D01*
G01X515343Y-2124695D01*
G01X507040Y-2121794D01*
G01X505871Y-2120857D01*
G01X504701Y-2119917D01*
G01X502549Y-2119264D01*
G01X500395Y-2118609D01*
G01X498343Y-2117006D01*
G01X496288Y-2115401D01*
G01X493939Y-2115401D01*
G01X493939Y-2113712D01*
G01X491866Y-2113191D01*
G01X489796Y-2112670D01*
G01X485889Y-2108510D01*
G01X484393Y-2108510D01*
G01X482316Y-2106833D01*
G01X476717Y-2102328D01*
G01X471119Y-2097824D01*
G01X469994Y-2096277D01*
G01X468869Y-2094733D01*
G01X467246Y-2094733D01*
G01X463801Y-2091289D01*
G01X463801Y-2089663D01*
G01X462211Y-2088538D01*
G01X460619Y-2087413D01*
G01X453169Y-2078139D01*
G01X445717Y-2068866D01*
G01X445717Y-2066435D01*
G01X444642Y-2065297D01*
G01X443565Y-2064159D01*
G01X439989Y-2056839D01*
G01X436415Y-2049518D01*
G01X434627Y-2045625D01*
G01X432839Y-2041726D01*
G01X432267Y-2038734D01*
G01X431698Y-2035741D01*
G01X430761Y-2034017D01*
G01X429826Y-2032295D01*
G01X428798Y-2027126D01*
G01X427769Y-2021959D01*
G01X426705Y-2018083D01*
G01X425641Y-2014210D01*
G01X425576Y-2000430D01*
G01X481940Y-2000430D01*
G01X483992Y-2009902D01*
G01X486049Y-2019376D01*
G01X487540Y-2023684D01*
G01X489034Y-2027989D01*
G01X490093Y-2029280D01*
G01X491152Y-2030573D01*
G01X491772Y-2032599D01*
G01X492387Y-2034626D01*
G01X494241Y-2037344D01*
G01X496090Y-2040062D01*
G01X500098Y-2045223D01*
G01X504106Y-2050379D01*
G01X507416Y-2053488D01*
G01X510731Y-2056600D01*
G01X516364Y-2060849D01*
G01X521995Y-2065096D01*
G01X529280Y-2068599D01*
G01X536562Y-2072099D01*
G01X547754Y-2074377D01*
G01X547754Y-2074377D01*
G01X558950Y-2076653D01*
G01X679498Y-2076567D01*
G01X688972Y-2074548D01*
G01X698444Y-2072526D01*
G01X702318Y-2071103D01*
G01X706194Y-2069681D01*
G01X713082Y-2066160D01*
G01X719971Y-2062643D01*
G01X725137Y-2057552D01*
G01X727370Y-2056381D01*
G01X729600Y-2055213D01*
G01X734642Y-2048921D01*
G01X739684Y-2042627D01*
G01X740804Y-2041939D01*
G01X741926Y-2041251D01*
G01X741926Y-2038988D01*
G01X743532Y-2036930D01*
G01X745134Y-2034878D01*
G01X745785Y-2032726D01*
G01X746437Y-2030573D01*
G01X747560Y-2029280D01*
G01X748683Y-2027989D01*
G01X749300Y-2025406D01*
G01X749915Y-2022820D01*
G01X750801Y-2021700D01*
G01X751688Y-2020575D01*
G01X754101Y-2009043D01*
G01X754840Y-2004736D01*
G01X755579Y-2000430D01*
G01X755640Y-1940359D01*
G01X755706Y-1880293D01*
G01X754334Y-1872325D01*
G01X752960Y-1864360D01*
G01X751698Y-1860916D01*
G01X750433Y-1857469D01*
G01X748624Y-1851469D01*
G01X746996Y-1849402D01*
G01X745371Y-1847332D01*
G01X745371Y-1845059D01*
G01X743204Y-1841792D01*
G01X741035Y-1838523D01*
G01X739973Y-1836870D01*
G01X738914Y-1835216D01*
G01X731200Y-1827182D01*
G01X723483Y-1819145D01*
G01X722051Y-1819145D01*
G01X721012Y-1818297D01*
G01X719971Y-1817451D01*
G01X714555Y-1813118D01*
G01X712023Y-1813118D01*
G01X709971Y-1811548D01*
G01X707916Y-1809979D01*
G01X702749Y-1808168D01*
G01X697583Y-1806354D01*
G01X690695Y-1805404D01*
G01X685528Y-1804182D01*
G01X680359Y-1802961D01*
G01X619483Y-1802872D01*
G01X558604Y-1802783D01*
G01X554040Y-1803677D01*
G01X549478Y-1804573D01*
G01X545602Y-1805478D01*
G01X541729Y-1806382D01*
G01X536562Y-1808127D01*
G01X531393Y-1809869D01*
G01X524507Y-1813319D01*
G01X517619Y-1816768D01*
G01X513588Y-1820324D01*
G01X509557Y-1823883D01*
G01X506700Y-1826547D01*
G01X503839Y-1829214D01*
G01X499984Y-1833733D01*
G01X496128Y-1838249D01*
G01X495049Y-1840537D01*
G01X493972Y-1842828D01*
G01X493187Y-1844121D01*
G01X492399Y-1845414D01*
G01X491404Y-1847566D01*
G01X490403Y-1849719D01*
G01X488579Y-1853164D01*
G01X486755Y-1856610D01*
G01X485132Y-1863496D01*
G01X483507Y-1870387D01*
G01X482760Y-1874693D01*
G01X482008Y-1878998D01*
G01X481975Y-1939714D01*
G01X481940Y-2000430D01*
G01X425576Y-2000430D01*
G01X425315Y-1944451D01*
G01X424993Y-1874693D01*
G01X425818Y-1868236D01*
G01X426641Y-1861777D01*
G01X427568Y-1858117D01*
G01X428498Y-1854454D01*
G01X429433Y-1850794D01*
G01X430370Y-1847134D01*
G01X431869Y-1841967D01*
G01X433365Y-1836801D01*
G01X434470Y-1834218D01*
G01X435574Y-1831632D01*
G01X439572Y-1823451D01*
G01X443565Y-1815269D01*
G01X444663Y-1814411D01*
G01X446009Y-1811180D01*
G01X447352Y-1807949D01*
G01X449161Y-1807949D01*
G01X449161Y-1806153D01*
G01X452778Y-1801238D01*
G01X456392Y-1796324D01*
G01X466072Y-1786852D01*
G01X475752Y-1777378D01*
G01X484530Y-1770057D01*
G01X486867Y-1770057D01*
G01X487284Y-1768980D01*
G01X487705Y-1767903D01*
G01X493431Y-1764980D01*
G01X499158Y-1762056D01*
G01X499572Y-1761388D01*
G01X499984Y-1760718D01*
G01X502498Y-1760167D01*
G01X505013Y-1759613D01*
G01X506974Y-1757251D01*
G01X509715Y-1756679D01*
G01X512450Y-1756108D01*
G01X514175Y-1755033D01*
G01X515894Y-1753954D01*
G01X519339Y-1753332D01*
G01X522785Y-1752707D01*
G01X524594Y-1751541D01*
G01X526405Y-1750377D01*
G01X532864Y-1749478D01*
G01X539326Y-1748579D01*
G01X541820Y-1747477D01*
G01X544312Y-1746372D01*
G01X615780Y-1746268D01*
G01X687248Y-1746161D01*
G01X691985Y-1746844D01*
G01X696722Y-1747525D01*
G01X711027Y-1750863D01*
G01X712010Y-1751848D01*
G01X712996Y-1752834D01*
G01X718015Y-1752834D01*
G01X721144Y-1754497D01*
G01X724276Y-1756159D01*
G01X730560Y-1757185D01*
G01X731614Y-1758455D01*
G01X732666Y-1759722D01*
G01X735566Y-1759722D01*
G01X738482Y-1761876D01*
G01X741401Y-1764030D01*
G01X743651Y-1764030D01*
G01X743651Y-1765719D01*
G01X745945Y-1766296D01*
G01X748241Y-1766872D01*
G01X758645Y-1775264D01*
G01X769051Y-1783659D01*
G01X773011Y-1787837D01*
G01X776968Y-1792018D01*
G01X784418Y-1801292D01*
G01X791870Y-1810568D01*
G01X791870Y-1812994D01*
G01X792958Y-1814131D01*
G01X794042Y-1815269D01*
G01X799414Y-1826128D01*
G01X804786Y-1836981D01*
G01X804786Y-1839925D01*
G01X808195Y-1847997D01*
G01X809028Y-1852734D01*
G01X809864Y-1857469D01*
G01X810905Y-1861345D01*
G01X811944Y-1865221D01*
G01X812594Y-1999567D01*
G01X811769Y-2008612D01*
G01X810938Y-2017654D01*
G01X809214Y-2024545D01*
G01X807486Y-2031434D01*
G01X806214Y-2036381D01*
G01X804944Y-2041329D01*
G01X803064Y-2045426D01*
G01X801187Y-2049518D01*
G01X800420Y-2051243D01*
G01X799656Y-2052963D01*
G01X798733Y-2055117D01*
G01X797809Y-2057270D01*
G01X793618Y-2064159D01*
G01X790209Y-2071479D01*
G01X788426Y-2071479D01*
G01X788426Y-2073275D01*
G01X784814Y-2078190D01*
G01X781200Y-2083107D01*
G01X772112Y-2092378D01*
G01X763026Y-2101652D01*
G01X758721Y-2104408D01*
G01X754413Y-2107161D01*
G01X753981Y-2107654D01*
G01X753552Y-2108144D01*
G01X749247Y-2110903D01*
G01X744941Y-2113658D01*
G01X743219Y-2115000D01*
G01X741497Y-2116338D01*
G01X736763Y-2118543D01*
G01X732025Y-2120750D01*
G01X730303Y-2121449D01*
G01X728581Y-2122152D01*
G01X723684Y-2124375D01*
G01X718784Y-2126597D01*
G01X715924Y-2126597D01*
G01X713212Y-2127804D01*
G01X710499Y-2129013D01*
G01X702749Y-2130483D01*
G01X695000Y-2131957D01*
G01X688543Y-2132660D01*
G01X682084Y-2133364D01*
G37*
G36*
G01X641614Y-2020225D02*
G01X636445Y-2021639D01*
G01X627835Y-2023128D01*
G01X609752Y-2023128D01*
G01X601142Y-2021639D01*
G01X595975Y-2020225D01*
G01X590812Y-2018812D01*
G01X583060Y-2015378D01*
G01X581767Y-2014573D01*
G01X580476Y-2013768D01*
G01X579186Y-2013227D01*
G01X577893Y-2012683D01*
G01X571866Y-2008711D01*
G01X565838Y-2004736D01*
G01X553784Y-1992681D01*
G01X546001Y-1980621D01*
G01X544934Y-1978899D01*
G01X543870Y-1977179D01*
G01X543342Y-1975884D01*
G01X542811Y-1974593D01*
G01X541261Y-1971149D01*
G01X539712Y-1967702D01*
G01X538295Y-1962536D01*
G01X536882Y-1957370D01*
G01X536141Y-1953062D01*
G01X535396Y-1948757D01*
G01X535396Y-1930672D01*
G01X536141Y-1926366D01*
G01X536882Y-1922059D01*
G01X538295Y-1916892D01*
G01X539712Y-1911726D01*
G01X541426Y-1907850D01*
G01X543141Y-1903976D01*
G01X544751Y-1901391D01*
G01X545295Y-1900100D01*
G01X545836Y-1898810D01*
G01X549811Y-1892780D01*
G01X553784Y-1886750D01*
G01X559811Y-1880723D01*
G01X565838Y-1874693D01*
G01X571866Y-1870801D01*
G01X577893Y-1866908D01*
G01X579615Y-1865846D01*
G01X581337Y-1864779D01*
G01X582628Y-1864251D01*
G01X583921Y-1863722D01*
G01X587365Y-1862171D01*
G01X590812Y-1860619D01*
G01X595975Y-1859206D01*
G01X601142Y-1857792D01*
G01X609752Y-1856303D01*
G01X619224Y-1856356D01*
G01X628696Y-1856407D01*
G01X632572Y-1857091D01*
G01X636445Y-1857771D01*
G01X641614Y-1859196D01*
G01X646781Y-1860619D01*
G01X650654Y-1862336D01*
G01X654530Y-1864053D01*
G01X655820Y-1864858D01*
G01X657113Y-1865663D01*
G01X659694Y-1866745D01*
G01X665724Y-1870720D01*
G01X671749Y-1874693D01*
G01X677779Y-1880723D01*
G01X683804Y-1886750D01*
G01X691591Y-1898810D01*
G01X692653Y-1900530D01*
G01X693717Y-1902252D01*
G01X694248Y-1903545D01*
G01X694776Y-1904835D01*
G01X696328Y-1908282D01*
G01X697878Y-1911726D01*
G01X700707Y-1922059D01*
G01X701451Y-1926366D01*
G01X702191Y-1930672D01*
G01X702191Y-1948757D01*
G01X701451Y-1953062D01*
G01X700707Y-1957370D01*
G01X697878Y-1967702D01*
G01X696163Y-1971578D01*
G01X694446Y-1975455D01*
G01X692836Y-1978040D01*
G01X692292Y-1979331D01*
G01X691754Y-1980621D01*
G01X683804Y-1992681D01*
G01X677779Y-1998708D01*
G01X671749Y-2004736D01*
G01X665724Y-2008629D01*
G01X659694Y-2012521D01*
G01X657974Y-2013585D01*
G01X656250Y-2014652D01*
G01X653669Y-2015708D01*
G01X646781Y-2018812D01*
G01X641614Y-2020225D01*
G37*
G36*
G01X359179Y-2073834D02*
G01X355305Y-2075884D01*
G01X351429Y-2077933D01*
G01X335069Y-2077933D01*
G01X331196Y-2075884D01*
G01X327320Y-2073834D01*
G01X319367Y-2065881D01*
G01X317317Y-2062005D01*
G01X315265Y-2058129D01*
G01X314985Y-2040692D01*
G01X314709Y-2023250D01*
G01X261574Y-2023250D01*
G01X261297Y-2040692D01*
G01X261018Y-2058129D01*
G01X258968Y-2062005D01*
G01X256916Y-2065881D01*
G01X248963Y-2073834D01*
G01X245087Y-2075884D01*
G01X241214Y-2077933D01*
G01X224854Y-2077933D01*
G01X220977Y-2075884D01*
G01X217104Y-2073834D01*
G01X213126Y-2069859D01*
G01X209151Y-2065881D01*
G01X207099Y-2062005D01*
G01X205049Y-2058129D01*
G01X204803Y-2013196D01*
G01X204559Y-1968261D01*
G01X187152Y-1967984D01*
G01X169746Y-1967702D01*
G01X165870Y-1965653D01*
G01X161996Y-1963600D01*
G01X158018Y-1959625D01*
G01X154043Y-1955648D01*
G01X151994Y-1951772D01*
G01X149946Y-1947896D01*
G01X149946Y-1931533D01*
G01X151994Y-1927659D01*
G01X154043Y-1923783D01*
G01X158018Y-1919806D01*
G01X161996Y-1915828D01*
G01X165870Y-1913778D01*
G01X169746Y-1911726D01*
G01X214734Y-1911482D01*
G01X259728Y-1911236D01*
G01X259728Y-1858028D01*
G01X242288Y-1857751D01*
G01X224854Y-1857469D01*
G01X220977Y-1855419D01*
G01X217104Y-1853367D01*
G01X209151Y-1845414D01*
G01X207099Y-1841538D01*
G01X205049Y-1837662D01*
G01X205049Y-1766184D01*
G01X207099Y-1762308D01*
G01X209151Y-1758432D01*
G01X213126Y-1754454D01*
G01X217104Y-1750479D01*
G01X220977Y-1748427D01*
G01X224854Y-1746372D01*
G01X259601Y-1745818D01*
G01X259878Y-1728442D01*
G01X260157Y-1711063D01*
G01X262209Y-1707187D01*
G01X264259Y-1703314D01*
G01X268234Y-1699336D01*
G01X272212Y-1695361D01*
G01X276088Y-1693375D01*
G01X279961Y-1691391D01*
G01X286852Y-1691132D01*
G01X293738Y-1690873D01*
G01X295897Y-1691582D01*
G01X298054Y-1692288D01*
G01X301064Y-1693829D01*
G01X304071Y-1695369D01*
G01X308046Y-1699341D01*
G01X312024Y-1703314D01*
G01X314076Y-1707187D01*
G01X316126Y-1711063D01*
G01X316354Y-1838676D01*
G01X316581Y-1966285D01*
G01X351429Y-1966844D01*
G01X355305Y-1968894D01*
G01X359179Y-1970946D01*
G01X363157Y-1974924D01*
G01X367134Y-1978899D01*
G01X371234Y-1986651D01*
G01X371234Y-2058129D01*
G01X367134Y-2065881D01*
G01X363157Y-2069859D01*
G01X359179Y-2073834D01*
G37*
G36*
G01X516758Y-1692120D02*
G01X335069Y-1692120D01*
G01X331196Y-1690065D01*
G01X327320Y-1688015D01*
G01X323345Y-1684038D01*
G01X319367Y-1680060D01*
G01X317320Y-1676184D01*
G01X315270Y-1672311D01*
G01X315270Y-1655948D01*
G01X317320Y-1652072D01*
G01X319367Y-1648196D01*
G01X323345Y-1644221D01*
G01X327320Y-1640243D01*
G01X331196Y-1638191D01*
G01X335069Y-1636138D01*
G01X407617Y-1635905D01*
G01X480162Y-1635671D01*
G01X480162Y-1582443D01*
G01X445287Y-1581884D01*
G01X441411Y-1579832D01*
G01X437538Y-1577779D01*
G01X429585Y-1569827D01*
G01X427535Y-1565951D01*
G01X425488Y-1562075D01*
G01X425488Y-1545712D01*
G01X427535Y-1541838D01*
G01X429585Y-1537962D01*
G01X433563Y-1533987D01*
G01X437538Y-1530007D01*
G01X441411Y-1527957D01*
G01X445287Y-1525905D01*
G01X462725Y-1525626D01*
G01X480162Y-1525349D01*
G01X480162Y-1472207D01*
G01X462725Y-1471930D01*
G01X445287Y-1471651D01*
G01X441411Y-1469598D01*
G01X437538Y-1467546D01*
G01X433563Y-1463568D01*
G01X429585Y-1459593D01*
G01X427535Y-1455717D01*
G01X425488Y-1451841D01*
G01X425488Y-1435478D01*
G01X427535Y-1431605D01*
G01X429585Y-1427729D01*
G01X433563Y-1423751D01*
G01X437538Y-1419774D01*
G01X441411Y-1417724D01*
G01X445287Y-1415672D01*
G01X479730Y-1415512D01*
G01X514175Y-1415351D01*
G01X516334Y-1416025D01*
G01X518490Y-1416703D01*
G01X521498Y-1418242D01*
G01X524507Y-1419781D01*
G01X528483Y-1423754D01*
G01X532458Y-1427729D01*
G01X534513Y-1431605D01*
G01X536562Y-1435478D01*
G01X536796Y-1507973D01*
G01X537032Y-1580464D01*
G01X554446Y-1580746D01*
G01X571866Y-1581023D01*
G01X575742Y-1583073D01*
G01X579615Y-1585125D01*
G01X583590Y-1589103D01*
G01X587568Y-1593080D01*
G01X589618Y-1596954D01*
G01X591665Y-1600830D01*
G01X591665Y-1617193D01*
G01X589618Y-1621069D01*
G01X587568Y-1624942D01*
G01X583590Y-1628922D01*
G01X579615Y-1632897D01*
G01X575742Y-1634950D01*
G01X571866Y-1637000D01*
G01X554490Y-1637279D01*
G01X537116Y-1637558D01*
G01X536562Y-1672311D01*
G01X534513Y-1676184D01*
G01X532458Y-1680060D01*
G01X524507Y-1688015D01*
G01X520634Y-1690065D01*
G01X516758Y-1692120D01*
G37*
G36*
G01X296321Y-1636994D02*
G01X279961Y-1636994D01*
G01X276088Y-1634947D01*
G01X272212Y-1632897D01*
G01X268234Y-1628922D01*
G01X264259Y-1624942D01*
G01X262209Y-1621069D01*
G01X260157Y-1617193D01*
G01X259913Y-1572257D01*
G01X259667Y-1527322D01*
G01X242260Y-1527045D01*
G01X224854Y-1526766D01*
G01X220977Y-1524714D01*
G01X217104Y-1522664D01*
G01X213126Y-1518689D01*
G01X209151Y-1514709D01*
G01X207101Y-1510835D01*
G01X205054Y-1506959D01*
G01X205054Y-1490596D01*
G01X207101Y-1486720D01*
G01X209151Y-1482844D01*
G01X213126Y-1478867D01*
G01X217104Y-1474892D01*
G01X220977Y-1472839D01*
G01X224854Y-1470790D01*
G01X242270Y-1470510D01*
G01X259690Y-1470231D01*
G01X259923Y-1397739D01*
G01X260157Y-1325245D01*
G01X262209Y-1321369D01*
G01X264259Y-1317495D01*
G01X268234Y-1313515D01*
G01X272212Y-1309540D01*
G01X276088Y-1307490D01*
G01X279961Y-1305436D01*
G01X314406Y-1305278D01*
G01X348849Y-1305118D01*
G01X351005Y-1305791D01*
G01X353164Y-1306469D01*
G01X356174Y-1308009D01*
G01X359179Y-1309548D01*
G01X363157Y-1313520D01*
G01X367134Y-1317495D01*
G01X369181Y-1321369D01*
G01X371231Y-1325245D01*
G01X371231Y-1341608D01*
G01X369181Y-1345484D01*
G01X367134Y-1349360D01*
G01X363157Y-1353335D01*
G01X359179Y-1357312D01*
G01X355305Y-1359365D01*
G01X351429Y-1361415D01*
G01X333995Y-1361694D01*
G01X316558Y-1361973D01*
G01X316558Y-1525349D01*
G01X333995Y-1525626D01*
G01X351429Y-1525905D01*
G01X355305Y-1527957D01*
G01X359179Y-1530007D01*
G01X363157Y-1533987D01*
G01X367134Y-1537962D01*
G01X369181Y-1541838D01*
G01X371231Y-1545712D01*
G01X371231Y-1562075D01*
G01X369181Y-1565951D01*
G01X367134Y-1569827D01*
G01X363157Y-1573804D01*
G01X359179Y-1577779D01*
G01X355305Y-1579832D01*
G01X351429Y-1581884D01*
G01X334056Y-1582163D01*
G01X316685Y-1582440D01*
G01X316403Y-1599816D01*
G01X316126Y-1617193D01*
G01X314076Y-1621069D01*
G01X312024Y-1624942D01*
G01X308046Y-1628922D01*
G01X304071Y-1632897D01*
G01X300198Y-1634947D01*
G01X296321Y-1636994D01*
G37*
G36*
G01X-585417Y-1306299D02*
G01X-711995Y-1306299D01*
G01X-715869Y-1304247D01*
G01X-719745Y-1302197D01*
G01X-723722Y-1298217D01*
G01X-727697Y-1294242D01*
G01X-729747Y-1290366D01*
G01X-731799Y-1286492D01*
G01X-732079Y-1269114D01*
G01X-732356Y-1251737D01*
G01X-749729Y-1251458D01*
G01X-767103Y-1251181D01*
G01X-770979Y-1249131D01*
G01X-774852Y-1247076D01*
G01X-778830Y-1243101D01*
G01X-782805Y-1239126D01*
G01X-786910Y-1231374D01*
G01X-786910Y-1159894D01*
G01X-782805Y-1152141D01*
G01X-774852Y-1144189D01*
G01X-770979Y-1142202D01*
G01X-767103Y-1140219D01*
G01X-760217Y-1139960D01*
G01X-753328Y-1139703D01*
G01X-749010Y-1141115D01*
G01X-746003Y-1142655D01*
G01X-742993Y-1144194D01*
G01X-739018Y-1148169D01*
G01X-735040Y-1152141D01*
G01X-732991Y-1156017D01*
G01X-730938Y-1159894D01*
G01X-730661Y-1177270D01*
G01X-730385Y-1194648D01*
G01X-713008Y-1194925D01*
G01X-695635Y-1195202D01*
G01X-691759Y-1197254D01*
G01X-687885Y-1199304D01*
G01X-683910Y-1203282D01*
G01X-679933Y-1207259D01*
G01X-677880Y-1211133D01*
G01X-675830Y-1215009D01*
G01X-675554Y-1232421D01*
G01X-675274Y-1249830D01*
G01X-630347Y-1250074D01*
G01X-585417Y-1250318D01*
G01X-581543Y-1252370D01*
G01X-577667Y-1254425D01*
G01X-573689Y-1258400D01*
G01X-569714Y-1262375D01*
G01X-567667Y-1266251D01*
G01X-565617Y-1270127D01*
G01X-565617Y-1286492D01*
G01X-567667Y-1290366D01*
G01X-569714Y-1294242D01*
G01X-573689Y-1298217D01*
G01X-577667Y-1302197D01*
G01X-581543Y-1304247D01*
G01X-585417Y-1306299D01*
G37*
G36*
G01X-585417Y-1196063D02*
G01X-656887Y-1196063D01*
G01X-660761Y-1194011D01*
G01X-664637Y-1191961D01*
G01X-668614Y-1187983D01*
G01X-672589Y-1184006D01*
G01X-674639Y-1180130D01*
G01X-676692Y-1176256D01*
G01X-676971Y-1158880D01*
G01X-677248Y-1141504D01*
G01X-711995Y-1140945D01*
G01X-715869Y-1138895D01*
G01X-719745Y-1136843D01*
G01X-723722Y-1132868D01*
G01X-727697Y-1128890D01*
G01X-729747Y-1125014D01*
G01X-731794Y-1121138D01*
G01X-731794Y-1104776D01*
G01X-729747Y-1100899D01*
G01X-727697Y-1097026D01*
G01X-723722Y-1093048D01*
G01X-719745Y-1089071D01*
G01X-715869Y-1087018D01*
G01X-711995Y-1084969D01*
G01X-594888Y-1084819D01*
G01X-477782Y-1084674D01*
G01X-475625Y-1085337D01*
G01X-473469Y-1085997D01*
G01X-470459Y-1087539D01*
G01X-467451Y-1089078D01*
G01X-463474Y-1093051D01*
G01X-459499Y-1097026D01*
G01X-457449Y-1100899D01*
G01X-455402Y-1104776D01*
G01X-455402Y-1121138D01*
G01X-457449Y-1125014D01*
G01X-459499Y-1128890D01*
G01X-463474Y-1132868D01*
G01X-467451Y-1136843D01*
G01X-471325Y-1138895D01*
G01X-475201Y-1140945D01*
G01X-520128Y-1141192D01*
G01X-565056Y-1141435D01*
G01X-565333Y-1158845D01*
G01X-565612Y-1176256D01*
G01X-567665Y-1180130D01*
G01X-569714Y-1184006D01*
G01X-573689Y-1187983D01*
G01X-577667Y-1191961D01*
G01X-581543Y-1194011D01*
G01X-585417Y-1196063D01*
G37*
G36*
G01X-475201Y-1416528D02*
G01X-491561Y-1416528D01*
G01X-495435Y-1414478D01*
G01X-499311Y-1412430D01*
G01X-503286Y-1408453D01*
G01X-507263Y-1404475D01*
G01X-509316Y-1400599D01*
G01X-511365Y-1396726D01*
G01X-511365Y-1325245D01*
G01X-509316Y-1321369D01*
G01X-507263Y-1317495D01*
G01X-503286Y-1313515D01*
G01X-499311Y-1309540D01*
G01X-495435Y-1307490D01*
G01X-491561Y-1305436D01*
G01X-474124Y-1305159D01*
G01X-456687Y-1304879D01*
G01X-456687Y-1251740D01*
G01X-474124Y-1251458D01*
G01X-491561Y-1251181D01*
G01X-495435Y-1249131D01*
G01X-499311Y-1247076D01*
G01X-503286Y-1243101D01*
G01X-507263Y-1239126D01*
G01X-509313Y-1235250D01*
G01X-511360Y-1231374D01*
G01X-511360Y-1215009D01*
G01X-509313Y-1211133D01*
G01X-507263Y-1207259D01*
G01X-503286Y-1203282D01*
G01X-499311Y-1199304D01*
G01X-495435Y-1197254D01*
G01X-491561Y-1195202D01*
G01X-474188Y-1194925D01*
G01X-456811Y-1194648D01*
G01X-456535Y-1177270D01*
G01X-456258Y-1159894D01*
G01X-454205Y-1156017D01*
G01X-452156Y-1152141D01*
G01X-448178Y-1148166D01*
G01X-444203Y-1144189D01*
G01X-440327Y-1142202D01*
G01X-436453Y-1140219D01*
G01X-429562Y-1139960D01*
G01X-422674Y-1139703D01*
G01X-420515Y-1140409D01*
G01X-418358Y-1141115D01*
G01X-412344Y-1144194D01*
G01X-408366Y-1148169D01*
G01X-404391Y-1152141D01*
G01X-400286Y-1159894D01*
G01X-400286Y-1341608D01*
G01X-404391Y-1349360D01*
G01X-412344Y-1357312D01*
G01X-416217Y-1359365D01*
G01X-420093Y-1361415D01*
G01X-437467Y-1361694D01*
G01X-454840Y-1361971D01*
G01X-455117Y-1379350D01*
G01X-455397Y-1396726D01*
G01X-457446Y-1400599D01*
G01X-459499Y-1404475D01*
G01X-463474Y-1408453D01*
G01X-467451Y-1412430D01*
G01X-471325Y-1414478D01*
G01X-475201Y-1416528D01*
G37*
G36*
G01X-640527Y-1692120D02*
G01X-767103Y-1692120D01*
G01X-770979Y-1690065D01*
G01X-774852Y-1688015D01*
G01X-778830Y-1684038D01*
G01X-782805Y-1680060D01*
G01X-784855Y-1676184D01*
G01X-786905Y-1672311D01*
G01X-786905Y-1655948D01*
G01X-782805Y-1648196D01*
G01X-774852Y-1640243D01*
G01X-770979Y-1638191D01*
G01X-767103Y-1636138D01*
G01X-749696Y-1635862D01*
G01X-732290Y-1635582D01*
G01X-732046Y-1590647D01*
G01X-731799Y-1545712D01*
G01X-729747Y-1541838D01*
G01X-727697Y-1537962D01*
G01X-723722Y-1533987D01*
G01X-719745Y-1530007D01*
G01X-715869Y-1528023D01*
G01X-711995Y-1526040D01*
G01X-705109Y-1525781D01*
G01X-698218Y-1525524D01*
G01X-696059Y-1526230D01*
G01X-693903Y-1526936D01*
G01X-690895Y-1528475D01*
G01X-687885Y-1530015D01*
G01X-683910Y-1533990D01*
G01X-679933Y-1537962D01*
G01X-677880Y-1541838D01*
G01X-675830Y-1545712D01*
G01X-675343Y-1635582D01*
G01X-657934Y-1635862D01*
G01X-640527Y-1636138D01*
G01X-636651Y-1638191D01*
G01X-632777Y-1640243D01*
G01X-628802Y-1644221D01*
G01X-624825Y-1648196D01*
G01X-622775Y-1652072D01*
G01X-620728Y-1655948D01*
G01X-620728Y-1672311D01*
G01X-622775Y-1676184D01*
G01X-624825Y-1680060D01*
G01X-628802Y-1684038D01*
G01X-632777Y-1688015D01*
G01X-636651Y-1690065D01*
G01X-640527Y-1692120D01*
G37*
G36*
G01X359179Y-916376D02*
G01X355305Y-918423D01*
G01X351429Y-920473D01*
G01X335069Y-920473D01*
G01X331196Y-918423D01*
G01X327320Y-916376D01*
G01X323345Y-912398D01*
G01X319367Y-908421D01*
G01X317317Y-904547D01*
G01X315265Y-900671D01*
G01X314988Y-883295D01*
G01X314709Y-865916D01*
G01X297335Y-865640D01*
G01X279961Y-865360D01*
G01X276088Y-863310D01*
G01X272212Y-861258D01*
G01X264259Y-853305D01*
G01X262209Y-849429D01*
G01X260157Y-845553D01*
G01X259878Y-828175D01*
G01X259601Y-810798D01*
G01X224854Y-810245D01*
G01X220977Y-808192D01*
G01X217104Y-806140D01*
G01X209151Y-798187D01*
G01X207101Y-794311D01*
G01X205054Y-790438D01*
G01X205054Y-774073D01*
G01X207101Y-770197D01*
G01X209151Y-766321D01*
G01X217104Y-758368D01*
G01X220977Y-756315D01*
G01X224854Y-754266D01*
G01X259296Y-754103D01*
G01X293738Y-753946D01*
G01X295897Y-754621D01*
G01X298054Y-755294D01*
G01X301064Y-756834D01*
G01X304071Y-758375D01*
G01X308046Y-762348D01*
G01X312024Y-766321D01*
G01X314076Y-770197D01*
G01X316126Y-774073D01*
G01X316403Y-791451D01*
G01X316685Y-808827D01*
G01X334056Y-809104D01*
G01X351429Y-809381D01*
G01X355305Y-811433D01*
G01X359179Y-813486D01*
G01X363157Y-817463D01*
G01X367134Y-821439D01*
G01X369184Y-825315D01*
G01X371234Y-829188D01*
G01X371234Y-900671D01*
G01X369184Y-904547D01*
G01X367134Y-908421D01*
G01X359179Y-916376D01*
G37*
G36*
G01X351429Y-755119D02*
G01X335069Y-755119D01*
G01X331196Y-753072D01*
G01X327320Y-751022D01*
G01X319367Y-743069D01*
G01X317317Y-739193D01*
G01X315265Y-735317D01*
G01X314985Y-717908D01*
G01X314709Y-700499D01*
G01X269781Y-700255D01*
G01X224854Y-700009D01*
G01X220977Y-697956D01*
G01X217104Y-695907D01*
G01X213126Y-691929D01*
G01X209151Y-687951D01*
G01X207101Y-684075D01*
G01X205054Y-680202D01*
G01X205054Y-663839D01*
G01X207101Y-659963D01*
G01X209151Y-656087D01*
G01X217104Y-648134D01*
G01X220977Y-646082D01*
G01X224854Y-644030D01*
G01X242227Y-643753D01*
G01X259601Y-643473D01*
G01X259878Y-626097D01*
G01X260157Y-608721D01*
G01X262209Y-604845D01*
G01X264259Y-600972D01*
G01X268234Y-596994D01*
G01X272212Y-593016D01*
G01X276088Y-590964D01*
G01X279961Y-588914D01*
G01X314406Y-588754D01*
G01X348849Y-588594D01*
G01X351005Y-589270D01*
G01X353164Y-589945D01*
G01X356174Y-591485D01*
G01X359179Y-593024D01*
G01X363157Y-596997D01*
G01X367134Y-600972D01*
G01X369184Y-604845D01*
G01X371234Y-608721D01*
G01X371234Y-735317D01*
G01X367134Y-743069D01*
G01X363157Y-747047D01*
G01X359179Y-751022D01*
G01X355305Y-753072D01*
G01X351429Y-755119D01*
G37*
G36*
G01X130995Y-1030707D02*
G01X114635Y-1030707D01*
G01X110759Y-1028659D01*
G01X106886Y-1026610D01*
G01X102908Y-1022632D01*
G01X98933Y-1018654D01*
G01X96881Y-1014781D01*
G01X94831Y-1010905D01*
G01X94552Y-993529D01*
G01X94275Y-976152D01*
G01X76901Y-975873D01*
G01X59525Y-975596D01*
G01X55651Y-973544D01*
G01X51775Y-971492D01*
G01X47800Y-967514D01*
G01X43823Y-963539D01*
G01X41775Y-959663D01*
G01X39726Y-955787D01*
G01X39726Y-939424D01*
G01X41775Y-935551D01*
G01X43823Y-931675D01*
G01X47800Y-927697D01*
G01X51775Y-923719D01*
G01X55651Y-921669D01*
G01X59525Y-919617D01*
G01X76901Y-919338D01*
G01X94275Y-919061D01*
G01X94552Y-901685D01*
G01X94831Y-884309D01*
G01X96881Y-880433D01*
G01X98933Y-876557D01*
G01X102908Y-872579D01*
G01X106886Y-868604D01*
G01X110759Y-866618D01*
G01X114635Y-864631D01*
G01X128412Y-864118D01*
G01X132730Y-865530D01*
G01X135738Y-867070D01*
G01X138748Y-868611D01*
G01X142723Y-872584D01*
G01X146700Y-876557D01*
G01X148750Y-880433D01*
G01X150802Y-884309D01*
G01X150802Y-1010905D01*
G01X148750Y-1014781D01*
G01X146700Y-1018654D01*
G01X142723Y-1022632D01*
G01X138748Y-1026610D01*
G01X134871Y-1028659D01*
G01X130995Y-1030707D01*
G37*
G36*
G01X296321Y-975596D02*
G01X224854Y-975596D01*
G01X220977Y-973544D01*
G01X217104Y-971492D01*
G01X209151Y-963539D01*
G01X207099Y-959663D01*
G01X205049Y-955787D01*
G01X205049Y-884309D01*
G01X207099Y-880433D01*
G01X209151Y-876557D01*
G01X213126Y-872579D01*
G01X217104Y-868604D01*
G01X220977Y-866618D01*
G01X224854Y-864631D01*
G01X231739Y-864375D01*
G01X238630Y-864118D01*
G01X240787Y-864824D01*
G01X242946Y-865530D01*
G01X245953Y-867070D01*
G01X248963Y-868611D01*
G01X252938Y-872584D01*
G01X256916Y-876557D01*
G01X258968Y-880433D01*
G01X261018Y-884309D01*
G01X261295Y-901685D01*
G01X261574Y-919061D01*
G01X278948Y-919338D01*
G01X296321Y-919617D01*
G01X300198Y-921669D01*
G01X304071Y-923719D01*
G01X308046Y-927697D01*
G01X312024Y-931675D01*
G01X314074Y-935551D01*
G01X316121Y-939424D01*
G01X316121Y-955787D01*
G01X314074Y-959663D01*
G01X312024Y-963539D01*
G01X308046Y-967514D01*
G01X304071Y-971492D01*
G01X300198Y-973544D01*
G01X296321Y-975596D01*
G37*
G36*
G01X-585417Y-1030712D02*
G01X-711995Y-1030712D01*
G01X-715869Y-1028662D01*
G01X-719745Y-1026610D01*
G01X-723722Y-1022632D01*
G01X-727697Y-1018654D01*
G01X-729747Y-1014781D01*
G01X-731794Y-1010905D01*
G01X-731794Y-994542D01*
G01X-729747Y-990666D01*
G01X-727697Y-986790D01*
G01X-723722Y-982812D01*
G01X-719745Y-978837D01*
G01X-715869Y-976785D01*
G01X-711995Y-974735D01*
G01X-649996Y-974580D01*
G01X-588002Y-974428D01*
G01X-585843Y-975098D01*
G01X-583684Y-975764D01*
G01X-580674Y-977306D01*
G01X-577667Y-978845D01*
G01X-573689Y-982817D01*
G01X-569714Y-986790D01*
G01X-567667Y-990666D01*
G01X-565617Y-994542D01*
G01X-565617Y-1010905D01*
G01X-567667Y-1014781D01*
G01X-569714Y-1018654D01*
G01X-573689Y-1022632D01*
G01X-577667Y-1026610D01*
G01X-581543Y-1028662D01*
G01X-585417Y-1030712D01*
G37*
G36*
G01X-695635Y-2077938D02*
G01X-767103Y-2077938D01*
G01X-770979Y-2075886D01*
G01X-774852Y-2073834D01*
G01X-778830Y-2069859D01*
G01X-782805Y-2065881D01*
G01X-786905Y-2058129D01*
G01X-786905Y-2041766D01*
G01X-784855Y-2037893D01*
G01X-782805Y-2034017D01*
G01X-778830Y-2030042D01*
G01X-774852Y-2026061D01*
G01X-770979Y-2024012D01*
G01X-767103Y-2021959D01*
G01X-732663Y-2021799D01*
G01X-698218Y-2021639D01*
G01X-696059Y-2022315D01*
G01X-693903Y-2022991D01*
G01X-690895Y-2024530D01*
G01X-687885Y-2026069D01*
G01X-683910Y-2030044D01*
G01X-679933Y-2034017D01*
G01X-677883Y-2037893D01*
G01X-675836Y-2041766D01*
G01X-675836Y-2058129D01*
G01X-677883Y-2062005D01*
G01X-679933Y-2065881D01*
G01X-687885Y-2073834D01*
G01X-691759Y-2075886D01*
G01X-695635Y-2077938D01*
G37*
G36*
G01X-585417Y-1526766D02*
G01X-656887Y-1526766D01*
G01X-660761Y-1524714D01*
G01X-664637Y-1522664D01*
G01X-668614Y-1518689D01*
G01X-672589Y-1514709D01*
G01X-674637Y-1510835D01*
G01X-676686Y-1506959D01*
G01X-676686Y-1490596D01*
G01X-674637Y-1486720D01*
G01X-672589Y-1482844D01*
G01X-668614Y-1478867D01*
G01X-664637Y-1474892D01*
G01X-660761Y-1472839D01*
G01X-656887Y-1470790D01*
G01X-622442Y-1470630D01*
G01X-588002Y-1470469D01*
G01X-585843Y-1471145D01*
G01X-583684Y-1471818D01*
G01X-580674Y-1473360D01*
G01X-577667Y-1474899D01*
G01X-573689Y-1478872D01*
G01X-569714Y-1482844D01*
G01X-567667Y-1486720D01*
G01X-565617Y-1490596D01*
G01X-565617Y-1506959D01*
G01X-567667Y-1510835D01*
G01X-569714Y-1514709D01*
G01X-573689Y-1518689D01*
G01X-577667Y-1522664D01*
G01X-581543Y-1524714D01*
G01X-585417Y-1526766D01*
G37*
G36*
G01X-309872Y-700004D02*
G01X-326235Y-700004D01*
G01X-330109Y-697954D01*
G01X-333982Y-695907D01*
G01X-337960Y-691929D01*
G01X-341935Y-687951D01*
G01X-343987Y-684075D01*
G01X-346039Y-680202D01*
G01X-346039Y-608721D01*
G01X-343987Y-604845D01*
G01X-341935Y-600972D01*
G01X-337960Y-596994D01*
G01X-333982Y-593016D01*
G01X-326235Y-589049D01*
G01X-312458Y-588531D01*
G01X-310299Y-589239D01*
G01X-308140Y-589945D01*
G01X-305133Y-591485D01*
G01X-302123Y-593024D01*
G01X-298148Y-596997D01*
G01X-294170Y-600972D01*
G01X-292120Y-604845D01*
G01X-290068Y-608721D01*
G01X-290068Y-680202D01*
G01X-292120Y-684075D01*
G01X-294170Y-687951D01*
G01X-298148Y-691929D01*
G01X-302123Y-695907D01*
G01X-305999Y-697954D01*
G01X-309872Y-700004D01*
G37*
G36*
G01X-750743Y-1857464D02*
G01X-767103Y-1857464D01*
G01X-770979Y-1855417D01*
G01X-774852Y-1853367D01*
G01X-782805Y-1845414D01*
G01X-786910Y-1837662D01*
G01X-786910Y-1766184D01*
G01X-782805Y-1758432D01*
G01X-778830Y-1754454D01*
G01X-774852Y-1750479D01*
G01X-770979Y-1748490D01*
G01X-767103Y-1746507D01*
G01X-760217Y-1746250D01*
G01X-753328Y-1745993D01*
G01X-751169Y-1746697D01*
G01X-749010Y-1747406D01*
G01X-746003Y-1748945D01*
G01X-742993Y-1750484D01*
G01X-739018Y-1754459D01*
G01X-735040Y-1758432D01*
G01X-732991Y-1762308D01*
G01X-730938Y-1766184D01*
G01X-730938Y-1837662D01*
G01X-732991Y-1841538D01*
G01X-735040Y-1845414D01*
G01X-739018Y-1849389D01*
G01X-742993Y-1853367D01*
G01X-746869Y-1855417D01*
G01X-750743Y-1857464D01*
G37*
G36*
G01X186106Y-644886D02*
G01X169746Y-644886D01*
G01X165870Y-642838D01*
G01X161996Y-640789D01*
G01X158018Y-636814D01*
G01X154043Y-632836D01*
G01X151991Y-628960D01*
G01X149941Y-625084D01*
G01X149941Y-553606D01*
G01X151991Y-549730D01*
G01X154043Y-545854D01*
G01X158018Y-541876D01*
G01X161996Y-537898D01*
G01X165870Y-535915D01*
G01X169746Y-533928D01*
G01X176632Y-533672D01*
G01X183520Y-533415D01*
G01X185679Y-534119D01*
G01X187838Y-534827D01*
G01X190845Y-536367D01*
G01X193855Y-537906D01*
G01X197830Y-541881D01*
G01X201808Y-545854D01*
G01X203858Y-549730D01*
G01X205910Y-553606D01*
G01X205910Y-625084D01*
G01X203858Y-628960D01*
G01X201808Y-632836D01*
G01X193855Y-640789D01*
G01X189979Y-642838D01*
G01X186106Y-644886D01*
G37*
G36*
G01X-247015Y-1026521D02*
G01X-250891Y-1028601D01*
G01X-254765Y-1030684D01*
G01X-271125Y-1030684D01*
G01X-275001Y-1028601D01*
G01X-278874Y-1026521D01*
G01X-286741Y-1018654D01*
G01X-288821Y-1014781D01*
G01X-290901Y-1010905D01*
G01X-290901Y-994542D01*
G01X-286741Y-986790D01*
G01X-282806Y-982858D01*
G01X-278874Y-978926D01*
G01X-275001Y-976907D01*
G01X-271125Y-974893D01*
G01X-264239Y-974616D01*
G01X-257348Y-974336D01*
G01X-256057Y-974806D01*
G01X-254765Y-975274D01*
G01X-250891Y-977080D01*
G01X-247015Y-978888D01*
G01X-243083Y-982840D01*
G01X-239151Y-986790D01*
G01X-237071Y-990666D01*
G01X-234988Y-994542D01*
G01X-234988Y-1010905D01*
G01X-237071Y-1014781D01*
G01X-239151Y-1018654D01*
G01X-243083Y-1022589D01*
G01X-247015Y-1026521D01*
G37*
G36*
G01X-467451Y-1026521D02*
G01X-471325Y-1028601D01*
G01X-475201Y-1030684D01*
G01X-491561Y-1030684D01*
G01X-495435Y-1028601D01*
G01X-499311Y-1026521D01*
G01X-503243Y-1022589D01*
G01X-507174Y-1018654D01*
G01X-509255Y-1014781D01*
G01X-511338Y-1010905D01*
G01X-511338Y-994542D01*
G01X-509255Y-990666D01*
G01X-507174Y-986790D01*
G01X-499311Y-978926D01*
G01X-495435Y-976907D01*
G01X-491561Y-974893D01*
G01X-484673Y-974616D01*
G01X-477782Y-974336D01*
G01X-476491Y-974806D01*
G01X-475201Y-975274D01*
G01X-471325Y-977080D01*
G01X-467451Y-978888D01*
G01X-463520Y-982840D01*
G01X-459585Y-986790D01*
G01X-455425Y-994542D01*
G01X-455425Y-1010905D01*
G01X-457505Y-1014781D01*
G01X-459585Y-1018654D01*
G01X-467451Y-1026521D01*
G37*
G36*
G01X-687885Y-1412342D02*
G01X-691759Y-1414422D01*
G01X-695635Y-1416505D01*
G01X-711995Y-1416505D01*
G01X-715869Y-1414422D01*
G01X-719745Y-1412342D01*
G01X-727611Y-1404475D01*
G01X-729691Y-1400599D01*
G01X-731771Y-1396726D01*
G01X-731771Y-1380363D01*
G01X-727611Y-1372611D01*
G01X-723676Y-1368679D01*
G01X-719745Y-1364745D01*
G01X-715869Y-1362728D01*
G01X-711995Y-1360714D01*
G01X-705109Y-1360434D01*
G01X-698218Y-1360157D01*
G01X-696925Y-1360627D01*
G01X-695635Y-1361095D01*
G01X-691759Y-1362900D01*
G01X-687885Y-1364709D01*
G01X-683953Y-1368659D01*
G01X-680021Y-1372611D01*
G01X-677941Y-1376487D01*
G01X-675858Y-1380363D01*
G01X-675858Y-1396726D01*
G01X-677941Y-1400599D01*
G01X-680021Y-1404475D01*
G01X-683953Y-1408410D01*
G01X-687885Y-1412342D01*
G37*
G36*
G01X-467451Y-1522575D02*
G01X-471325Y-1524658D01*
G01X-475201Y-1526738D01*
G01X-491561Y-1526738D01*
G01X-495435Y-1524658D01*
G01X-499311Y-1522575D01*
G01X-503243Y-1518643D01*
G01X-507174Y-1514709D01*
G01X-509255Y-1510835D01*
G01X-511338Y-1506959D01*
G01X-511338Y-1490596D01*
G01X-509255Y-1486720D01*
G01X-507174Y-1482844D01*
G01X-499311Y-1474981D01*
G01X-495435Y-1472961D01*
G01X-491561Y-1470947D01*
G01X-484673Y-1470670D01*
G01X-477782Y-1470391D01*
G01X-476491Y-1470861D01*
G01X-475201Y-1471328D01*
G01X-471325Y-1473134D01*
G01X-467451Y-1474942D01*
G01X-463520Y-1478895D01*
G01X-459585Y-1482844D01*
G01X-455425Y-1490596D01*
G01X-455425Y-1506959D01*
G01X-457505Y-1510835D01*
G01X-459585Y-1514709D01*
G01X-467451Y-1522575D01*
G37*
G36*
G01X689834Y-1632811D02*
G01X685957Y-1634891D01*
G01X682084Y-1636972D01*
G01X665724Y-1636972D01*
G01X661848Y-1634891D01*
G01X657974Y-1632811D01*
G01X654042Y-1628877D01*
G01X650108Y-1624942D01*
G01X648028Y-1621069D01*
G01X645947Y-1617193D01*
G01X645947Y-1600830D01*
G01X648028Y-1596954D01*
G01X650108Y-1593080D01*
G01X657974Y-1585214D01*
G01X661848Y-1583197D01*
G01X665724Y-1581180D01*
G01X672610Y-1580904D01*
G01X679498Y-1580627D01*
G01X680794Y-1581094D01*
G01X682084Y-1581564D01*
G01X685957Y-1583370D01*
G01X689834Y-1585176D01*
G01X697697Y-1593080D01*
G01X699778Y-1596954D01*
G01X701860Y-1600830D01*
G01X701860Y-1617193D01*
G01X699778Y-1621069D01*
G01X697697Y-1624942D01*
G01X689834Y-1632811D01*
G37*
G36*
G01X304071Y-2128865D02*
G01X300198Y-2130946D01*
G01X296321Y-2133026D01*
G01X279961Y-2133026D01*
G01X276088Y-2130946D01*
G01X272212Y-2128865D01*
G01X268280Y-2124934D01*
G01X264348Y-2120997D01*
G01X262265Y-2117123D01*
G01X260185Y-2113247D01*
G01X260185Y-2096884D01*
G01X262265Y-2093008D01*
G01X264348Y-2089132D01*
G01X272212Y-2081268D01*
G01X276088Y-2079252D01*
G01X279961Y-2077237D01*
G01X286852Y-2076961D01*
G01X293738Y-2076681D01*
G01X295031Y-2077148D01*
G01X296321Y-2077616D01*
G01X300198Y-2079424D01*
G01X304071Y-2081230D01*
G01X308003Y-2085183D01*
G01X311935Y-2089132D01*
G01X314018Y-2093008D01*
G01X316098Y-2096884D01*
G01X316098Y-2113247D01*
G01X314018Y-2117123D01*
G01X311935Y-2120997D01*
G01X308003Y-2124934D01*
G01X304071Y-2128865D01*
G37*
G36*
G01X-191907Y-585584D02*
G01X-195781Y-587667D01*
G01X-199657Y-589745D01*
G01X-216017Y-589745D01*
G01X-219890Y-587667D01*
G01X-223766Y-585584D01*
G01X-227698Y-581650D01*
G01X-231630Y-577718D01*
G01X-233713Y-573842D01*
G01X-235793Y-569966D01*
G01X-235793Y-553606D01*
G01X-233713Y-549730D01*
G01X-231630Y-545854D01*
G01X-227698Y-541922D01*
G01X-223766Y-537987D01*
G01X-219890Y-535970D01*
G01X-216017Y-533954D01*
G01X-202240Y-533400D01*
G01X-200947Y-533870D01*
G01X-199657Y-534337D01*
G01X-195781Y-536143D01*
G01X-191907Y-537949D01*
G01X-184043Y-545854D01*
G01X-181963Y-549730D01*
G01X-179880Y-553606D01*
G01X-179880Y-569966D01*
G01X-181963Y-573842D01*
G01X-184043Y-577718D01*
G01X-187975Y-581650D01*
G01X-191907Y-585584D01*
G37*
G36*
G01X248963Y-1136754D02*
G01X245087Y-1138837D01*
G01X241214Y-1140917D01*
G01X224854Y-1140917D01*
G01X220977Y-1138837D01*
G01X217104Y-1136754D01*
G01X209240Y-1128890D01*
G01X207157Y-1125014D01*
G01X205077Y-1121138D01*
G01X205077Y-1104776D01*
G01X207157Y-1100899D01*
G01X209240Y-1097026D01*
G01X213172Y-1093092D01*
G01X217104Y-1089160D01*
G01X220977Y-1087143D01*
G01X224854Y-1085126D01*
G01X231739Y-1084849D01*
G01X238630Y-1084572D01*
G01X239923Y-1085040D01*
G01X241214Y-1085510D01*
G01X245087Y-1087316D01*
G01X248963Y-1089122D01*
G01X256827Y-1097026D01*
G01X258907Y-1100899D01*
G01X260990Y-1104776D01*
G01X260990Y-1121138D01*
G01X258907Y-1125014D01*
G01X256827Y-1128890D01*
G01X248963Y-1136754D01*
G37*
G36*
G01X248963Y-1302108D02*
G01X245087Y-1304188D01*
G01X241214Y-1306269D01*
G01X224854Y-1306269D01*
G01X220977Y-1304188D01*
G01X217104Y-1302108D01*
G01X213172Y-1298174D01*
G01X209240Y-1294242D01*
G01X207157Y-1290366D01*
G01X205077Y-1286492D01*
G01X205077Y-1270127D01*
G01X207157Y-1266251D01*
G01X209240Y-1262375D01*
G01X217104Y-1254511D01*
G01X220977Y-1252494D01*
G01X224854Y-1250480D01*
G01X231739Y-1250201D01*
G01X238630Y-1249924D01*
G01X239923Y-1250391D01*
G01X241214Y-1250859D01*
G01X245087Y-1252667D01*
G01X248963Y-1254473D01*
G01X252895Y-1258423D01*
G01X256827Y-1262375D01*
G01X258907Y-1266251D01*
G01X260990Y-1270127D01*
G01X260990Y-1286492D01*
G01X258907Y-1290366D01*
G01X256827Y-1294242D01*
G01X252895Y-1298174D01*
G01X248963Y-1302108D01*
G37*
G36*
G01X-522559Y-1467460D02*
G01X-526435Y-1469537D01*
G01X-530309Y-1471620D01*
G01X-546669Y-1471620D01*
G01X-550545Y-1469537D01*
G01X-554418Y-1467460D01*
G01X-558350Y-1463525D01*
G01X-562282Y-1459593D01*
G01X-564363Y-1455717D01*
G01X-566445Y-1451841D01*
G01X-566445Y-1435478D01*
G01X-564363Y-1431605D01*
G01X-562282Y-1427729D01*
G01X-558350Y-1423794D01*
G01X-554418Y-1419863D01*
G01X-550545Y-1417846D01*
G01X-546669Y-1415829D01*
G01X-532892Y-1415275D01*
G01X-531599Y-1415743D01*
G01X-530309Y-1416213D01*
G01X-526435Y-1418016D01*
G01X-522559Y-1419824D01*
G01X-514695Y-1427729D01*
G01X-512613Y-1431605D01*
G01X-510532Y-1435478D01*
G01X-510532Y-1451841D01*
G01X-512613Y-1455717D01*
G01X-514695Y-1459593D01*
G01X-518627Y-1463525D01*
G01X-522559Y-1467460D01*
G37*
G36*
G01X469397Y-1026521D02*
G01X465521Y-1028601D01*
G01X461648Y-1030684D01*
G01X445287Y-1030684D01*
G01X441411Y-1028601D01*
G01X437538Y-1026521D01*
G01X433606Y-1022589D01*
G01X429674Y-1018654D01*
G01X427594Y-1014781D01*
G01X425514Y-1010905D01*
G01X425514Y-994542D01*
G01X429674Y-986790D01*
G01X437538Y-978926D01*
G01X441411Y-976907D01*
G01X445287Y-974893D01*
G01X452176Y-974616D01*
G01X459064Y-974336D01*
G01X460357Y-974806D01*
G01X461648Y-975274D01*
G01X465521Y-977080D01*
G01X469397Y-978888D01*
G01X473332Y-982840D01*
G01X477263Y-986790D01*
G01X481424Y-994542D01*
G01X481424Y-1010905D01*
G01X479344Y-1014781D01*
G01X477263Y-1018654D01*
G01X473332Y-1022589D01*
G01X469397Y-1026521D01*
G37*
G36*
G01X-81689Y-1522575D02*
G01X-85565Y-1524658D01*
G01X-89438Y-1526738D01*
G01X-105799Y-1526738D01*
G01X-109675Y-1524658D01*
G01X-113548Y-1522575D01*
G01X-117483Y-1518643D01*
G01X-121415Y-1514709D01*
G01X-123492Y-1510835D01*
G01X-125575Y-1506959D01*
G01X-125575Y-1490596D01*
G01X-123492Y-1486720D01*
G01X-121415Y-1482844D01*
G01X-117483Y-1478912D01*
G01X-113548Y-1474981D01*
G01X-109675Y-1472961D01*
G01X-105799Y-1470947D01*
G01X-98910Y-1470670D01*
G01X-92022Y-1470391D01*
G01X-90731Y-1470861D01*
G01X-89438Y-1471328D01*
G01X-85565Y-1473134D01*
G01X-81689Y-1474942D01*
G01X-77757Y-1478895D01*
G01X-73825Y-1482844D01*
G01X-71742Y-1486720D01*
G01X-69665Y-1490596D01*
G01X-69665Y-1506959D01*
G01X-71742Y-1510835D01*
G01X-73825Y-1514709D01*
G01X-77757Y-1518643D01*
G01X-81689Y-1522575D01*
G37*
G36*
G01X744941Y-1687929D02*
G01X741068Y-1690009D01*
G01X737192Y-1692087D01*
G01X720832Y-1692087D01*
G01X716958Y-1690009D01*
G01X713082Y-1687929D01*
G01X705218Y-1680060D01*
G01X703136Y-1676184D01*
G01X701055Y-1672311D01*
G01X701055Y-1655948D01*
G01X703136Y-1652072D01*
G01X705218Y-1648196D01*
G01X709150Y-1644264D01*
G01X713082Y-1640329D01*
G01X716958Y-1638315D01*
G01X720832Y-1636298D01*
G01X734609Y-1635745D01*
G01X735902Y-1636212D01*
G01X737192Y-1636679D01*
G01X741068Y-1638488D01*
G01X744941Y-1640291D01*
G01X752805Y-1648196D01*
G01X754885Y-1652072D01*
G01X756968Y-1655948D01*
G01X756968Y-1672311D01*
G01X754885Y-1676184D01*
G01X752805Y-1680060D01*
G01X744941Y-1687929D01*
G37*
G36*
G01X248963Y-1687929D02*
G01X245087Y-1690009D01*
G01X241214Y-1692087D01*
G01X224854Y-1692087D01*
G01X220977Y-1690009D01*
G01X217104Y-1687929D01*
G01X209240Y-1680060D01*
G01X207157Y-1676184D01*
G01X205077Y-1672311D01*
G01X205077Y-1655948D01*
G01X207157Y-1652072D01*
G01X209240Y-1648196D01*
G01X213172Y-1644264D01*
G01X217104Y-1640329D01*
G01X220977Y-1638315D01*
G01X224854Y-1636298D01*
G01X231739Y-1636022D01*
G01X238630Y-1635745D01*
G01X239923Y-1636212D01*
G01X241214Y-1636679D01*
G01X245087Y-1638488D01*
G01X248963Y-1640291D01*
G01X256827Y-1648196D01*
G01X258907Y-1652072D01*
G01X260990Y-1655948D01*
G01X260990Y-1672311D01*
G01X258907Y-1676184D01*
G01X256827Y-1680060D01*
G01X248963Y-1687929D01*
G37*
G36*
G01X193855Y-750936D02*
G01X189979Y-753016D01*
G01X186106Y-755096D01*
G01X169746Y-755096D01*
G01X165870Y-753016D01*
G01X161996Y-750936D01*
G01X158062Y-747004D01*
G01X154130Y-743069D01*
G01X149969Y-735317D01*
G01X149969Y-718955D01*
G01X152049Y-715079D01*
G01X154130Y-711205D01*
G01X158062Y-707271D01*
G01X161996Y-703339D01*
G01X165870Y-701324D01*
G01X169746Y-699305D01*
G01X176632Y-699028D01*
G01X183520Y-698751D01*
G01X184813Y-699219D01*
G01X186106Y-699689D01*
G01X189979Y-701495D01*
G01X193855Y-703301D01*
G01X201719Y-711205D01*
G01X203799Y-715079D01*
G01X205880Y-718955D01*
G01X205880Y-735317D01*
G01X201719Y-743069D01*
G01X197787Y-747004D01*
G01X193855Y-750936D01*
G37*
G36*
G01X800049Y-1081639D02*
G01X796176Y-1083719D01*
G01X792300Y-1085799D01*
G01X775940Y-1085799D01*
G01X772066Y-1083719D01*
G01X768190Y-1081639D01*
G01X764258Y-1077704D01*
G01X760326Y-1073772D01*
G01X758243Y-1069896D01*
G01X756166Y-1066020D01*
G01X756166Y-1049660D01*
G01X758243Y-1045784D01*
G01X760326Y-1041908D01*
G01X764258Y-1037976D01*
G01X768190Y-1034042D01*
G01X772066Y-1032025D01*
G01X775940Y-1030008D01*
G01X782831Y-1029731D01*
G01X789716Y-1029454D01*
G01X791009Y-1029922D01*
G01X792300Y-1030392D01*
G01X796176Y-1032198D01*
G01X800049Y-1034004D01*
G01X803981Y-1037956D01*
G01X807916Y-1041908D01*
G01X812076Y-1049660D01*
G01X812076Y-1066020D01*
G01X807916Y-1073772D01*
G01X803981Y-1077704D01*
G01X800049Y-1081639D01*
G37*
G36*
G01X524507Y-1081639D02*
G01X520634Y-1083719D01*
G01X516758Y-1085799D01*
G01X500395Y-1085799D01*
G01X496522Y-1083719D01*
G01X492646Y-1081639D01*
G01X488714Y-1077704D01*
G01X484782Y-1073772D01*
G01X480621Y-1066020D01*
G01X480621Y-1049660D01*
G01X484782Y-1041908D01*
G01X488714Y-1037976D01*
G01X492646Y-1034042D01*
G01X496522Y-1032025D01*
G01X500395Y-1030008D01*
G01X507284Y-1029731D01*
G01X514175Y-1029454D01*
G01X515465Y-1029922D01*
G01X516758Y-1030392D01*
G01X520634Y-1032198D01*
G01X524507Y-1034004D01*
G01X532371Y-1041908D01*
G01X536532Y-1049660D01*
G01X536532Y-1066020D01*
G01X532371Y-1073772D01*
G01X528439Y-1077704D01*
G01X524507Y-1081639D01*
G37*
G36*
G01X414289Y-1081639D02*
G01X410413Y-1083719D01*
G01X406540Y-1085799D01*
G01X390180Y-1085799D01*
G01X386304Y-1083719D01*
G01X382430Y-1081639D01*
G01X378498Y-1077704D01*
G01X374564Y-1073772D01*
G01X372486Y-1069896D01*
G01X370403Y-1066020D01*
G01X370403Y-1049660D01*
G01X372486Y-1045784D01*
G01X374564Y-1041908D01*
G01X378498Y-1037976D01*
G01X382430Y-1034042D01*
G01X386304Y-1032025D01*
G01X390180Y-1030008D01*
G01X403957Y-1029454D01*
G01X405247Y-1029922D01*
G01X406540Y-1030392D01*
G01X410413Y-1032198D01*
G01X414289Y-1034004D01*
G01X418221Y-1037956D01*
G01X422156Y-1041908D01*
G01X424236Y-1045784D01*
G01X426314Y-1049660D01*
G01X426314Y-1066020D01*
G01X424236Y-1069896D01*
G01X422156Y-1073772D01*
G01X418221Y-1077704D01*
G01X414289Y-1081639D01*
G37*
G36*
G01X469397Y-1136754D02*
G01X465521Y-1138837D01*
G01X461648Y-1140917D01*
G01X445287Y-1140917D01*
G01X441411Y-1138837D01*
G01X437538Y-1136754D01*
G01X429674Y-1128890D01*
G01X425514Y-1121138D01*
G01X425514Y-1104776D01*
G01X427594Y-1100899D01*
G01X429674Y-1097026D01*
G01X433606Y-1093092D01*
G01X437538Y-1089160D01*
G01X441411Y-1087143D01*
G01X445287Y-1085126D01*
G01X459064Y-1084572D01*
G01X460357Y-1085040D01*
G01X461648Y-1085510D01*
G01X465521Y-1087316D01*
G01X469397Y-1089122D01*
G01X473332Y-1093074D01*
G01X477263Y-1097026D01*
G01X479344Y-1100899D01*
G01X481424Y-1104776D01*
G01X481424Y-1121138D01*
G01X477263Y-1128890D01*
G01X473332Y-1132822D01*
G01X469397Y-1136754D01*
G37*
G36*
G01X414289Y-1302108D02*
G01X410413Y-1304188D01*
G01X406540Y-1306269D01*
G01X390180Y-1306269D01*
G01X386304Y-1304188D01*
G01X382430Y-1302108D01*
G01X378498Y-1298174D01*
G01X374564Y-1294242D01*
G01X372486Y-1290366D01*
G01X370403Y-1286492D01*
G01X370403Y-1270127D01*
G01X372486Y-1266251D01*
G01X374564Y-1262375D01*
G01X378498Y-1258443D01*
G01X382430Y-1254511D01*
G01X386304Y-1252494D01*
G01X390180Y-1250480D01*
G01X397068Y-1250201D01*
G01X403957Y-1249924D01*
G01X405247Y-1250391D01*
G01X406540Y-1250859D01*
G01X410413Y-1252667D01*
G01X414289Y-1254473D01*
G01X418221Y-1258423D01*
G01X422156Y-1262375D01*
G01X424236Y-1266251D01*
G01X426314Y-1270127D01*
G01X426314Y-1286492D01*
G01X424236Y-1290366D01*
G01X422156Y-1294242D01*
G01X418221Y-1298174D01*
G01X414289Y-1302108D01*
G37*
G36*
G01X193855Y-1632811D02*
G01X189979Y-1634891D01*
G01X186106Y-1636972D01*
G01X169746Y-1636972D01*
G01X165870Y-1634891D01*
G01X161996Y-1632811D01*
G01X158062Y-1628877D01*
G01X154130Y-1624942D01*
G01X152049Y-1621069D01*
G01X149969Y-1617193D01*
G01X149969Y-1600830D01*
G01X152049Y-1596954D01*
G01X154130Y-1593080D01*
G01X158062Y-1589146D01*
G01X161996Y-1585214D01*
G01X165870Y-1583197D01*
G01X169746Y-1581180D01*
G01X176632Y-1580904D01*
G01X183520Y-1580627D01*
G01X184813Y-1581094D01*
G01X186106Y-1581564D01*
G01X189979Y-1583370D01*
G01X193855Y-1585176D01*
G01X201719Y-1593080D01*
G01X203799Y-1596954D01*
G01X205880Y-1600830D01*
G01X205880Y-1617193D01*
G01X203799Y-1621069D01*
G01X201719Y-1624942D01*
G01X193855Y-1632811D01*
G37*
G36*
G01X-577667Y-1632811D02*
G01X-581543Y-1634891D01*
G01X-585417Y-1636972D01*
G01X-601777Y-1636972D01*
G01X-605653Y-1634891D01*
G01X-609526Y-1632811D01*
G01X-613461Y-1628877D01*
G01X-617393Y-1624942D01*
G01X-619473Y-1621069D01*
G01X-621553Y-1617193D01*
G01X-621553Y-1600830D01*
G01X-619473Y-1596954D01*
G01X-617393Y-1593080D01*
G01X-613461Y-1589146D01*
G01X-609526Y-1585214D01*
G01X-605653Y-1583197D01*
G01X-601777Y-1581180D01*
G01X-594888Y-1580904D01*
G01X-588002Y-1580627D01*
G01X-586710Y-1581094D01*
G01X-585417Y-1581564D01*
G01X-581543Y-1583370D01*
G01X-577667Y-1585176D01*
G01X-569803Y-1593080D01*
G01X-567720Y-1596954D01*
G01X-565643Y-1600830D01*
G01X-565643Y-1617193D01*
G01X-567720Y-1621069D01*
G01X-569803Y-1624942D01*
G01X-577667Y-1632811D01*
G37*
G36*
G01X-136799Y-1577693D02*
G01X-140673Y-1579773D01*
G01X-144549Y-1581854D01*
G01X-160909Y-1581854D01*
G01X-164782Y-1579773D01*
G01X-168659Y-1577693D01*
G01X-172590Y-1573759D01*
G01X-176522Y-1569827D01*
G01X-178605Y-1565951D01*
G01X-180683Y-1562075D01*
G01X-180683Y-1545712D01*
G01X-178605Y-1541838D01*
G01X-176522Y-1537962D01*
G01X-172590Y-1534030D01*
G01X-168659Y-1530096D01*
G01X-164782Y-1528082D01*
G01X-160909Y-1526062D01*
G01X-154018Y-1525786D01*
G01X-147132Y-1525509D01*
G01X-145839Y-1525976D01*
G01X-144549Y-1526446D01*
G01X-140673Y-1528254D01*
G01X-136799Y-1530058D01*
G01X-132865Y-1534010D01*
G01X-128933Y-1537962D01*
G01X-126853Y-1541838D01*
G01X-124772Y-1545712D01*
G01X-124772Y-1562075D01*
G01X-128933Y-1569827D01*
G01X-136799Y-1577693D01*
G37*
G36*
G01X-632777Y-1853278D02*
G01X-636651Y-1855358D01*
G01X-640527Y-1857441D01*
G01X-656887Y-1857441D01*
G01X-660761Y-1855358D01*
G01X-664637Y-1853278D01*
G01X-672501Y-1845414D01*
G01X-674583Y-1841538D01*
G01X-676661Y-1837662D01*
G01X-676661Y-1821299D01*
G01X-674583Y-1817423D01*
G01X-672501Y-1813550D01*
G01X-664637Y-1805681D01*
G01X-660761Y-1803667D01*
G01X-656887Y-1801650D01*
G01X-649996Y-1801373D01*
G01X-643110Y-1801096D01*
G01X-641817Y-1801564D01*
G01X-640527Y-1802031D01*
G01X-636651Y-1803837D01*
G01X-632777Y-1805645D01*
G01X-628846Y-1809598D01*
G01X-624911Y-1813550D01*
G01X-622833Y-1817423D01*
G01X-620751Y-1821299D01*
G01X-620751Y-1837662D01*
G01X-622833Y-1841538D01*
G01X-624911Y-1845414D01*
G01X-628846Y-1849346D01*
G01X-632777Y-1853278D01*
G37*
G36*
G01X-632777Y-2128865D02*
G01X-636651Y-2130946D01*
G01X-640527Y-2133026D01*
G01X-656887Y-2133026D01*
G01X-660761Y-2130946D01*
G01X-664637Y-2128865D01*
G01X-668569Y-2124934D01*
G01X-672501Y-2120997D01*
G01X-674583Y-2117123D01*
G01X-676661Y-2113247D01*
G01X-676661Y-2096884D01*
G01X-674583Y-2093008D01*
G01X-672501Y-2089132D01*
G01X-664637Y-2081268D01*
G01X-660761Y-2079252D01*
G01X-656887Y-2077237D01*
G01X-649996Y-2076961D01*
G01X-643110Y-2076681D01*
G01X-641817Y-2077148D01*
G01X-640527Y-2077616D01*
G01X-636651Y-2079424D01*
G01X-632777Y-2081230D01*
G01X-628846Y-2085183D01*
G01X-624911Y-2089132D01*
G01X-622833Y-2093008D01*
G01X-620751Y-2096884D01*
G01X-620751Y-2113247D01*
G01X-622833Y-2117123D01*
G01X-624911Y-2120997D01*
G01X-628846Y-2124934D01*
G01X-632777Y-2128865D01*
G37*
G36*
G01X-357233Y-1026521D02*
G01X-361107Y-1028601D01*
G01X-364983Y-1030684D01*
G01X-381343Y-1030684D01*
G01X-385219Y-1028601D01*
G01X-389095Y-1026521D01*
G01X-393027Y-1022589D01*
G01X-396959Y-1018654D01*
G01X-399039Y-1014781D01*
G01X-401117Y-1010905D01*
G01X-401117Y-994542D01*
G01X-399039Y-990666D01*
G01X-396959Y-986790D01*
G01X-389095Y-978926D01*
G01X-385219Y-976907D01*
G01X-381343Y-974893D01*
G01X-374454Y-974616D01*
G01X-367566Y-974336D01*
G01X-366276Y-974806D01*
G01X-364983Y-975274D01*
G01X-361107Y-977080D01*
G01X-357233Y-978888D01*
G01X-353299Y-982840D01*
G01X-349367Y-986790D01*
G01X-347289Y-990666D01*
G01X-345209Y-994542D01*
G01X-345209Y-1010905D01*
G01X-347289Y-1014781D01*
G01X-349367Y-1018654D01*
G01X-353299Y-1022589D01*
G01X-357233Y-1026521D01*
G37*
G36*
G01X469397Y-1246990D02*
G01X465521Y-1249070D01*
G01X461648Y-1251151D01*
G01X445287Y-1251151D01*
G01X441411Y-1249070D01*
G01X437538Y-1246990D01*
G01X429674Y-1239126D01*
G01X425514Y-1231374D01*
G01X425514Y-1215009D01*
G01X427594Y-1211133D01*
G01X429674Y-1207259D01*
G01X433606Y-1203325D01*
G01X437538Y-1199393D01*
G01X441411Y-1197376D01*
G01X445287Y-1195362D01*
G01X459064Y-1194808D01*
G01X460357Y-1195273D01*
G01X461648Y-1195743D01*
G01X465521Y-1197549D01*
G01X469397Y-1199355D01*
G01X473332Y-1203307D01*
G01X477263Y-1207259D01*
G01X479344Y-1211133D01*
G01X481424Y-1215009D01*
G01X481424Y-1231374D01*
G01X477263Y-1239126D01*
G01X473332Y-1243058D01*
G01X469397Y-1246990D01*
G37*
G36*
G01X469397Y-1357224D02*
G01X465521Y-1359304D01*
G01X461648Y-1361384D01*
G01X445287Y-1361384D01*
G01X441411Y-1359304D01*
G01X437538Y-1357224D01*
G01X429674Y-1349360D01*
G01X425514Y-1341608D01*
G01X425514Y-1325245D01*
G01X427594Y-1321369D01*
G01X429674Y-1317495D01*
G01X433606Y-1313558D01*
G01X437538Y-1309627D01*
G01X441411Y-1307612D01*
G01X445287Y-1305596D01*
G01X459064Y-1305042D01*
G01X460357Y-1305509D01*
G01X461648Y-1305977D01*
G01X465521Y-1307782D01*
G01X469397Y-1309591D01*
G01X473332Y-1313543D01*
G01X477263Y-1317495D01*
G01X479344Y-1321369D01*
G01X481424Y-1325245D01*
G01X481424Y-1341608D01*
G01X477263Y-1349360D01*
G01X473332Y-1353292D01*
G01X469397Y-1357224D01*
G37*
G36*
G01X-742993Y-1357224D02*
G01X-746869Y-1359304D01*
G01X-750743Y-1361384D01*
G01X-767103Y-1361384D01*
G01X-770979Y-1359304D01*
G01X-774852Y-1357224D01*
G01X-778787Y-1353292D01*
G01X-782719Y-1349360D01*
G01X-786879Y-1341608D01*
G01X-786879Y-1325245D01*
G01X-784799Y-1321369D01*
G01X-782719Y-1317495D01*
G01X-778787Y-1313558D01*
G01X-774852Y-1309627D01*
G01X-770979Y-1307612D01*
G01X-767103Y-1305596D01*
G01X-760217Y-1305319D01*
G01X-753328Y-1305042D01*
G01X-750743Y-1305977D01*
G01X-746869Y-1307782D01*
G01X-742993Y-1309591D01*
G01X-735129Y-1317495D01*
G01X-733049Y-1321369D01*
G01X-730969Y-1325245D01*
G01X-730969Y-1341608D01*
G01X-735129Y-1349360D01*
G01X-742993Y-1357224D01*
G37*
G36*
G01X-136799Y-1743045D02*
G01X-140673Y-1745125D01*
G01X-144549Y-1747205D01*
G01X-160909Y-1747205D01*
G01X-164782Y-1745125D01*
G01X-168659Y-1743045D01*
G01X-176522Y-1735181D01*
G01X-178605Y-1731305D01*
G01X-180683Y-1727429D01*
G01X-180683Y-1711063D01*
G01X-178605Y-1707187D01*
G01X-176522Y-1703314D01*
G01X-172590Y-1699379D01*
G01X-168659Y-1695447D01*
G01X-164782Y-1693431D01*
G01X-160909Y-1691416D01*
G01X-154018Y-1691140D01*
G01X-147132Y-1690863D01*
G01X-145839Y-1691328D01*
G01X-144549Y-1691797D01*
G01X-140673Y-1693603D01*
G01X-136799Y-1695412D01*
G01X-132865Y-1699362D01*
G01X-128933Y-1703314D01*
G01X-126853Y-1707187D01*
G01X-124772Y-1711063D01*
G01X-124772Y-1727429D01*
G01X-128933Y-1735181D01*
G01X-132865Y-1739113D01*
G01X-136799Y-1743045D01*
G37*
G36*
G01X-302123Y-916287D02*
G01X-305999Y-918367D01*
G01X-309872Y-920448D01*
G01X-326235Y-920448D01*
G01X-333982Y-916287D01*
G01X-337917Y-912355D01*
G01X-341851Y-908421D01*
G01X-343929Y-904547D01*
G01X-346009Y-900671D01*
G01X-346009Y-884309D01*
G01X-343929Y-880433D01*
G01X-341851Y-876557D01*
G01X-337917Y-872622D01*
G01X-333982Y-868690D01*
G01X-330109Y-866673D01*
G01X-326235Y-864659D01*
G01X-319347Y-864382D01*
G01X-312458Y-864103D01*
G01X-311165Y-864573D01*
G01X-309872Y-865038D01*
G01X-305999Y-866846D01*
G01X-302123Y-868655D01*
G01X-298191Y-872604D01*
G01X-294259Y-876557D01*
G01X-292179Y-880433D01*
G01X-290101Y-884309D01*
G01X-290101Y-900671D01*
G01X-292179Y-904547D01*
G01X-294259Y-908421D01*
G01X-298191Y-912355D01*
G01X-302123Y-916287D01*
G37*
G36*
G01X-302123Y-1302108D02*
G01X-305999Y-1304188D01*
G01X-309872Y-1306269D01*
G01X-326235Y-1306269D01*
G01X-333982Y-1302108D01*
G01X-337917Y-1298174D01*
G01X-341851Y-1294242D01*
G01X-343929Y-1290366D01*
G01X-346009Y-1286492D01*
G01X-346009Y-1270127D01*
G01X-343929Y-1266251D01*
G01X-341851Y-1262375D01*
G01X-333982Y-1254511D01*
G01X-330109Y-1252494D01*
G01X-326235Y-1250480D01*
G01X-319347Y-1250201D01*
G01X-312458Y-1249924D01*
G01X-309872Y-1250859D01*
G01X-305999Y-1252667D01*
G01X-302123Y-1254473D01*
G01X-298191Y-1258423D01*
G01X-294259Y-1262375D01*
G01X-292179Y-1266251D01*
G01X-290101Y-1270127D01*
G01X-290101Y-1286492D01*
G01X-292179Y-1290366D01*
G01X-294259Y-1294242D01*
G01X-298191Y-1298174D01*
G01X-302123Y-1302108D01*
G37*
G36*
G01X146611Y-1735181D02*
G01X138748Y-1743045D01*
G01X130995Y-1747205D01*
G01X114635Y-1747205D01*
G01X110759Y-1745125D01*
G01X106886Y-1743045D01*
G01X102951Y-1739113D01*
G01X99019Y-1735181D01*
G01X96942Y-1731305D01*
G01X94861Y-1727429D01*
G01X94861Y-1711063D01*
G01X96942Y-1707187D01*
G01X99019Y-1703314D01*
G01X102951Y-1699379D01*
G01X106886Y-1695447D01*
G01X110759Y-1693431D01*
G01X114635Y-1691416D01*
G01X128412Y-1690863D01*
G01X129703Y-1691328D01*
G01X130995Y-1691797D01*
G01X134871Y-1693603D01*
G01X138748Y-1695412D01*
G01X142679Y-1699362D01*
G01X146611Y-1703314D01*
G01X148692Y-1707187D01*
G01X150769Y-1711063D01*
G01X150769Y-1727429D01*
G01X148692Y-1731305D01*
G01X146611Y-1735181D01*
G37*
G36*
G01X634726Y-1687929D02*
G01X630850Y-1690009D01*
G01X626976Y-1692087D01*
G01X610616Y-1692087D01*
G01X606740Y-1690009D01*
G01X602866Y-1687929D01*
G01X598929Y-1683995D01*
G01X594998Y-1680060D01*
G01X592920Y-1676184D01*
G01X590840Y-1672311D01*
G01X590840Y-1655948D01*
G01X592920Y-1652072D01*
G01X594998Y-1648196D01*
G01X598929Y-1644264D01*
G01X602866Y-1640329D01*
G01X606740Y-1638315D01*
G01X610616Y-1636298D01*
G01X617502Y-1636022D01*
G01X624390Y-1635745D01*
G01X625681Y-1636212D01*
G01X626976Y-1636679D01*
G01X630850Y-1638488D01*
G01X634726Y-1640291D01*
G01X642590Y-1648196D01*
G01X644670Y-1652072D01*
G01X646748Y-1655948D01*
G01X646748Y-1672311D01*
G01X644670Y-1676184D01*
G01X642590Y-1680060D01*
G01X634726Y-1687929D01*
G37*
G04 Image End*

G04 Text Start*
G54D10*
G01X724408Y-350520D02*
G01X724408Y-470662D01*
G01X764540Y-350520D02*
G01X684530Y-350520D01*
G01X630936Y-390652D02*
G01X596646Y-470662D01*
G01X562356Y-390652D02*
G01X596646Y-470662D01*
G01X608076Y-493522D01*
G01X619506Y-504952D01*
G01X630936Y-510540D01*
G01X636778Y-510540D01*
G01X514604Y-350520D02*
G01X514604Y-470662D01*
G01X514604Y-350520D02*
G01X463042Y-350520D01*
G01X446024Y-356362D01*
G01X440182Y-361950D01*
G01X434594Y-373380D01*
G01X434594Y-390652D01*
G01X440182Y-402082D01*
G01X446024Y-407670D01*
G01X463042Y-413512D01*
G01X514604Y-413512D01*
G01X386842Y-424942D02*
G01X318262Y-424942D01*
G01X318262Y-413512D01*
G01X323850Y-402082D01*
G01X329692Y-396240D01*
G01X341122Y-390652D01*
G01X358140Y-390652D01*
G01X369570Y-396240D01*
G01X381000Y-407670D01*
G01X386842Y-424942D01*
G01X386842Y-436372D01*
G01X381000Y-453390D01*
G01X369570Y-464820D01*
G01X358140Y-470662D01*
G01X341122Y-470662D01*
G01X329692Y-464820D01*
G01X318262Y-453390D01*
G01X201930Y-367792D02*
G01X207518Y-356362D01*
G01X224790Y-350520D01*
G01X236220Y-350520D01*
G01X253238Y-356362D01*
G01X264668Y-373380D01*
G01X270510Y-402082D01*
G01X270510Y-430530D01*
G01X264668Y-453390D01*
G01X253238Y-464820D01*
G01X236220Y-470662D01*
G01X230378Y-470662D01*
G01X213360Y-464820D01*
G01X201930Y-453390D01*
G01X196088Y-436372D01*
G01X196088Y-430530D01*
G01X201930Y-413512D01*
G01X213360Y-402082D01*
G01X230378Y-396240D01*
G01X236220Y-396240D01*
G01X253238Y-402082D01*
G01X264668Y-413512D01*
G01X270510Y-430530D01*
G01X114046Y-350520D02*
G01X131064Y-356362D01*
G01X142494Y-373380D01*
G01X148336Y-402082D01*
G01X148336Y-419100D01*
G01X142494Y-447802D01*
G01X131064Y-464820D01*
G01X114046Y-470662D01*
G01X102616Y-470662D01*
G01X85344Y-464820D01*
G01X73914Y-447802D01*
G01X68326Y-419100D01*
G01X68326Y-402082D01*
G01X73914Y-373380D01*
G01X85344Y-356362D01*
G01X102616Y-350520D01*
G01X114046Y-350520D01*
G01X-13716Y-350520D02*
G01X3302Y-356362D01*
G01X14732Y-373380D01*
G01X20574Y-402082D01*
G01X20574Y-419100D01*
G01X14732Y-447802D01*
G01X3302Y-464820D01*
G01X-13716Y-470662D01*
G01X-25146Y-470662D01*
G01X-42418Y-464820D01*
G01X-53848Y-447802D01*
G01X-59436Y-419100D01*
G01X-59436Y-402082D01*
G01X-53848Y-373380D01*
G01X-42418Y-356362D01*
G01X-25146Y-350520D01*
G01X-13716Y-350520D01*
G01X-141478Y-350520D02*
G01X-124460Y-356362D01*
G01X-113030Y-373380D01*
G01X-107188Y-402082D01*
G01X-107188Y-419100D01*
G01X-113030Y-447802D01*
G01X-124460Y-464820D01*
G01X-141478Y-470662D01*
G01X-152908Y-470662D01*
G01X-170180Y-464820D01*
G01X-181610Y-447802D01*
G01X-187198Y-419100D01*
G01X-187198Y-402082D01*
G01X-181610Y-373380D01*
G01X-170180Y-356362D01*
G01X-152908Y-350520D01*
G01X-141478Y-350520D01*
G01X678688Y-87122D02*
G01X684530Y-75692D01*
G01X695960Y-64262D01*
G01X707390Y-58420D01*
G01X730250Y-58420D01*
G01X741680Y-64262D01*
G01X753110Y-75692D01*
G01X758698Y-87122D01*
G01X764540Y-104140D01*
G01X764540Y-132842D01*
G01X758698Y-149860D01*
G01X753110Y-161290D01*
G01X741680Y-172720D01*
G01X730250Y-178562D01*
G01X707390Y-178562D01*
G01X695960Y-172720D01*
G01X684530Y-161290D01*
G01X678688Y-149860D01*
G01X678688Y-132842D01*
G01X707390Y-132842D02*
G01X678688Y-132842D01*
G01X630936Y-58420D02*
G01X625094Y-64262D01*
G01X619506Y-58420D01*
G01X625094Y-52832D01*
G01X630936Y-58420D01*
G01X625094Y-98552D02*
G01X625094Y-178562D01*
G01X554482Y-58420D02*
G01X554482Y-155702D01*
G01X548894Y-172720D01*
G01X537464Y-178562D01*
G01X526034Y-178562D01*
G01X571754Y-98552D02*
G01X531622Y-98552D01*
G01X478282Y-58420D02*
G01X478282Y-178562D01*
G01X398272Y-58420D02*
G01X398272Y-178562D01*
G01X478282Y-115570D02*
G01X398272Y-115570D01*
G01X350520Y-98552D02*
G01X350520Y-155702D01*
G01X344678Y-172720D01*
G01X333248Y-178562D01*
G01X316230Y-178562D01*
G01X304800Y-172720D01*
G01X287528Y-155702D01*
G01X287528Y-98552D02*
G01X287528Y-178562D01*
G01X239776Y-58420D02*
G01X239776Y-178562D01*
G01X239776Y-115570D02*
G01X228346Y-104140D01*
G01X216916Y-98552D01*
G01X199644Y-98552D01*
G01X188214Y-104140D01*
G01X176784Y-115570D01*
G01X171196Y-132842D01*
G01X171196Y-144272D01*
G01X176784Y-161290D01*
G01X188214Y-172720D01*
G01X199644Y-178562D01*
G01X216916Y-178562D01*
G01X228346Y-172720D01*
G01X239776Y-161290D01*
G04 Text End*

M02*

