;TYPE=PLATED
;Layer: PTH_Through
;EasyEDA Pro Client v2.2.45.4, 2025-12-09 09:51:21
;Gerber Generator version 0.3
M48
METRIC,LZ,0000.00000
;Hole size 1 = 0.30998 METRIC
T01C0.30998
;Hole size 2 = 0.89916 METRIC
T02C0.89916
;Hole size 3 = 0.90002 METRIC
T03C0.90002
;Hole size 4 = 0.91440 METRIC
T04C0.91440
;Hole size 5 = 1.75001 METRIC
T05C1.75001
%
G05
G90
T01
X11.176Y16.383
T02
X-0.381Y30.48
X-0.381Y20.32
X-3.81Y20.32
X-3.81Y30.48
X-7.366Y30.48
X-7.366Y20.32
T03
X-10.668Y30.48
X-13.208Y30.48
X3.556Y12.7
X6.096Y12.7
X8.636Y12.7
X11.176Y12.7
X3.556Y20.32
X6.096Y20.32
X8.636Y20.32
X11.176Y20.32
T04
X-3.683Y12.7
X-6.223Y12.7
T05
X4.35801Y25.4
X9.358Y25.4
M30