G04 Layer: TopSilkscreenLayer*
G04 EasyEDA Pro v2.2.45.4, 2025-12-09 09:51:21*
G04 Gerber Generator version 0.3*
G04 Scale: 100 percent, Rotated: No, Reflected: No*
G04 Dimensions in millimeters*
G04 Leading zeros omitted, absolute positions, 4 integers and 5 decimals*
G04 Generated by one-click*
%FSLAX45Y45*%
%MOMM*%
%ADD10C,0.1524*%
%ADD11C,0.254*%
%ADD12C,0.2*%
%ADD13C,0.25*%
%ADD14C,0.6*%
%ADD15C,0.9575*%
G75*


G04 Text Start*
G54D10*
G01X-758698Y1691640D02*
G01X-761746Y1697990D01*
G01X-768096Y1704086D01*
G01X-774192Y1707134D01*
G01X-786638Y1707134D01*
G01X-792734Y1704086D01*
G01X-799084Y1697990D01*
G01X-802132Y1691640D01*
G01X-805180Y1682496D01*
G01X-805180Y1667002D01*
G01X-802132Y1657604D01*
G01X-799084Y1651508D01*
G01X-792734Y1645158D01*
G01X-786638Y1642110D01*
G01X-774192Y1642110D01*
G01X-768096Y1645158D01*
G01X-761746Y1651508D01*
G01X-758698Y1657604D01*
G01X-728472Y1694688D02*
G01X-722376Y1697990D01*
G01X-713232Y1707134D01*
G01X-713232Y1642110D01*
G01X492760Y3006090D02*
G01X492760Y2950210D01*
G01X464820Y2978150D02*
G01X520446Y2978150D01*
G01X660146Y2993644D02*
G01X657098Y2984246D01*
G01X650748Y2978150D01*
G01X641604Y2975102D01*
G01X638556Y2975102D01*
G01X629158Y2978150D01*
G01X623062Y2984246D01*
G01X620014Y2993644D01*
G01X620014Y2996692D01*
G01X623062Y3006090D01*
G01X629158Y3012186D01*
G01X638556Y3015234D01*
G01X641604Y3015234D01*
G01X650748Y3012186D01*
G01X657098Y3006090D01*
G01X660146Y2993644D01*
G01X660146Y2978150D01*
G01X657098Y2962656D01*
G01X650748Y2953258D01*
G01X641604Y2950210D01*
G01X635254Y2950210D01*
G01X626110Y2953258D01*
G01X623062Y2959608D01*
G01X690372Y3015234D02*
G01X715010Y2950210D01*
G01X739902Y3015234D02*
G01X715010Y2950210D01*
G01X839470Y2978150D02*
G01X895096Y2978150D01*
G01X-1376680Y3370834D02*
G01X-1376680Y3305810D01*
G01X-1376680Y3305810D02*
G01X-1339596Y3305810D01*
G01X-1309370Y3370834D02*
G01X-1309370Y3305810D01*
G01X-1309370Y3370834D02*
G01X-1269238Y3370834D01*
G01X-1309370Y3339846D02*
G01X-1284732Y3339846D01*
G01X-1309370Y3305810D02*
G01X-1269238Y3305810D01*
G01X-1239012Y3370834D02*
G01X-1239012Y3305810D01*
G01X-1239012Y3370834D02*
G01X-1217422Y3370834D01*
G01X-1208278Y3367786D01*
G01X-1201928Y3361690D01*
G01X-1198880Y3355340D01*
G01X-1195832Y3346196D01*
G01X-1195832Y3330702D01*
G01X-1198880Y3321304D01*
G01X-1201928Y3315208D01*
G01X-1208278Y3308858D01*
G01X-1217422Y3305810D01*
G01X-1239012Y3305810D01*
G01X-1165606Y3358388D02*
G01X-1159510Y3361690D01*
G01X-1150366Y3370834D01*
G01X-1150366Y3305810D01*
G01X-81280Y3332734D02*
G01X-81280Y3267710D01*
G01X-81280Y3332734D02*
G01X-53340Y3332734D01*
G01X-44196Y3329686D01*
G01X-41148Y3326638D01*
G01X-37846Y3320288D01*
G01X-37846Y3314192D01*
G01X-41148Y3308096D01*
G01X-44196Y3305048D01*
G01X-53340Y3301746D01*
G01X-81280Y3301746D01*
G01X-59690Y3301746D02*
G01X-37846Y3267710D01*
G01X-7620Y3320288D02*
G01X-1524Y3323590D01*
G01X7620Y3332734D01*
G01X7620Y3267710D01*
G01X-449580Y3332734D02*
G01X-449580Y3267710D01*
G01X-449580Y3332734D02*
G01X-421640Y3332734D01*
G01X-412496Y3329686D01*
G01X-409448Y3326638D01*
G01X-406146Y3320288D01*
G01X-406146Y3314192D01*
G01X-409448Y3308096D01*
G01X-412496Y3305048D01*
G01X-421640Y3301746D01*
G01X-449580Y3301746D01*
G01X-427990Y3301746D02*
G01X-406146Y3267710D01*
G01X-372872Y3317240D02*
G01X-372872Y3320288D01*
G01X-369824Y3326638D01*
G01X-366776Y3329686D01*
G01X-360680Y3332734D01*
G01X-348234Y3332734D01*
G01X-341884Y3329686D01*
G01X-338836Y3326638D01*
G01X-335788Y3320288D01*
G01X-335788Y3314192D01*
G01X-338836Y3308096D01*
G01X-345186Y3298698D01*
G01X-375920Y3267710D01*
G01X-332740Y3267710D01*
G01X-830580Y3332734D02*
G01X-830580Y3267710D01*
G01X-830580Y3332734D02*
G01X-802640Y3332734D01*
G01X-793496Y3329686D01*
G01X-790448Y3326638D01*
G01X-787146Y3320288D01*
G01X-787146Y3314192D01*
G01X-790448Y3308096D01*
G01X-793496Y3305048D01*
G01X-802640Y3301746D01*
G01X-830580Y3301746D01*
G01X-808990Y3301746D02*
G01X-787146Y3267710D01*
G01X-750824Y3332734D02*
G01X-716788Y3332734D01*
G01X-735330Y3308096D01*
G01X-726186Y3308096D01*
G01X-719836Y3305048D01*
G01X-716788Y3301746D01*
G01X-713740Y3292602D01*
G01X-713740Y3286252D01*
G01X-716788Y3277108D01*
G01X-722884Y3270758D01*
G01X-732282Y3267710D01*
G01X-741680Y3267710D01*
G01X-750824Y3270758D01*
G01X-753872Y3274060D01*
G01X-756920Y3280156D01*
G01X-637794Y816864D02*
G01X-637794Y695706D01*
G01X-678180Y816864D02*
G01X-597408Y816864D01*
G01X-548640Y776478D02*
G01X-514096Y695706D01*
G01X-479298Y776478D02*
G01X-514096Y695706D01*
G01X-525526Y672592D01*
G01X-537210Y661162D01*
G01X-548640Y655320D01*
G01X-554482Y655320D01*
G01X-436372Y816864D02*
G01X-436372Y695706D01*
G01X-436372Y816864D02*
G01X-384302Y816864D01*
G01X-367030Y811276D01*
G01X-361188Y805434D01*
G01X-355600Y794004D01*
G01X-355600Y776478D01*
G01X-361188Y765048D01*
G01X-367030Y759206D01*
G01X-384302Y753364D01*
G01X-436372Y753364D01*
G01X-312674Y741934D02*
G01X-243332Y741934D01*
G01X-243332Y753364D01*
G01X-249174Y765048D01*
G01X-255016Y770890D01*
G01X-266446Y776478D01*
G01X-283718Y776478D01*
G01X-295402Y770890D01*
G01X-306832Y759206D01*
G01X-312674Y741934D01*
G01X-312674Y730504D01*
G01X-306832Y712978D01*
G01X-295402Y701548D01*
G01X-283718Y695706D01*
G01X-266446Y695706D01*
G01X-255016Y701548D01*
G01X-243332Y712978D01*
G01X-131064Y799592D02*
G01X-136906Y811276D01*
G01X-154178Y816864D01*
G01X-165862Y816864D01*
G01X-183134Y811276D01*
G01X-194564Y794004D01*
G01X-200406Y765048D01*
G01X-200406Y736092D01*
G01X-194564Y712978D01*
G01X-183134Y701548D01*
G01X-165862Y695706D01*
G01X-160020Y695706D01*
G01X-142748Y701548D01*
G01X-131064Y712978D01*
G01X-125222Y730504D01*
G01X-125222Y736092D01*
G01X-131064Y753364D01*
G01X-142748Y765048D01*
G01X-160020Y770890D01*
G01X-165862Y770890D01*
G01X-183134Y765048D01*
G01X-194564Y753364D01*
G01X-200406Y736092D01*
G01X-47752Y816864D02*
G01X-65024Y811276D01*
G01X-76454Y794004D01*
G01X-82296Y765048D01*
G01X-82296Y747776D01*
G01X-76454Y718820D01*
G01X-65024Y701548D01*
G01X-47752Y695706D01*
G01X-36068Y695706D01*
G01X-18796Y701548D01*
G01X-7112Y718820D01*
G01X-1524Y747776D01*
G01X-1524Y765048D01*
G01X-7112Y794004D01*
G01X-18796Y811276D01*
G01X-36068Y816864D01*
G01X-47752Y816864D01*
G01X75946Y816864D02*
G01X58674Y811276D01*
G01X47244Y794004D01*
G01X41402Y765048D01*
G01X41402Y747776D01*
G01X47244Y718820D01*
G01X58674Y701548D01*
G01X75946Y695706D01*
G01X87630Y695706D01*
G01X104902Y701548D01*
G01X116586Y718820D01*
G01X122174Y747776D01*
G01X122174Y765048D01*
G01X116586Y794004D01*
G01X104902Y811276D01*
G01X87630Y816864D01*
G01X75946Y816864D01*
G01X199644Y816864D02*
G01X182372Y811276D01*
G01X170942Y794004D01*
G01X165100Y765048D01*
G01X165100Y747776D01*
G01X170942Y718820D01*
G01X182372Y701548D01*
G01X199644Y695706D01*
G01X211328Y695706D01*
G01X228600Y701548D01*
G01X240284Y718820D01*
G01X245872Y747776D01*
G01X245872Y765048D01*
G01X240284Y794004D01*
G01X228600Y811276D01*
G01X211328Y816864D01*
G01X199644Y816864D01*
G04 Text End*

G04 PolygonModel Start*
G54D11*
G01X-317500Y1117600D02*
G01X-419100Y1117600D01*
G01X-368300Y1066800D02*
G01X-368300Y1168400D01*
G36*
G01X-711200Y1041400D02*
G02X-711200Y1498600I206375J228600D01*
G01X-711200Y1041400D01*
G37*
G01X185801Y2889987D02*
G01X1185799Y2889987D01*
G01X1185799Y2189988D01*
G01X185801Y2189988D01*
G01X185801Y2889987D01*
G01X-1361948Y3175000D02*
G01X-1362481Y2920213D01*
G01X-1361948Y2921457D02*
G03X-1361948Y3174949I154710J126746D01*
G01X-157480Y2854960D02*
G01X81280Y2854960D01*
G01X81280Y2854960D02*
G01X81280Y2225040D01*
G01X81280Y2225040D02*
G01X-157480Y2225040D01*
G01X-157480Y2225040D02*
G01X-157480Y2854960D01*
G01X-261620Y2225040D02*
G01X-500380Y2225040D01*
G01X-500380Y2225040D02*
G01X-500380Y2854960D01*
G01X-500380Y2854960D02*
G01X-261620Y2854960D01*
G01X-261620Y2854960D02*
G01X-261620Y2225040D01*
G01X-855980Y2854960D02*
G01X-617220Y2854960D01*
G01X-617220Y2854960D02*
G01X-617220Y2225040D01*
G01X-617220Y2225040D02*
G01X-855980Y2225040D01*
G01X-855980Y2225040D02*
G01X-855980Y2854960D01*
G54D12*
G01X242600Y1715000D02*
G01X242570Y1714500D01*
G01X242570Y1915922D01*
G01X1232662Y1915922D01*
G01X1232662Y1386078D01*
G01X242570Y1386078D01*
G01X242570Y1587500D01*
G01X242600Y1587000D01*
G01X242600Y1587000D02*
G03X242600Y1714000I0J63500D01*
G54D13*
G01X213106Y1270000D02*
G03X238104Y1270127I12499J127D01*
G03X213106Y1270254I-12499J0D01*
G54D14*
G01X291592Y1485900D02*
G03X351591Y1486154I29999J254D01*
G03X291592Y1486408I-30000J0D01*

G04 Circle Start*
G54D11*
G01X-810260Y1270000D02*
G03X-180340Y1270000I314960J0D01*
G03X-810260Y1270000I-314960J0D01*
G04 Circle End*

M02*

