G04 Layer: BottomLayer*
G04 EasyEDA Pro v2.2.45.4, 2025-12-09 09:51:21*
G04 Gerber Generator version 0.3*
G04 Scale: 100 percent, Rotated: No, Reflected: No*
G04 Dimensions in millimeters*
G04 Leading zeros omitted, absolute positions, 4 integers and 5 decimals*
G04 Generated by one-click*
%FSLAX45Y45*%
%MOMM*%
%ADD10C,1.524*%
%ADD11C,4.25*%
%ADD12C,1.651*%
%ADD13C,1.8796*%
%ADD14R,1.5X1.5*%
%ADD15C,1.5*%
%ADD16C,0.6203*%
%ADD17C,0.62001*%
%ADD18C,0.5*%
%ADD19C,0.254*%
G75*


G04 Copper Start*
G36*
G01X-1475232Y267208D02*
G01X-1479120Y267981D01*
G01X-1482416Y270184D01*
G01X-1484619Y273480D01*
G01X-1485392Y277368D01*
G01X-1485392Y508000D01*
G01X-1397489Y508000D01*
G01X-1396560Y492633D01*
G01X-1393785Y477490D01*
G01X-1389205Y462792D01*
G01X-1382886Y448753D01*
G01X-1374922Y435578D01*
G01X-1365427Y423459D01*
G01X-1354541Y412573D01*
G01X-1342422Y403078D01*
G01X-1329247Y395114D01*
G01X-1315208Y388795D01*
G01X-1300510Y384215D01*
G01X-1285367Y381440D01*
G01X-1270000Y380511D01*
G01X-1270000Y380511D01*
G01X-1254633Y381440D01*
G01X-1239490Y384215D01*
G01X-1224792Y388795D01*
G01X-1210753Y395114D01*
G01X-1197578Y403078D01*
G01X-1185459Y412573D01*
G01X-1174573Y423459D01*
G01X-1165078Y435578D01*
G01X-1157114Y448753D01*
G01X-1150795Y462792D01*
G01X-1146215Y477490D01*
G01X-1143440Y492633D01*
G01X-1142511Y508000D01*
G01X1142511Y508000D01*
G01X1143440Y492633D01*
G01X1146215Y477490D01*
G01X1150795Y462792D01*
G01X1157114Y448753D01*
G01X1165078Y435578D01*
G01X1174573Y423459D01*
G01X1185459Y412573D01*
G01X1197578Y403078D01*
G01X1210753Y395114D01*
G01X1224792Y388795D01*
G01X1239490Y384215D01*
G01X1254633Y381440D01*
G01X1254633Y381440D01*
G01X1270000Y380511D01*
G01X1285367Y381440D01*
G01X1300510Y384215D01*
G01X1315208Y388795D01*
G01X1329247Y395114D01*
G01X1342422Y403078D01*
G01X1354541Y412573D01*
G01X1365427Y423459D01*
G01X1374922Y435578D01*
G01X1382886Y448753D01*
G01X1389205Y462792D01*
G01X1393785Y477490D01*
G01X1396560Y492633D01*
G01X1397489Y508000D01*
G01X1396560Y523367D01*
G01X1393785Y538510D01*
G01X1389205Y553208D01*
G01X1382886Y567247D01*
G01X1374922Y580422D01*
G01X1365427Y592541D01*
G01X1354541Y603427D01*
G01X1342422Y612922D01*
G01X1329247Y620886D01*
G01X1315208Y627205D01*
G01X1300510Y631785D01*
G01X1285367Y634560D01*
G01X1270000Y635489D01*
G01X1254633Y634560D01*
G01X1239490Y631785D01*
G01X1224792Y627205D01*
G01X1210753Y620886D01*
G01X1197578Y612922D01*
G01X1185459Y603427D01*
G01X1174573Y592541D01*
G01X1165078Y580422D01*
G01X1157114Y567247D01*
G01X1150795Y553208D01*
G01X1146215Y538510D01*
G01X1143440Y523367D01*
G01X1142511Y508000D01*
G01X-1142511Y508000D01*
G01X-1143440Y523367D01*
G01X-1146215Y538510D01*
G01X-1150795Y553208D01*
G01X-1157114Y567247D01*
G01X-1165078Y580422D01*
G01X-1174573Y592541D01*
G01X-1185459Y603427D01*
G01X-1197578Y612922D01*
G01X-1210753Y620886D01*
G01X-1224792Y627205D01*
G01X-1239490Y631785D01*
G01X-1254633Y634560D01*
G01X-1270000Y635489D01*
G01X-1285367Y634560D01*
G01X-1300510Y631785D01*
G01X-1315208Y627205D01*
G01X-1329247Y620886D01*
G01X-1342422Y612922D01*
G01X-1354541Y603427D01*
G01X-1365427Y592541D01*
G01X-1374922Y580422D01*
G01X-1382886Y567247D01*
G01X-1389205Y553208D01*
G01X-1393785Y538510D01*
G01X-1396560Y523367D01*
G01X-1397489Y508000D01*
G01X-1485392Y508000D01*
G01X-1485392Y1225550D01*
G01X-713962Y1225550D01*
G01X-710134Y1217976D01*
G01X-702416Y1206733D01*
G01X-693269Y1196619D01*
G01X-682855Y1187814D01*
G01X-671360Y1180476D01*
G01X-666750Y1178337D01*
G01X-666750Y1178337D01*
G01X-666750Y1225550D01*
G01X-577850Y1225550D01*
G01X-577850Y1178210D01*
G01X-567370Y1183953D01*
G01X-556391Y1192042D01*
G01X-546588Y1201523D01*
G01X-538137Y1212225D01*
G01X-531187Y1223958D01*
G01X-530512Y1225550D01*
G01X-577850Y1225550D01*
G01X-577850Y1225550D01*
G01X-666750Y1225550D01*
G01X-713962Y1225550D01*
G01X-1485392Y1225550D01*
G01X-1485392Y1314450D01*
G01X-713962Y1314450D01*
G01X-666750Y1314450D01*
G01X-666750Y1314450D01*
G01X-666750Y1361663D01*
G01X-671360Y1359524D01*
G01X-682855Y1352186D01*
G01X-693269Y1343381D01*
G01X-702416Y1333267D01*
G01X-710134Y1322024D01*
G01X-713962Y1314450D01*
G01X-1485392Y1314450D01*
G01X-1485392Y1361790D01*
G01X-577850Y1361790D01*
G01X-577850Y1314450D01*
G01X-530512Y1314450D01*
G01X-531187Y1316042D01*
G01X-538137Y1327775D01*
G01X-546588Y1338477D01*
G01X-556391Y1347958D01*
G01X-567370Y1356047D01*
G01X-577850Y1361790D01*
G01X-577850Y1361790D01*
G01X-1485392Y1361790D01*
G01X-1485392Y2035691D01*
G01X-856412Y2035691D01*
G01X-855957Y2020940D01*
G01X-853693Y2006356D01*
G01X-849655Y1992161D01*
G01X-843902Y1978570D01*
G01X-836523Y1965789D01*
G01X-827629Y1954011D01*
G01X-817355Y1943416D01*
G01X-805857Y1934164D01*
G01X-793309Y1926394D01*
G01X-779902Y1920226D01*
G01X-765838Y1915752D01*
G01X-751330Y1913040D01*
G01X-736600Y1912131D01*
G01X-736600Y1912131D01*
G01X-721870Y1913040D01*
G01X-707362Y1915752D01*
G01X-693298Y1920226D01*
G01X-679891Y1926394D01*
G01X-667343Y1934164D01*
G01X-655845Y1943416D01*
G01X-645571Y1954011D01*
G01X-636677Y1965789D01*
G01X-629298Y1978570D01*
G01X-623545Y1992161D01*
G01X-619507Y2006356D01*
G01X-617243Y2020940D01*
G01X-617016Y2028309D01*
G01X-500812Y2028309D01*
G01X-499450Y2013613D01*
G01X-496293Y1999196D01*
G01X-491388Y1985277D01*
G01X-484809Y1972066D01*
G01X-476657Y1959763D01*
G01X-467055Y1948555D01*
G01X-456148Y1938613D01*
G01X-444103Y1930086D01*
G01X-431100Y1923103D01*
G01X-426098Y1921165D01*
G01X-422695Y1918985D01*
G01X-420412Y1915652D01*
G01X-419608Y1911692D01*
G01X-419608Y1363657D01*
G01X-420170Y1360324D01*
G01X-421794Y1357360D01*
G01X-424301Y1355093D01*
G01X-428855Y1352186D01*
G01X-439269Y1343381D01*
G01X-448416Y1333267D01*
G01X-456134Y1322024D01*
G01X-462285Y1309853D01*
G01X-466758Y1296970D01*
G01X-469474Y1283607D01*
G01X-470385Y1270000D01*
G01X-469474Y1256393D01*
G01X-466758Y1243030D01*
G01X-462285Y1230147D01*
G01X-456134Y1217976D01*
G01X-448416Y1206733D01*
G01X-439269Y1196619D01*
G01X-428855Y1187814D01*
G01X-417360Y1180476D01*
G01X-404990Y1174736D01*
G01X-391965Y1170696D01*
G01X-378518Y1168427D01*
G01X-364889Y1167972D01*
G01X-351320Y1169337D01*
G01X-338055Y1172498D01*
G01X-335082Y1173643D01*
G01X-331260Y1174320D01*
G01X-327464Y1173516D01*
G01X-324246Y1171346D01*
G01X-230853Y1077953D01*
G01X-224622Y1072840D01*
G01X-217956Y1069276D01*
G01X-210722Y1067082D01*
G01X-210722Y1067082D01*
G01X-202701Y1066292D01*
G01X444001Y1066292D01*
G01X452022Y1067082D01*
G01X459256Y1069276D01*
G01X465922Y1072840D01*
G01X472153Y1077953D01*
G01X566359Y1172159D01*
G01X569266Y1174191D01*
G01X572695Y1175099D01*
G01X576227Y1174774D01*
G01X589505Y1171136D01*
G01X602862Y1169340D01*
G01X616338Y1169340D01*
G01X629695Y1171136D01*
G01X642693Y1174697D01*
G01X655100Y1179958D01*
G01X666696Y1186826D01*
G01X677272Y1195178D01*
G01X686641Y1204866D01*
G01X694635Y1215716D01*
G01X701112Y1227534D01*
G01X705956Y1240110D01*
G01X709080Y1253220D01*
G01X710429Y1266629D01*
G01X762771Y1266629D01*
G01X764120Y1253220D01*
G01X767244Y1240110D01*
G01X772088Y1227534D01*
G01X778565Y1215716D01*
G01X786559Y1204866D01*
G01X795928Y1195178D01*
G01X806504Y1186826D01*
G01X818100Y1179958D01*
G01X830507Y1174697D01*
G01X843505Y1171136D01*
G01X856862Y1169340D01*
G01X870338Y1169340D01*
G01X870338Y1169340D01*
G01X883695Y1171136D01*
G01X896693Y1174697D01*
G01X909100Y1179958D01*
G01X920696Y1186826D01*
G01X931272Y1195178D01*
G01X940641Y1204866D01*
G01X948635Y1215716D01*
G01X955112Y1227534D01*
G01X959956Y1240110D01*
G01X963080Y1253220D01*
G01X964429Y1266629D01*
G01X1016771Y1266629D01*
G01X1018120Y1253220D01*
G01X1021244Y1240110D01*
G01X1026088Y1227534D01*
G01X1032565Y1215716D01*
G01X1040559Y1204866D01*
G01X1049928Y1195178D01*
G01X1060504Y1186826D01*
G01X1072100Y1179958D01*
G01X1084507Y1174697D01*
G01X1097505Y1171136D01*
G01X1097505Y1171136D01*
G01X1110862Y1169340D01*
G01X1124338Y1169340D01*
G01X1137695Y1171136D01*
G01X1150693Y1174697D01*
G01X1163100Y1179958D01*
G01X1174696Y1186826D01*
G01X1185272Y1195178D01*
G01X1194641Y1204866D01*
G01X1202635Y1215716D01*
G01X1209112Y1227534D01*
G01X1213956Y1240110D01*
G01X1217080Y1253220D01*
G01X1218429Y1266629D01*
G01X1217979Y1280098D01*
G01X1215737Y1293387D01*
G01X1211744Y1306259D01*
G01X1206071Y1318484D01*
G01X1198820Y1329843D01*
G01X1190119Y1340134D01*
G01X1180124Y1349175D01*
G01X1172918Y1354121D01*
G01X1170556Y1356380D01*
G01X1169033Y1359272D01*
G01X1168508Y1362497D01*
G01X1168508Y1611157D01*
G01X1169410Y1615342D01*
G01X1171223Y1619354D01*
G01X1173654Y1628689D01*
G01X1174472Y1638300D01*
G01X1173654Y1647911D01*
G01X1171223Y1657246D01*
G01X1167250Y1666036D01*
G01X1161848Y1674028D01*
G01X1155174Y1680992D01*
G01X1147418Y1686728D01*
G01X1138805Y1691071D01*
G01X1129582Y1693896D01*
G01X1120014Y1695121D01*
G01X1110376Y1694711D01*
G01X1100946Y1692679D01*
G01X1091996Y1689082D01*
G01X1083782Y1684025D01*
G01X1076541Y1677652D01*
G01X1070481Y1670147D01*
G01X1065777Y1661726D01*
G01X1062563Y1652630D01*
G01X1060933Y1643123D01*
G01X1060933Y1633477D01*
G01X1062562Y1623977D01*
G01X1066107Y1613989D01*
G01X1066692Y1610590D01*
G01X1066692Y1362497D01*
G01X1066167Y1359272D01*
G01X1064644Y1356380D01*
G01X1062282Y1354121D01*
G01X1055076Y1349175D01*
G01X1045081Y1340134D01*
G01X1036380Y1329843D01*
G01X1029129Y1318484D01*
G01X1023456Y1306259D01*
G01X1019463Y1293387D01*
G01X1017221Y1280098D01*
G01X1016771Y1266629D01*
G01X964429Y1266629D01*
G01X963979Y1280098D01*
G01X961737Y1293387D01*
G01X957744Y1306259D01*
G01X952071Y1318484D01*
G01X944820Y1329843D01*
G01X936119Y1340134D01*
G01X926124Y1349175D01*
G01X915013Y1356802D01*
G01X902984Y1362880D01*
G01X890253Y1367301D01*
G01X877047Y1369985D01*
G01X863600Y1370885D01*
G01X850153Y1369985D01*
G01X836947Y1367301D01*
G01X824216Y1362880D01*
G01X812187Y1356802D01*
G01X801076Y1349175D01*
G01X791081Y1340134D01*
G01X782380Y1329843D01*
G01X775129Y1318484D01*
G01X769456Y1306259D01*
G01X765463Y1293387D01*
G01X763221Y1280098D01*
G01X762771Y1266629D01*
G01X710429Y1266629D01*
G01X709979Y1280098D01*
G01X707737Y1293387D01*
G01X703744Y1306259D01*
G01X698071Y1318484D01*
G01X690820Y1329843D01*
G01X682119Y1340134D01*
G01X672124Y1349175D01*
G01X661013Y1356802D01*
G01X653786Y1360454D01*
G01X650833Y1362706D01*
G01X648887Y1365870D01*
G01X648208Y1369522D01*
G01X648208Y1453000D01*
G01X648981Y1456888D01*
G01X651184Y1460184D01*
G01X890547Y1699547D01*
G01X895660Y1705778D01*
G01X899224Y1712444D01*
G01X901418Y1719678D01*
G01X902208Y1727699D01*
G01X902208Y1932308D01*
G01X902971Y1936170D01*
G01X905144Y1939452D01*
G01X909100Y1941958D01*
G01X920696Y1948826D01*
G01X931272Y1957178D01*
G01X940641Y1966866D01*
G01X948635Y1977716D01*
G01X955112Y1989534D01*
G01X959956Y2002110D01*
G01X963080Y2015220D01*
G01X964429Y2028629D01*
G01X1016771Y2028629D01*
G01X1018120Y2015220D01*
G01X1021244Y2002110D01*
G01X1026088Y1989534D01*
G01X1032565Y1977716D01*
G01X1040559Y1966866D01*
G01X1049928Y1957178D01*
G01X1060504Y1948826D01*
G01X1072100Y1941958D01*
G01X1084507Y1936697D01*
G01X1097505Y1933136D01*
G01X1110862Y1931340D01*
G01X1124338Y1931340D01*
G01X1124338Y1931340D01*
G01X1137695Y1933136D01*
G01X1150693Y1936697D01*
G01X1163100Y1941958D01*
G01X1174696Y1948826D01*
G01X1185272Y1957178D01*
G01X1194641Y1966866D01*
G01X1202635Y1977716D01*
G01X1209112Y1989534D01*
G01X1213956Y2002110D01*
G01X1217080Y2015220D01*
G01X1218429Y2028629D01*
G01X1217979Y2042098D01*
G01X1215737Y2055387D01*
G01X1211744Y2068259D01*
G01X1206071Y2080484D01*
G01X1198820Y2091843D01*
G01X1190119Y2102134D01*
G01X1180124Y2111175D01*
G01X1169013Y2118802D01*
G01X1156984Y2124880D01*
G01X1144253Y2129301D01*
G01X1131047Y2131985D01*
G01X1117600Y2132885D01*
G01X1104153Y2131985D01*
G01X1090947Y2129301D01*
G01X1078216Y2124880D01*
G01X1066187Y2118802D01*
G01X1055076Y2111175D01*
G01X1045081Y2102134D01*
G01X1036380Y2091843D01*
G01X1029129Y2080484D01*
G01X1023456Y2068259D01*
G01X1019463Y2055387D01*
G01X1017221Y2042098D01*
G01X1016771Y2028629D01*
G01X964429Y2028629D01*
G01X963979Y2042098D01*
G01X961737Y2055387D01*
G01X957744Y2068259D01*
G01X952071Y2080484D01*
G01X944820Y2091843D01*
G01X936119Y2102134D01*
G01X926124Y2111175D01*
G01X915013Y2118802D01*
G01X902984Y2124880D01*
G01X890253Y2129301D01*
G01X877047Y2131985D01*
G01X863600Y2132885D01*
G01X850153Y2131985D01*
G01X836947Y2129301D01*
G01X824216Y2124880D01*
G01X812187Y2118802D01*
G01X801076Y2111175D01*
G01X791081Y2102134D01*
G01X782380Y2091843D01*
G01X775129Y2080484D01*
G01X769456Y2068259D01*
G01X765463Y2055387D01*
G01X763221Y2042098D01*
G01X762771Y2028629D01*
G01X764120Y2015220D01*
G01X767244Y2002110D01*
G01X772088Y1989534D01*
G01X778565Y1977716D01*
G01X786559Y1966866D01*
G01X795928Y1957178D01*
G01X806504Y1948826D01*
G01X818100Y1941958D01*
G01X822056Y1939452D01*
G01X824229Y1936170D01*
G01X824992Y1932308D01*
G01X824992Y1747400D01*
G01X824219Y1743512D01*
G01X822016Y1740216D01*
G01X582653Y1500853D01*
G01X577540Y1494622D01*
G01X573976Y1487956D01*
G01X571782Y1480722D01*
G01X570992Y1472701D01*
G01X570992Y1369522D01*
G01X570313Y1365870D01*
G01X568367Y1362706D01*
G01X565414Y1360454D01*
G01X558187Y1356802D01*
G01X547076Y1349175D01*
G01X537081Y1340134D01*
G01X528380Y1329843D01*
G01X521129Y1318484D01*
G01X515456Y1306259D01*
G01X511463Y1293387D01*
G01X509221Y1280098D01*
G01X508771Y1266629D01*
G01X510120Y1253220D01*
G01X513244Y1240110D01*
G01X514169Y1237708D01*
G01X514847Y1233887D01*
G01X514042Y1230090D01*
G01X511872Y1226873D01*
G01X473852Y1188852D01*
G01X470556Y1186650D01*
G01X466668Y1185876D01*
G01X462780Y1186650D01*
G01X459484Y1188852D01*
G01X457281Y1192148D01*
G01X456508Y1196036D01*
G01X456508Y1226150D01*
G01X399450Y1226150D01*
G01X399450Y1169092D01*
G01X429564Y1169092D01*
G01X433452Y1168319D01*
G01X436748Y1166116D01*
G01X438950Y1162820D01*
G01X439724Y1158932D01*
G01X438950Y1155044D01*
G01X436748Y1151748D01*
G01X431484Y1146484D01*
G01X428188Y1144281D01*
G01X424300Y1143508D01*
G01X-183000Y1143508D01*
G01X-186888Y1144281D01*
G01X-190184Y1146484D01*
G01X-269506Y1225806D01*
G01X-269746Y1226150D01*
G01X254692Y1226150D01*
G01X254692Y1195571D01*
G01X255404Y1189249D01*
G01X257316Y1183787D01*
G01X260395Y1178887D01*
G01X264487Y1174795D01*
G01X269387Y1171716D01*
G01X274849Y1169804D01*
G01X281171Y1169092D01*
G01X311750Y1169092D01*
G01X311750Y1169092D01*
G01X311750Y1226150D01*
G01X254692Y1226150D01*
G01X-269746Y1226150D01*
G01X-271540Y1228719D01*
G01X-272447Y1232154D01*
G01X-272116Y1235691D01*
G01X-268259Y1249675D01*
G01X-266443Y1263181D01*
G01X-266443Y1276819D01*
G01X-268260Y1290334D01*
G01X-271863Y1303487D01*
G01X-277187Y1316042D01*
G01X-284137Y1327775D01*
G01X-292588Y1338477D01*
G01X-298743Y1344429D01*
G01X254692Y1344429D01*
G01X254692Y1313850D01*
G01X311750Y1313850D01*
G01X311750Y1313850D01*
G01X311750Y1370908D01*
G01X399450Y1370908D01*
G01X399450Y1313850D01*
G01X456508Y1313850D01*
G01X456508Y1313850D01*
G01X456508Y1344429D01*
G01X455796Y1350751D01*
G01X453884Y1356213D01*
G01X450805Y1361113D01*
G01X446713Y1365205D01*
G01X441813Y1368284D01*
G01X436351Y1370196D01*
G01X430029Y1370908D01*
G01X399450Y1370908D01*
G01X311750Y1370908D01*
G01X281171Y1370908D01*
G01X274849Y1370196D01*
G01X269387Y1368284D01*
G01X264487Y1365205D01*
G01X260395Y1361113D01*
G01X257316Y1356213D01*
G01X255404Y1350751D01*
G01X254692Y1344429D01*
G01X-298743Y1344429D01*
G01X-302391Y1347958D01*
G01X-313370Y1356047D01*
G01X-325329Y1362601D01*
G01X-335884Y1366666D01*
G01X-339295Y1368844D01*
G01X-341586Y1372180D01*
G01X-342392Y1376147D01*
G01X-342392Y1911692D01*
G01X-341588Y1915652D01*
G01X-339305Y1918985D01*
G01X-335902Y1921165D01*
G01X-330900Y1923103D01*
G01X-317897Y1930086D01*
G01X-305852Y1938613D01*
G01X-294945Y1948555D01*
G01X-285343Y1959763D01*
G01X-277191Y1972066D01*
G01X-270612Y1985277D01*
G01X-265707Y1999196D01*
G01X-262550Y2013613D01*
G01X-261188Y2028309D01*
G01X-261416Y2035691D01*
G01X-157912Y2035691D01*
G01X-157457Y2020940D01*
G01X-155193Y2006356D01*
G01X-151155Y1992161D01*
G01X-145402Y1978570D01*
G01X-138023Y1965789D01*
G01X-129129Y1954011D01*
G01X-118855Y1943416D01*
G01X-107357Y1934164D01*
G01X-94809Y1926394D01*
G01X-81402Y1920226D01*
G01X-67338Y1915752D01*
G01X-52830Y1913040D01*
G01X-38100Y1912131D01*
G01X-38100Y1912131D01*
G01X-23370Y1913040D01*
G01X-8862Y1915752D01*
G01X5202Y1920226D01*
G01X18609Y1926394D01*
G01X31157Y1934164D01*
G01X42655Y1943416D01*
G01X52929Y1954011D01*
G01X61823Y1965789D01*
G01X67725Y1976012D01*
G01X69993Y1978715D01*
G01X73049Y1980479D01*
G01X76524Y1981092D01*
G01X262943Y1981092D01*
G01X266061Y1980602D01*
G01X268878Y1979178D01*
G01X271122Y1976959D01*
G01X278559Y1966866D01*
G01X287928Y1957178D01*
G01X298504Y1948826D01*
G01X310100Y1941958D01*
G01X322507Y1936697D01*
G01X335505Y1933136D01*
G01X348862Y1931340D01*
G01X362338Y1931340D01*
G01X375695Y1933136D01*
G01X388693Y1936697D01*
G01X401100Y1941958D01*
G01X412696Y1948826D01*
G01X423272Y1957178D01*
G01X432641Y1966866D01*
G01X440635Y1977716D01*
G01X447112Y1989534D01*
G01X451956Y2002110D01*
G01X455080Y2015220D01*
G01X456429Y2028629D01*
G01X508771Y2028629D01*
G01X510120Y2015220D01*
G01X513244Y2002110D01*
G01X518088Y1989534D01*
G01X524565Y1977716D01*
G01X532559Y1966866D01*
G01X541928Y1957178D01*
G01X552504Y1948826D01*
G01X564100Y1941958D01*
G01X576507Y1936697D01*
G01X589505Y1933136D01*
G01X589505Y1933136D01*
G01X602862Y1931340D01*
G01X616338Y1931340D01*
G01X629695Y1933136D01*
G01X642693Y1936697D01*
G01X655100Y1941958D01*
G01X666696Y1948826D01*
G01X677272Y1957178D01*
G01X686641Y1966866D01*
G01X694635Y1977716D01*
G01X701112Y1989534D01*
G01X705956Y2002110D01*
G01X709080Y2015220D01*
G01X710429Y2028629D01*
G01X709979Y2042098D01*
G01X707737Y2055387D01*
G01X703744Y2068259D01*
G01X698071Y2080484D01*
G01X690820Y2091843D01*
G01X682119Y2102134D01*
G01X672124Y2111175D01*
G01X661013Y2118802D01*
G01X648984Y2124880D01*
G01X636253Y2129301D01*
G01X623047Y2131985D01*
G01X609600Y2132885D01*
G01X596153Y2131985D01*
G01X582947Y2129301D01*
G01X570216Y2124880D01*
G01X558187Y2118802D01*
G01X547076Y2111175D01*
G01X537081Y2102134D01*
G01X528380Y2091843D01*
G01X521129Y2080484D01*
G01X515456Y2068259D01*
G01X511463Y2055387D01*
G01X509221Y2042098D01*
G01X508771Y2028629D01*
G01X456429Y2028629D01*
G01X455979Y2042098D01*
G01X454211Y2052577D01*
G01X454184Y2055789D01*
G01X455161Y2058849D01*
G01X457045Y2061451D01*
G01X471654Y2076059D01*
G01X474803Y2079496D01*
G01X477507Y2083019D01*
G01X479892Y2086764D01*
G01X481943Y2090703D01*
G01X483642Y2094805D01*
G01X484977Y2099040D01*
G01X485938Y2103375D01*
G01X486518Y2107777D01*
G01X486721Y2112435D01*
G01X486721Y2299256D01*
G01X487662Y2303527D01*
G01X490312Y2307006D01*
G01X494178Y2309050D01*
G01X509470Y2313270D01*
G01X529497Y2320787D01*
G01X548770Y2330068D01*
G01X567133Y2341040D01*
G01X584439Y2353613D01*
G01X600548Y2367687D01*
G01X615331Y2383149D01*
G01X628669Y2399873D01*
G01X640453Y2417726D01*
G01X645659Y2427400D01*
G01X725941Y2427400D01*
G01X731147Y2417726D01*
G01X742931Y2399873D01*
G01X756269Y2383149D01*
G01X771052Y2367687D01*
G01X787161Y2353613D01*
G01X804467Y2341040D01*
G01X823200Y2329890D01*
G01X823200Y2329890D01*
G01X1048400Y2329890D01*
G01X1067132Y2341040D01*
G01X1084438Y2353613D01*
G01X1100547Y2367687D01*
G01X1115330Y2383149D01*
G01X1128668Y2399873D01*
G01X1140452Y2417726D01*
G01X1145658Y2427400D01*
G01X1048400Y2427400D01*
G01X1048400Y2329890D01*
G01X1048400Y2329890D01*
G01X823200Y2329890D01*
G01X823200Y2427400D01*
G01X725941Y2427400D01*
G01X645659Y2427400D01*
G01X650590Y2436563D01*
G01X658997Y2456233D01*
G01X665607Y2476577D01*
G01X670367Y2497432D01*
G01X673239Y2518630D01*
G01X674199Y2540000D01*
G01X673239Y2561370D01*
G01X670367Y2582568D01*
G01X665607Y2603423D01*
G01X658997Y2623767D01*
G01X650590Y2643437D01*
G01X645659Y2652600D01*
G01X725941Y2652600D01*
G01X823200Y2652600D01*
G01X823200Y2652600D01*
G01X823200Y2750110D01*
G01X1048400Y2750110D01*
G01X1048400Y2652600D01*
G01X1145658Y2652600D01*
G01X1145658Y2652600D01*
G01X1140452Y2662274D01*
G01X1128668Y2680127D01*
G01X1115330Y2696851D01*
G01X1100547Y2712313D01*
G01X1084438Y2726387D01*
G01X1067132Y2738960D01*
G01X1048400Y2750110D01*
G01X823200Y2750110D01*
G01X804467Y2738960D01*
G01X787161Y2726387D01*
G01X771052Y2712313D01*
G01X756269Y2696851D01*
G01X742931Y2680127D01*
G01X731147Y2662274D01*
G01X725941Y2652600D01*
G01X645659Y2652600D01*
G01X640453Y2662274D01*
G01X628669Y2680127D01*
G01X615331Y2696851D01*
G01X600548Y2712313D01*
G01X584439Y2726387D01*
G01X567133Y2738960D01*
G01X548770Y2749932D01*
G01X529497Y2759213D01*
G01X509470Y2766730D01*
G01X488849Y2772421D01*
G01X467801Y2776240D01*
G01X446496Y2778158D01*
G01X425105Y2778158D01*
G01X403800Y2776240D01*
G01X382752Y2772421D01*
G01X362131Y2766730D01*
G01X342104Y2759213D01*
G01X322831Y2749932D01*
G01X304468Y2738960D01*
G01X287162Y2726387D01*
G01X271053Y2712313D01*
G01X256270Y2696851D01*
G01X242932Y2680127D01*
G01X231148Y2662274D01*
G01X221011Y2643437D01*
G01X212604Y2623767D01*
G01X205994Y2603423D01*
G01X201234Y2582568D01*
G01X198362Y2561370D01*
G01X197402Y2540000D01*
G01X198362Y2518630D01*
G01X201234Y2497432D01*
G01X205994Y2476577D01*
G01X212604Y2456233D01*
G01X221011Y2436563D01*
G01X231148Y2417726D01*
G01X242932Y2399873D01*
G01X256270Y2383149D01*
G01X271053Y2367687D01*
G01X287162Y2353613D01*
G01X304468Y2341040D01*
G01X322831Y2330068D01*
G01X342104Y2320787D01*
G01X362131Y2313270D01*
G01X377448Y2309043D01*
G01X381315Y2306999D01*
G01X383964Y2303520D01*
G01X384905Y2299249D01*
G01X384905Y2141194D01*
G01X383925Y2136841D01*
G01X381174Y2133327D01*
G01X377183Y2131331D01*
G01X372722Y2131238D01*
G01X369047Y2131985D01*
G01X355600Y2132885D01*
G01X342153Y2131985D01*
G01X328947Y2129301D01*
G01X316216Y2124880D01*
G01X304187Y2118802D01*
G01X293076Y2111175D01*
G01X283081Y2102134D01*
G01X274380Y2091843D01*
G01X271673Y2087601D01*
G01X269405Y2085094D01*
G01X266441Y2083470D01*
G01X263109Y2082908D01*
G01X76495Y2082908D01*
G01X72825Y2083594D01*
G01X69650Y2085560D01*
G01X67400Y2088539D01*
G01X65709Y2091934D01*
G01X57557Y2104237D01*
G01X47955Y2115445D01*
G01X37048Y2125387D01*
G01X25003Y2133914D01*
G01X12000Y2140897D01*
G01X-1761Y2146228D01*
G01X-16074Y2149828D01*
G01X-30721Y2151641D01*
G01X-45479Y2151641D01*
G01X-60126Y2149828D01*
G01X-74439Y2146228D01*
G01X-88200Y2140897D01*
G01X-101203Y2133914D01*
G01X-113248Y2125387D01*
G01X-124155Y2115445D01*
G01X-133757Y2104237D01*
G01X-141909Y2091934D01*
G01X-148488Y2078723D01*
G01X-153393Y2064804D01*
G01X-156550Y2050387D01*
G01X-157912Y2035691D01*
G01X-261416Y2035691D01*
G01X-261643Y2043060D01*
G01X-263907Y2057644D01*
G01X-267945Y2071839D01*
G01X-273698Y2085430D01*
G01X-281077Y2098211D01*
G01X-289971Y2109989D01*
G01X-300245Y2120584D01*
G01X-311743Y2129836D01*
G01X-324291Y2137606D01*
G01X-337698Y2143774D01*
G01X-351762Y2148248D01*
G01X-366270Y2150960D01*
G01X-381000Y2151869D01*
G01X-395730Y2150960D01*
G01X-410238Y2148248D01*
G01X-424302Y2143774D01*
G01X-437709Y2137606D01*
G01X-450257Y2129836D01*
G01X-461755Y2120584D01*
G01X-472029Y2109989D01*
G01X-480923Y2098211D01*
G01X-488302Y2085430D01*
G01X-494055Y2071839D01*
G01X-498093Y2057644D01*
G01X-500357Y2043060D01*
G01X-500812Y2028309D01*
G01X-617016Y2028309D01*
G01X-616788Y2035691D01*
G01X-618150Y2050387D01*
G01X-621307Y2064804D01*
G01X-626212Y2078723D01*
G01X-632791Y2091934D01*
G01X-640943Y2104237D01*
G01X-650545Y2115445D01*
G01X-661452Y2125387D01*
G01X-673497Y2133914D01*
G01X-686500Y2140897D01*
G01X-700261Y2146228D01*
G01X-714574Y2149828D01*
G01X-729221Y2151641D01*
G01X-743979Y2151641D01*
G01X-758626Y2149828D01*
G01X-772939Y2146228D01*
G01X-786700Y2140897D01*
G01X-799703Y2133914D01*
G01X-811748Y2125387D01*
G01X-822655Y2115445D01*
G01X-832257Y2104237D01*
G01X-840409Y2091934D01*
G01X-846988Y2078723D01*
G01X-851893Y2064804D01*
G01X-855050Y2050387D01*
G01X-856412Y2035691D01*
G01X-1485392Y2035691D01*
G01X-1485392Y3000375D01*
G01X-1417960Y3000375D01*
G01X-1414709Y2993782D01*
G01X-1406828Y2981988D01*
G01X-1397476Y2971324D01*
G01X-1386812Y2961972D01*
G01X-1375018Y2954091D01*
G01X-1368425Y2950840D01*
G01X-1368425Y2950840D01*
G01X-1368425Y3000375D01*
G01X-1273175Y3000375D01*
G01X-1273175Y2950840D01*
G01X-1266582Y2954091D01*
G01X-1254788Y2961972D01*
G01X-1244124Y2971324D01*
G01X-1234772Y2981988D01*
G01X-1226891Y2993782D01*
G01X-1223640Y3000375D01*
G01X-1273175Y3000375D01*
G01X-1273175Y3000375D01*
G01X-1368425Y3000375D01*
G01X-1417960Y3000375D01*
G01X-1485392Y3000375D01*
G01X-1485392Y3048000D01*
G01X-1175236Y3048000D01*
G01X-1174309Y3033846D01*
G01X-1171541Y3019935D01*
G01X-1166982Y3006503D01*
G01X-1160709Y2993782D01*
G01X-1152828Y2981988D01*
G01X-1143476Y2971324D01*
G01X-1132812Y2961972D01*
G01X-1121018Y2954091D01*
G01X-1108297Y2947818D01*
G01X-1094865Y2943259D01*
G01X-1080954Y2940491D01*
G01X-1066800Y2939564D01*
G01X-1066800Y2939564D01*
G01X-1052646Y2940491D01*
G01X-1038735Y2943259D01*
G01X-1025303Y2947818D01*
G01X-1012582Y2954091D01*
G01X-1000788Y2961972D01*
G01X-990124Y2971324D01*
G01X-980772Y2981988D01*
G01X-972891Y2993782D01*
G01X-966618Y3006503D01*
G01X-962059Y3019935D01*
G01X-959291Y3033846D01*
G01X-958364Y3048000D01*
G01X-958606Y3051691D01*
G01X-856412Y3051691D01*
G01X-855957Y3036940D01*
G01X-853693Y3022356D01*
G01X-849655Y3008161D01*
G01X-843902Y2994570D01*
G01X-836523Y2981789D01*
G01X-827629Y2970011D01*
G01X-817355Y2959416D01*
G01X-805857Y2950164D01*
G01X-793309Y2942394D01*
G01X-779902Y2936226D01*
G01X-765838Y2931752D01*
G01X-751330Y2929040D01*
G01X-736600Y2928131D01*
G01X-736600Y2928131D01*
G01X-721870Y2929040D01*
G01X-707362Y2931752D01*
G01X-693298Y2936226D01*
G01X-679891Y2942394D01*
G01X-667343Y2950164D01*
G01X-655845Y2959416D01*
G01X-645571Y2970011D01*
G01X-636677Y2981789D01*
G01X-629298Y2994570D01*
G01X-623545Y3008161D01*
G01X-619507Y3022356D01*
G01X-617243Y3036940D01*
G01X-617016Y3044309D01*
G01X-500812Y3044309D01*
G01X-499450Y3029613D01*
G01X-496293Y3015196D01*
G01X-491388Y3001277D01*
G01X-484809Y2988066D01*
G01X-476657Y2975763D01*
G01X-467055Y2964555D01*
G01X-456148Y2954613D01*
G01X-444103Y2946086D01*
G01X-431100Y2939103D01*
G01X-417339Y2933772D01*
G01X-403026Y2930172D01*
G01X-403026Y2930172D01*
G01X-388379Y2928359D01*
G01X-373621Y2928359D01*
G01X-358974Y2930172D01*
G01X-344661Y2933772D01*
G01X-330900Y2939103D01*
G01X-317897Y2946086D01*
G01X-305852Y2954613D01*
G01X-294945Y2964555D01*
G01X-285343Y2975763D01*
G01X-277191Y2988066D01*
G01X-270612Y3001277D01*
G01X-265707Y3015196D01*
G01X-262550Y3029613D01*
G01X-261188Y3044309D01*
G01X-261416Y3051691D01*
G01X-157912Y3051691D01*
G01X-157457Y3036940D01*
G01X-155193Y3022356D01*
G01X-151155Y3008161D01*
G01X-145402Y2994570D01*
G01X-138023Y2981789D01*
G01X-129129Y2970011D01*
G01X-118855Y2959416D01*
G01X-107357Y2950164D01*
G01X-94809Y2942394D01*
G01X-81402Y2936226D01*
G01X-67338Y2931752D01*
G01X-52830Y2929040D01*
G01X-38100Y2928131D01*
G01X-38100Y2928131D01*
G01X-23370Y2929040D01*
G01X-8862Y2931752D01*
G01X5202Y2936226D01*
G01X18609Y2942394D01*
G01X31157Y2950164D01*
G01X42655Y2959416D01*
G01X52929Y2970011D01*
G01X61823Y2981789D01*
G01X69202Y2994570D01*
G01X74955Y3008161D01*
G01X78993Y3022356D01*
G01X81257Y3036940D01*
G01X81712Y3051691D01*
G01X80350Y3066387D01*
G01X77193Y3080804D01*
G01X72288Y3094723D01*
G01X65709Y3107934D01*
G01X57557Y3120237D01*
G01X47955Y3131445D01*
G01X37048Y3141387D01*
G01X25003Y3149914D01*
G01X12000Y3156897D01*
G01X-1761Y3162228D01*
G01X-16074Y3165828D01*
G01X-30721Y3167641D01*
G01X-45479Y3167641D01*
G01X-60126Y3165828D01*
G01X-74439Y3162228D01*
G01X-88200Y3156897D01*
G01X-101203Y3149914D01*
G01X-113248Y3141387D01*
G01X-124155Y3131445D01*
G01X-133757Y3120237D01*
G01X-141909Y3107934D01*
G01X-148488Y3094723D01*
G01X-153393Y3080804D01*
G01X-156550Y3066387D01*
G01X-157912Y3051691D01*
G01X-261416Y3051691D01*
G01X-261643Y3059060D01*
G01X-263907Y3073644D01*
G01X-267945Y3087839D01*
G01X-273698Y3101430D01*
G01X-281077Y3114211D01*
G01X-289971Y3125989D01*
G01X-300245Y3136584D01*
G01X-311743Y3145836D01*
G01X-324291Y3153606D01*
G01X-337698Y3159774D01*
G01X-351762Y3164248D01*
G01X-366270Y3166960D01*
G01X-381000Y3167869D01*
G01X-395730Y3166960D01*
G01X-410238Y3164248D01*
G01X-424302Y3159774D01*
G01X-437709Y3153606D01*
G01X-450257Y3145836D01*
G01X-461755Y3136584D01*
G01X-472029Y3125989D01*
G01X-480923Y3114211D01*
G01X-488302Y3101430D01*
G01X-494055Y3087839D01*
G01X-498093Y3073644D01*
G01X-500357Y3059060D01*
G01X-500812Y3044309D01*
G01X-617016Y3044309D01*
G01X-616788Y3051691D01*
G01X-618150Y3066387D01*
G01X-621307Y3080804D01*
G01X-626212Y3094723D01*
G01X-632791Y3107934D01*
G01X-640943Y3120237D01*
G01X-650545Y3131445D01*
G01X-661452Y3141387D01*
G01X-673497Y3149914D01*
G01X-686500Y3156897D01*
G01X-700261Y3162228D01*
G01X-714574Y3165828D01*
G01X-729221Y3167641D01*
G01X-743979Y3167641D01*
G01X-758626Y3165828D01*
G01X-772939Y3162228D01*
G01X-786700Y3156897D01*
G01X-799703Y3149914D01*
G01X-811748Y3141387D01*
G01X-822655Y3131445D01*
G01X-832257Y3120237D01*
G01X-840409Y3107934D01*
G01X-846988Y3094723D01*
G01X-851893Y3080804D01*
G01X-855050Y3066387D01*
G01X-856412Y3051691D01*
G01X-958606Y3051691D01*
G01X-959291Y3062154D01*
G01X-962059Y3076065D01*
G01X-966618Y3089497D01*
G01X-972891Y3102218D01*
G01X-980772Y3114012D01*
G01X-990124Y3124676D01*
G01X-1000788Y3134028D01*
G01X-1012582Y3141909D01*
G01X-1025303Y3148182D01*
G01X-1038735Y3152741D01*
G01X-1052646Y3155509D01*
G01X-1066800Y3156436D01*
G01X-1080954Y3155509D01*
G01X-1094865Y3152741D01*
G01X-1108297Y3148182D01*
G01X-1121018Y3141909D01*
G01X-1132812Y3134028D01*
G01X-1143476Y3124676D01*
G01X-1152828Y3114012D01*
G01X-1160709Y3102218D01*
G01X-1166982Y3089497D01*
G01X-1171541Y3076065D01*
G01X-1174309Y3062154D01*
G01X-1175236Y3048000D01*
G01X-1485392Y3048000D01*
G01X-1485392Y3095625D01*
G01X-1417960Y3095625D01*
G01X-1368425Y3095625D01*
G01X-1368425Y3095625D01*
G01X-1368425Y3145160D01*
G01X-1273175Y3145160D01*
G01X-1273175Y3095625D01*
G01X-1223640Y3095625D01*
G01X-1223640Y3095625D01*
G01X-1226891Y3102218D01*
G01X-1234772Y3114012D01*
G01X-1244124Y3124676D01*
G01X-1254788Y3134028D01*
G01X-1266582Y3141909D01*
G01X-1273175Y3145160D01*
G01X-1368425Y3145160D01*
G01X-1375018Y3141909D01*
G01X-1386812Y3134028D01*
G01X-1397476Y3124676D01*
G01X-1406828Y3114012D01*
G01X-1414709Y3102218D01*
G01X-1417960Y3095625D01*
G01X-1485392Y3095625D01*
G01X-1485392Y3556000D01*
G01X-1397489Y3556000D01*
G01X-1396560Y3540633D01*
G01X-1393785Y3525490D01*
G01X-1389205Y3510792D01*
G01X-1382886Y3496753D01*
G01X-1374922Y3483578D01*
G01X-1365427Y3471459D01*
G01X-1354541Y3460573D01*
G01X-1342422Y3451078D01*
G01X-1329247Y3443114D01*
G01X-1315208Y3436795D01*
G01X-1300510Y3432215D01*
G01X-1285367Y3429440D01*
G01X-1270000Y3428511D01*
G01X-1270000Y3428511D01*
G01X-1254633Y3429440D01*
G01X-1239490Y3432215D01*
G01X-1224792Y3436795D01*
G01X-1210753Y3443114D01*
G01X-1197578Y3451078D01*
G01X-1185459Y3460573D01*
G01X-1174573Y3471459D01*
G01X-1165078Y3483578D01*
G01X-1157114Y3496753D01*
G01X-1150795Y3510792D01*
G01X-1146215Y3525490D01*
G01X-1143440Y3540633D01*
G01X-1142511Y3556000D01*
G01X1142511Y3556000D01*
G01X1143440Y3540633D01*
G01X1146215Y3525490D01*
G01X1150795Y3510792D01*
G01X1157114Y3496753D01*
G01X1165078Y3483578D01*
G01X1174573Y3471459D01*
G01X1185459Y3460573D01*
G01X1197578Y3451078D01*
G01X1210753Y3443114D01*
G01X1224792Y3436795D01*
G01X1239490Y3432215D01*
G01X1254633Y3429440D01*
G01X1270000Y3428511D01*
G01X1270000Y3428511D01*
G01X1285367Y3429440D01*
G01X1300510Y3432215D01*
G01X1315208Y3436795D01*
G01X1329247Y3443114D01*
G01X1342422Y3451078D01*
G01X1354541Y3460573D01*
G01X1365427Y3471459D01*
G01X1374922Y3483578D01*
G01X1382886Y3496753D01*
G01X1389205Y3510792D01*
G01X1393785Y3525490D01*
G01X1396560Y3540633D01*
G01X1397489Y3556000D01*
G01X1396560Y3571367D01*
G01X1393785Y3586510D01*
G01X1389205Y3601208D01*
G01X1382886Y3615247D01*
G01X1374922Y3628422D01*
G01X1365427Y3640541D01*
G01X1354541Y3651427D01*
G01X1342422Y3660922D01*
G01X1329247Y3668886D01*
G01X1315208Y3675205D01*
G01X1300510Y3679785D01*
G01X1285367Y3682560D01*
G01X1270000Y3683489D01*
G01X1254633Y3682560D01*
G01X1239490Y3679785D01*
G01X1224792Y3675205D01*
G01X1210753Y3668886D01*
G01X1197578Y3660922D01*
G01X1185459Y3651427D01*
G01X1174573Y3640541D01*
G01X1165078Y3628422D01*
G01X1157114Y3615247D01*
G01X1150795Y3601208D01*
G01X1146215Y3586510D01*
G01X1143440Y3571367D01*
G01X1142511Y3556000D01*
G01X-1142511Y3556000D01*
G01X-1143440Y3571367D01*
G01X-1146215Y3586510D01*
G01X-1150795Y3601208D01*
G01X-1157114Y3615247D01*
G01X-1165078Y3628422D01*
G01X-1174573Y3640541D01*
G01X-1185459Y3651427D01*
G01X-1197578Y3660922D01*
G01X-1210753Y3668886D01*
G01X-1224792Y3675205D01*
G01X-1239490Y3679785D01*
G01X-1254633Y3682560D01*
G01X-1270000Y3683489D01*
G01X-1285367Y3682560D01*
G01X-1300510Y3679785D01*
G01X-1315208Y3675205D01*
G01X-1329247Y3668886D01*
G01X-1342422Y3660922D01*
G01X-1354541Y3651427D01*
G01X-1365427Y3640541D01*
G01X-1374922Y3628422D01*
G01X-1382886Y3615247D01*
G01X-1389205Y3601208D01*
G01X-1393785Y3586510D01*
G01X-1396560Y3571367D01*
G01X-1397489Y3556000D01*
G01X-1485392Y3556000D01*
G01X-1485392Y3761232D01*
G01X-1484619Y3765120D01*
G01X-1482416Y3768416D01*
G01X-1479120Y3770619D01*
G01X-1475232Y3771392D01*
G01X1475232Y3771392D01*
G01X1479120Y3770619D01*
G01X1482416Y3768416D01*
G01X1484619Y3765120D01*
G01X1485392Y3761232D01*
G01X1485392Y277368D01*
G01X1484619Y273480D01*
G01X1482416Y270184D01*
G01X1479120Y267981D01*
G01X1475232Y267208D01*
G01X-1475232Y267208D01*
G37*
G04 Copper End*

G04 Pad Start*
G54D10*
G01X-368300Y1270000D03*
G01X-622300Y1270000D03*
G54D11*
G01X435813Y2540000D03*
G01X935812Y2540000D03*
G54D12*
G01X-1066800Y3048000D03*
G01X-1320800Y3048000D03*
G54D13*
G01X-38100Y3048000D03*
G01X-38100Y2032000D03*
G01X-381000Y2032000D03*
G01X-381000Y3048000D03*
G01X-736600Y3048000D03*
G01X-736600Y2032000D03*
G54D14*
G01X355600Y1270000D03*
G54D15*
G01X609600Y1270000D03*
G01X863600Y1270000D03*
G01X1117600Y1270000D03*
G01X355600Y2032000D03*
G01X609600Y2032000D03*
G01X863600Y2032000D03*
G01X1117600Y2032000D03*
G04 Pad End*

G04 Via Start*
G54D17*
G01X1117600Y1638300D03*
G04 Via End*

G04 Track Start*
G54D18*
G01X1117600Y1270000D02*
G01X1117600Y1638300D01*
G01X-38100Y2032000D02*
G01X355600Y2032000D01*
G01X435813Y2540000D02*
G01X435813Y2112213D01*
G01X355600Y2032000D01*
G54D19*
G01X609600Y1270000D02*
G01X609600Y1473200D01*
G01X863600Y1727200D01*
G01X863600Y2032000D01*
G01X-368300Y1270000D02*
G01X-203200Y1104900D01*
G01X444500Y1104900D01*
G01X609600Y1270000D01*
G01X-381000Y2032000D02*
G01X-381000Y1282700D01*
G01X-368300Y1270000D01*
G04 Track End*

M02*

